<svg width="373" height="50" viewBox="0 0 373 50" fill="none" xmlns="http://www.w3.org/2000/svg">
<path d="M54.1316 32.6615C52.9265 31.4711 51.324 30.8155 49.6196 30.8155C47.9153 30.8155 46.3128 31.4711 45.1077 32.6615C45.0513 32.7172 44.9963 32.7743 44.9423 32.8317L38.407 28.3057C38.5934 27.9839 38.7605 27.6505 38.9081 27.3062C39.4006 26.1559 39.6505 24.9345 39.6505 23.676C39.6505 22.4174 39.4006 21.196 38.9081 20.0458C38.4612 19.0018 37.8329 18.0581 37.0391 17.2373L40.721 13.0625C41.1121 13.3254 41.5291 13.5499 41.9691 13.7336C42.8618 14.1067 43.8095 14.2958 44.786 14.2958C45.7626 14.2958 46.7102 14.1067 47.603 13.7336C48.4647 13.3736 49.2385 12.8582 49.9029 12.2021C50.5671 11.5459 51.0889 10.7817 51.4533 9.93036C51.831 9.04854 52.0224 8.11247 52.0224 7.14788C52.0224 6.1833 51.831 5.24722 51.4533 4.3654C51.0889 3.51423 50.5671 2.74989 49.9029 2.09362C49.2387 1.43755 48.4649 0.922134 47.603 0.562157C46.7102 0.189101 45.7626 0 44.786 0C43.8095 0 42.8618 0.189101 41.9691 0.562157C41.1074 0.922134 40.3335 1.43755 39.6691 2.09362C39.005 2.74989 38.4832 3.51402 38.1187 4.3654C37.741 5.24722 37.5496 6.1833 37.5496 7.14788C37.5496 8.11247 37.741 9.04854 38.1187 9.93036C38.4347 10.6685 38.8693 11.3413 39.4124 11.935L35.7304 16.1098C35.1579 15.7012 34.541 15.3575 33.8844 15.0833C32.7199 14.5968 31.4833 14.35 30.2092 14.35C28.9351 14.35 27.6985 14.5968 26.534 15.0833C25.7882 15.3948 25.0932 15.7961 24.4563 16.2807L18.7074 10.1512C19.3113 9.35148 19.6377 8.3854 19.6377 7.36957C19.6377 6.12348 19.1465 4.952 18.2544 4.07103C17.3623 3.18984 16.1765 2.70466 14.915 2.70466C13.6535 2.70466 12.4675 3.18984 11.5756 4.07103C10.6835 4.95221 10.1923 6.12348 10.1923 7.36957C10.1923 8.61566 10.6835 9.78714 11.5756 10.6681C12.4677 11.5493 13.6537 12.0345 14.915 12.0345C15.8206 12.0345 16.6873 11.7845 17.4342 11.3173L23.1831 17.4466C22.4816 18.2171 21.9196 19.0891 21.5102 20.0453C21.0177 21.1956 20.7679 22.417 20.7679 23.6755C20.7679 24.6256 20.9103 25.5543 21.1918 26.4475L11.9359 30.2458C11.6622 29.7857 11.3277 29.3569 10.9355 28.9697C9.72563 27.7747 8.11702 27.1164 6.40597 27.1164C4.69492 27.1164 3.08632 27.7747 1.87645 28.9697C0.666362 30.1652 0 31.7541 0 33.4442C0 35.1344 0.666362 36.7233 1.87623 37.9183C3.0861 39.1134 4.6947 39.7716 6.40575 39.7716C8.11681 39.7716 9.72541 39.1134 10.9353 37.9183C12.1451 36.7233 12.8115 35.1344 12.8115 33.4442C12.8115 32.892 12.7399 32.3506 12.6018 31.8302L21.8588 28.0315C22.2988 28.8542 22.8592 29.605 23.5328 30.2705C24.3995 31.1266 25.4092 31.7989 26.5336 32.2687C27.4317 32.6439 28.3727 32.8763 29.3405 32.9631V39.3315C28.2188 39.5083 27.1845 40.027 26.3658 40.8357C25.3393 41.8496 24.7739 43.1977 24.7739 44.6316C24.7739 46.0655 25.3391 47.4137 26.3658 48.4276C27.3922 49.4415 28.7571 50 30.2088 50C31.6604 50 33.0253 49.4417 34.0517 48.4276C35.0782 47.4135 35.6436 46.0655 35.6436 44.6316C35.6436 43.1977 35.0784 41.8496 34.0517 40.8357C33.233 40.027 32.1987 39.5083 31.077 39.3315V32.9631C32.0451 32.8763 32.986 32.6439 33.8839 32.2687C35.0083 31.7989 36.018 31.1266 36.8848 30.2705C37.0677 30.0897 37.2418 29.9024 37.4081 29.7094L43.9425 34.2347C43.4824 35.1159 43.2384 36.0987 43.2384 37.1186C43.2384 38.8021 43.9022 40.385 45.1073 41.5754C46.3124 42.7657 47.9149 43.4214 49.6192 43.4214C51.3235 43.4214 52.926 42.7657 54.1311 41.5754C55.3362 40.385 56 38.8021 56 37.1186C56 35.4352 55.3362 33.8523 54.1311 32.6619L54.1316 32.6615Z" fill="#CC4B65"/>
<path d="M72.2367 9.96H75.5967L81.8607 27H78.4527L76.8687 22.752H70.9167L69.3567 27H65.9487L72.2367 9.96ZM76.2687 20.424L73.9167 13.392L71.4687 20.424H76.2687ZM86.3888 16.056V27H83.0768V9.96H85.7168L94.5248 21.192V9.984H97.8368V27H95.0768L86.3888 16.056ZM105.361 9.96H108.721L114.985 27H111.577L109.993 22.752H104.041L102.481 27H99.0725L105.361 9.96ZM109.393 20.424L107.041 13.392L104.593 20.424H109.393ZM126.142 14.424C126.03 14.312 125.822 14.16 125.518 13.968C125.23 13.776 124.87 13.592 124.438 13.416C124.022 13.24 123.566 13.088 123.07 12.96C122.574 12.816 122.07 12.744 121.558 12.744C120.662 12.744 119.982 12.912 119.518 13.248C119.07 13.584 118.846 14.056 118.846 14.664C118.846 15.128 118.99 15.496 119.278 15.768C119.566 16.04 119.998 16.272 120.574 16.464C121.15 16.656 121.87 16.864 122.734 17.088C123.854 17.36 124.822 17.696 125.638 18.096C126.47 18.48 127.102 18.992 127.534 19.632C127.982 20.256 128.206 21.088 128.206 22.128C128.206 23.04 128.038 23.824 127.702 24.48C127.366 25.12 126.902 25.64 126.31 26.04C125.718 26.44 125.046 26.736 124.294 26.928C123.542 27.104 122.742 27.192 121.894 27.192C121.046 27.192 120.198 27.104 119.35 26.928C118.502 26.752 117.686 26.504 116.902 26.184C116.118 25.848 115.398 25.448 114.742 24.984L116.206 22.128C116.35 22.272 116.606 22.464 116.974 22.704C117.342 22.928 117.79 23.16 118.318 23.4C118.846 23.624 119.422 23.816 120.046 23.976C120.67 24.136 121.302 24.216 121.942 24.216C122.838 24.216 123.518 24.064 123.982 23.76C124.446 23.456 124.678 23.024 124.678 22.464C124.678 21.952 124.494 21.552 124.126 21.264C123.758 20.976 123.246 20.728 122.59 20.52C121.934 20.296 121.158 20.056 120.262 19.8C119.19 19.496 118.294 19.16 117.574 18.792C116.854 18.408 116.318 17.928 115.966 17.352C115.614 16.776 115.438 16.056 115.438 15.192C115.438 14.024 115.71 13.048 116.254 12.264C116.814 11.464 117.566 10.864 118.51 10.464C119.454 10.048 120.502 9.84 121.654 9.84C122.454 9.84 123.206 9.928 123.91 10.104C124.63 10.28 125.302 10.512 125.926 10.8C126.55 11.088 127.11 11.4 127.606 11.736L126.142 14.424ZM144.383 9.96V27H141.095V19.728H133.367V27H130.055V9.96H133.367V16.848H141.095V9.96H144.383ZM147.285 27V9.96H150.597V27H147.285ZM167.396 27V15.816L163.028 24.144H161.18L156.812 15.816V27H153.5V9.96H157.052L162.092 19.656L167.18 9.96H170.708V27H167.396ZM173.492 18.024V14.568H176.108V18.024H173.492ZM173.492 27V23.544H176.108V27H173.492ZM179.345 27V9.96H180.569V27H179.345ZM185.611 12.24V27H184.387V9.96H185.395L197.275 24.96V9.96H198.499V27H197.299L185.611 12.24ZM203.521 12.24V27H202.297V9.96H203.305L215.185 24.96V9.96H216.409V27H215.209L203.521 12.24ZM226.999 27.12C225.815 27.12 224.735 26.88 223.759 26.4C222.783 25.904 221.943 25.248 221.239 24.432C220.535 23.616 219.991 22.696 219.607 21.672C219.223 20.632 219.031 19.568 219.031 18.48C219.031 17.344 219.231 16.264 219.631 15.24C220.031 14.2 220.591 13.28 221.311 12.48C222.047 11.664 222.895 11.024 223.855 10.56C224.831 10.08 225.887 9.84 227.023 9.84C228.223 9.84 229.303 10.088 230.263 10.584C231.239 11.08 232.079 11.744 232.783 12.576C233.487 13.408 234.031 14.336 234.415 15.36C234.799 16.384 234.991 17.424 234.991 18.48C234.991 19.632 234.791 20.728 234.391 21.768C233.991 22.792 233.423 23.712 232.687 24.528C231.967 25.328 231.119 25.96 230.143 26.424C229.183 26.888 228.135 27.12 226.999 27.12ZM220.255 18.48C220.255 19.456 220.423 20.392 220.759 21.288C221.095 22.184 221.559 22.984 222.151 23.688C222.759 24.392 223.471 24.952 224.287 25.368C225.119 25.784 226.031 25.992 227.023 25.992C228.031 25.992 228.951 25.776 229.783 25.344C230.615 24.912 231.327 24.336 231.919 23.616C232.511 22.896 232.959 22.096 233.263 21.216C233.583 20.32 233.743 19.408 233.743 18.48C233.743 17.504 233.575 16.568 233.239 15.672C232.919 14.776 232.455 13.976 231.847 13.272C231.239 12.568 230.519 12.008 229.687 11.592C228.871 11.176 227.983 10.968 227.023 10.968C225.999 10.968 225.071 11.184 224.239 11.616C223.407 12.048 222.695 12.624 222.103 13.344C221.527 14.064 221.071 14.872 220.735 15.768C220.415 16.648 220.255 17.552 220.255 18.48ZM236.415 9.96L242.895 25.464L249.375 9.96H250.671L243.495 27H242.319L235.119 9.96H236.415ZM256.55 9.96H257.606L264.806 27H263.51L261.134 21.384H252.998L250.622 27H249.302L256.55 9.96ZM260.798 20.376L257.078 11.448L253.286 20.376H260.798ZM276.98 11.064H270.74V27H269.516V11.064H263.276V9.96H276.98V11.064ZM278.978 27V9.96H280.202V27H278.978ZM290.812 27.12C289.628 27.12 288.548 26.88 287.572 26.4C286.596 25.904 285.756 25.248 285.052 24.432C284.348 23.616 283.804 22.696 283.42 21.672C283.036 20.632 282.844 19.568 282.844 18.48C282.844 17.344 283.044 16.264 283.444 15.24C283.844 14.2 284.404 13.28 285.124 12.48C285.86 11.664 286.708 11.024 287.668 10.56C288.644 10.08 289.7 9.84 290.836 9.84C292.036 9.84 293.116 10.088 294.076 10.584C295.052 11.08 295.892 11.744 296.596 12.576C297.3 13.408 297.844 14.336 298.228 15.36C298.612 16.384 298.804 17.424 298.804 18.48C298.804 19.632 298.604 20.728 298.204 21.768C297.804 22.792 297.236 23.712 296.5 24.528C295.78 25.328 294.932 25.96 293.956 26.424C292.996 26.888 291.948 27.12 290.812 27.12ZM284.068 18.48C284.068 19.456 284.236 20.392 284.572 21.288C284.908 22.184 285.372 22.984 285.964 23.688C286.572 24.392 287.284 24.952 288.1 25.368C288.932 25.784 289.844 25.992 290.836 25.992C291.844 25.992 292.764 25.776 293.596 25.344C294.428 24.912 295.14 24.336 295.732 23.616C296.324 22.896 296.772 22.096 297.076 21.216C297.396 20.32 297.556 19.408 297.556 18.48C297.556 17.504 297.388 16.568 297.052 15.672C296.732 14.776 296.268 13.976 295.66 13.272C295.052 12.568 294.332 12.008 293.5 11.592C292.684 11.176 291.796 10.968 290.836 10.968C289.812 10.968 288.884 11.184 288.052 11.616C287.22 12.048 286.508 12.624 285.916 13.344C285.34 14.064 284.884 14.872 284.548 15.768C284.228 16.648 284.068 17.552 284.068 18.48ZM302.661 12.24V27H301.437V9.96H302.445L314.325 24.96V9.96H315.549V27H314.349L302.661 12.24ZM338.058 9.96V27H336.834V18.84H326.082V27H324.858V9.96H326.082V17.736H336.834V9.96H338.058ZM348.718 27.12C347.358 27.12 346.222 26.88 345.31 26.4C344.398 25.92 343.67 25.272 343.126 24.456C342.582 23.624 342.19 22.696 341.95 21.672C341.71 20.648 341.59 19.6 341.59 18.528V9.96H342.814V18.528C342.814 19.456 342.91 20.368 343.102 21.264C343.294 22.16 343.606 22.968 344.038 23.688C344.486 24.392 345.086 24.952 345.838 25.368C346.606 25.784 347.558 25.992 348.694 25.992C349.846 25.992 350.798 25.776 351.55 25.344C352.318 24.912 352.918 24.344 353.35 23.64C353.798 22.92 354.11 22.12 354.286 21.24C354.478 20.344 354.574 19.44 354.574 18.528V9.96H355.798V18.528C355.798 19.664 355.67 20.752 355.414 21.792C355.174 22.816 354.774 23.728 354.214 24.528C353.654 25.328 352.926 25.96 352.03 26.424C351.134 26.888 350.03 27.12 348.718 27.12ZM371.893 22.584C371.893 23.416 371.685 24.168 371.269 24.84C370.869 25.496 370.317 26.024 369.613 26.424C368.925 26.808 368.157 27 367.309 27H359.341V9.96H367.285C368.085 9.96 368.773 10.176 369.349 10.608C369.941 11.024 370.389 11.568 370.693 12.24C371.013 12.896 371.173 13.584 371.173 14.304C371.173 15.152 370.957 15.944 370.525 16.68C370.093 17.4 369.493 17.928 368.725 18.264C369.701 18.552 370.469 19.096 371.029 19.896C371.605 20.68 371.893 21.576 371.893 22.584ZM370.669 22.416C370.669 21.808 370.525 21.24 370.237 20.712C369.965 20.184 369.589 19.752 369.109 19.416C368.629 19.08 368.085 18.912 367.477 18.912H360.565V25.896H367.309C367.933 25.896 368.501 25.736 369.013 25.416C369.525 25.08 369.925 24.648 370.213 24.12C370.517 23.576 370.669 23.008 370.669 22.416ZM360.565 11.064V17.88H366.805C367.429 17.88 367.973 17.72 368.437 17.4C368.917 17.064 369.293 16.64 369.565 16.128C369.837 15.6 369.973 15.048 369.973 14.472C369.973 13.848 369.845 13.28 369.589 12.768C369.333 12.256 368.973 11.848 368.509 11.544C368.061 11.224 367.541 11.064 366.949 11.064H360.565Z" fill="#404040"/>
<path d="M74.594 38.584V33.642H76.162V38.584H74.594ZM73.544 34.944L73.712 33.642H75.49V34.944H73.544ZM81.9345 42.056C81.0851 42.056 80.3758 41.8833 79.8065 41.538C79.2465 41.1833 78.8265 40.6513 78.5465 39.942C78.2665 39.2327 78.1265 38.3367 78.1265 37.254V33.642H79.6805V37.254C79.6805 38.0847 79.7598 38.7613 79.9185 39.284C80.0771 39.8067 80.3198 40.194 80.6465 40.446C80.9731 40.6887 81.3931 40.81 81.9065 40.81H81.9765C82.5085 40.81 82.9378 40.6887 83.2645 40.446C83.6005 40.194 83.8478 39.8067 84.0065 39.284C84.1651 38.7613 84.2445 38.0893 84.2445 37.268V33.642H85.7985V37.268C85.7985 38.3413 85.6585 39.2327 85.3785 39.942C85.1078 40.6513 84.6925 41.1833 84.1325 41.538C83.5725 41.8833 82.8631 42.056 82.0045 42.056H81.9345ZM79.0505 38.78L78.9525 37.758C79.4938 37.786 79.9325 37.702 80.2685 37.506C80.6045 37.3007 80.8518 36.9787 81.0105 36.54C81.1691 36.1013 81.2485 35.5413 81.2485 34.86V33.642H82.6905V34.776C82.6905 35.4387 82.6205 36.0267 82.4805 36.54C82.3405 37.044 82.1211 37.4687 81.8225 37.814C81.5331 38.15 81.1551 38.402 80.6885 38.57C80.2311 38.7287 79.6851 38.7987 79.0505 38.78ZM88.4386 42V33.642H90.0066V42H88.4386ZM87.3746 34.944L87.5566 33.642H89.4606V34.944H87.3746ZM93.6078 42V35.924C93.6078 35.6813 93.5798 35.49 93.5238 35.35C93.4771 35.2007 93.3931 35.098 93.2718 35.042C93.1505 34.9767 92.9825 34.944 92.7678 34.944H92.0398L92.2078 33.642H93.1738C93.8738 33.642 94.3825 33.824 94.6998 34.188C95.0171 34.5427 95.1758 35.07 95.1758 35.77V42H93.6078ZM91.8158 42V40.698H94.3498V42H91.8158ZM101.883 42C101.547 41.2907 101.211 40.6187 100.875 39.984C100.549 39.34 100.222 38.724 99.8953 38.136C99.5686 37.548 99.2373 36.9973 98.9013 36.484C98.7333 36.204 98.5559 35.9287 98.3693 35.658C98.1919 35.378 98.0193 35.112 97.8513 34.86C97.6833 34.608 97.5293 34.3793 97.3893 34.174C97.2493 33.9593 97.1233 33.782 97.0113 33.642H98.8033C98.9433 33.8567 99.0879 34.0947 99.2373 34.356C99.3959 34.608 99.5639 34.8787 99.7413 35.168C99.9279 35.4573 100.119 35.7607 100.315 36.078C100.642 36.638 100.987 37.2447 101.351 37.898C101.725 38.542 102.098 39.214 102.471 39.914C102.854 40.6047 103.223 41.3 103.577 42H101.883ZM96.7873 42L97.0813 39.312C97.1466 38.7613 97.2633 38.2807 97.4313 37.87C97.6086 37.4593 97.8513 37.1093 98.1593 36.82C98.4673 36.5307 98.8499 36.2973 99.3073 36.12L99.7133 37.016C99.4706 37.128 99.2699 37.2913 99.1113 37.506C98.9619 37.7207 98.8453 37.9867 98.7613 38.304C98.6866 38.612 98.6259 38.9713 98.5793 39.382L98.3133 42H96.7873ZM101.155 38.528L100.735 37.66C100.978 37.5573 101.174 37.3987 101.323 37.184C101.482 36.96 101.608 36.6987 101.701 36.4C101.804 36.1013 101.865 35.7793 101.883 35.434L102.037 33.642H103.549L103.381 35.504C103.344 35.9893 103.237 36.4373 103.059 36.848C102.882 37.2587 102.635 37.6087 102.317 37.898C102 38.1873 101.613 38.3973 101.155 38.528ZM109.751 42V36.428C109.751 35.9333 109.658 35.5647 109.471 35.322C109.285 35.07 108.953 34.944 108.477 34.944H105.117L105.299 33.642H108.575C109.537 33.642 110.232 33.8753 110.661 34.342C111.1 34.7993 111.319 35.4807 111.319 36.386V42H109.751ZM105.285 42V37.086L106.853 36.988V42H105.285ZM117.873 44.646V33.642H119.441V44.548L117.873 44.646ZM116.823 34.944L116.991 33.642H118.909V34.944H116.823ZM122.369 42V33.642H123.937V42H122.369ZM121.305 34.944L121.487 33.642H123.391V34.944H121.305ZM130.562 42V36.428C130.562 35.9333 130.469 35.5647 130.282 35.322C130.096 35.07 129.764 34.944 129.288 34.944H125.928L126.11 33.642H129.386C130.348 33.642 131.043 33.8753 131.472 34.342C131.911 34.7993 132.13 35.4807 132.13 36.386V42H130.562ZM126.096 42V37.086L127.664 36.988V42H126.096ZM138.667 42V36.428C138.667 35.9333 138.573 35.5647 138.387 35.322C138.2 35.07 137.869 34.944 137.393 34.944H134.033L134.215 33.642H137.491C138.452 33.642 139.147 33.8753 139.577 34.342C140.015 34.7993 140.235 35.4807 140.235 36.386V42H138.667ZM134.201 42V37.086L135.769 36.988V42H134.201ZM149.673 33.642C150.634 33.642 151.343 33.8753 151.801 34.342C152.267 34.7993 152.501 35.4807 152.501 36.386V42H150.933V36.428C150.933 35.9333 150.825 35.5647 150.611 35.322C150.396 35.07 150.051 34.944 149.575 34.944H148.105C148.049 35.0187 147.993 35.1633 147.937 35.378C147.881 35.5927 147.853 35.938 147.853 36.414V42H146.285V36.834C146.285 36.4327 146.322 36.0733 146.397 35.756C146.481 35.4293 146.611 35.168 146.789 34.972L146.565 34.902V33.642H149.673ZM145.767 34.944L145.949 33.642H148.693V34.944H145.767ZM155.236 42V33.642H156.804V42H155.236ZM154.172 34.944L154.354 33.642H156.258V34.944H154.172ZM163.989 42V36.428C163.989 35.9333 163.896 35.5647 163.709 35.322C163.532 35.07 163.205 34.944 162.729 34.944H159.719V33.642H162.827C163.779 33.642 164.47 33.8753 164.899 34.342C165.338 34.7993 165.557 35.4807 165.557 36.386V42H163.989ZM158.473 42L158.641 40.698H159.047C159.252 40.698 159.397 40.6607 159.481 40.586C159.574 40.502 159.635 40.376 159.663 40.208C159.7 40.04 159.719 39.83 159.719 39.578V33.978H161.287V39.606C161.287 40.3807 161.138 40.9733 160.839 41.384C160.54 41.7947 160.036 42 159.327 42H158.473ZM158.655 34.944L158.823 33.642H160.671V34.944H158.655ZM168.013 38.584V33.642H169.581V38.584H168.013ZM166.963 34.944L167.131 33.642H168.909V34.944H166.963ZM171.685 42V40.698H173.925C174.429 40.698 174.845 40.5767 175.171 40.334C175.507 40.0913 175.759 39.7507 175.927 39.312C176.105 38.864 176.193 38.3413 176.193 37.744C176.193 36.8293 176.039 36.1107 175.731 35.588C175.433 35.0653 174.975 34.804 174.359 34.804C173.893 34.804 173.529 34.9533 173.267 35.252C173.015 35.5507 172.889 35.938 172.889 36.414C172.889 36.7687 172.964 37.072 173.113 37.324C173.272 37.576 173.491 37.7393 173.771 37.814C173.846 37.842 173.916 37.8653 173.981 37.884C174.056 37.8933 174.121 37.898 174.177 37.898L174.065 39.046C173.972 39.0647 173.86 39.0693 173.729 39.06C173.599 39.0413 173.435 39.0133 173.239 38.976C172.661 38.864 172.203 38.5793 171.867 38.122C171.541 37.6553 171.377 37.072 171.377 36.372C171.377 35.8027 171.494 35.3033 171.727 34.874C171.961 34.4447 172.301 34.1087 172.749 33.866C173.197 33.6233 173.734 33.502 174.359 33.502C175.461 33.502 176.305 33.88 176.893 34.636C177.491 35.3827 177.789 36.4187 177.789 37.744C177.789 38.612 177.635 39.3633 177.327 39.998C177.019 40.6327 176.567 41.1273 175.969 41.482C175.381 41.8273 174.653 42 173.785 42H171.685ZM188.409 42V36.428C188.409 35.9333 188.316 35.5647 188.129 35.322C187.952 35.07 187.625 34.944 187.149 34.944H184.139V33.642H187.247C188.199 33.642 188.89 33.8753 189.319 34.342C189.758 34.7993 189.977 35.4807 189.977 36.386V42H188.409ZM182.893 42L183.061 40.698H183.467C183.673 40.698 183.817 40.6607 183.901 40.586C183.995 40.502 184.055 40.376 184.083 40.208C184.121 40.04 184.139 39.83 184.139 39.578V33.978H185.707V39.606C185.707 40.3807 185.558 40.9733 185.259 41.384C184.961 41.7947 184.457 42 183.747 42H182.893ZM183.075 34.944L183.243 33.642H185.091V34.944H183.075ZM192.707 42V33.642H194.275V42H192.707ZM191.643 34.944L191.825 33.642H193.729V34.944H191.643ZM196.252 42L197.022 36.764L196.084 33.642H197.652L198.072 35.448H198.128C198.212 35.1587 198.32 34.8973 198.45 34.664C198.581 34.4307 198.74 34.23 198.926 34.062C199.122 33.8847 199.346 33.7493 199.598 33.656C199.85 33.5627 200.14 33.516 200.466 33.516C201.045 33.516 201.54 33.67 201.95 33.978C202.361 34.2767 202.674 34.7247 202.888 35.322C203.112 35.91 203.224 36.6473 203.224 37.534V37.73C203.224 38.6353 203.098 39.4053 202.846 40.04C202.604 40.6747 202.24 41.16 201.754 41.496C201.278 41.832 200.686 42 199.976 42H198.996L199.15 40.698H199.906C200.476 40.698 200.91 40.4413 201.208 39.928C201.507 39.4053 201.656 38.6727 201.656 37.73V37.534C201.656 36.9273 201.591 36.428 201.46 36.036C201.339 35.6347 201.166 35.336 200.942 35.14C200.718 34.9347 200.448 34.832 200.13 34.832C199.888 34.832 199.673 34.8833 199.486 34.986C199.309 35.0887 199.15 35.238 199.01 35.434C198.88 35.6207 198.768 35.854 198.674 36.134C198.59 36.4047 198.53 36.7127 198.492 37.058L197.848 42H196.252ZM205.986 33.642H210.074L209.892 34.608L207.82 42H206.238L208.268 34.944H204.418V31.528L205.986 31.36V33.642ZM212.4 42V33.642H213.968V42H212.4ZM211.336 34.944L211.518 33.642H213.422V34.944H211.336ZM215.637 42.504V41.216L218.409 40.586C218.745 40.5113 219.025 40.3947 219.249 40.236C219.482 40.0773 219.674 39.8487 219.823 39.55C219.972 39.2513 220.089 38.8547 220.173 38.36C220.257 37.856 220.322 37.2213 220.369 36.456L220.551 33.642H222.119L221.951 36.218C221.914 36.9647 221.844 37.6227 221.741 38.192C221.648 38.752 221.517 39.242 221.349 39.662C221.181 40.0727 220.966 40.4227 220.705 40.712C220.444 41.0013 220.131 41.2393 219.767 41.426C219.403 41.6127 218.974 41.762 218.479 41.874L215.637 42.504ZM217.415 41.356L215.931 33.754L217.457 33.558L218.535 39.242C218.582 39.4473 218.596 39.676 218.577 39.928C218.558 40.1707 218.507 40.4133 218.423 40.656C218.339 40.8987 218.213 41.132 218.045 41.356H217.415ZM226.858 42V36.428C226.858 35.9333 226.764 35.5647 226.578 35.322C226.4 35.07 226.074 34.944 225.598 34.944H223.652L223.834 33.642H225.696C226.648 33.642 227.338 33.8753 227.768 34.342C228.206 34.7993 228.426 35.4807 228.426 36.386V40.852C228.379 41.048 228.29 41.244 228.16 41.44C228.038 41.6267 227.908 41.8133 227.768 42H226.858ZM223.428 42V40.698H229.336L229.154 42H223.428ZM238.393 42.056C237.544 42.056 236.835 41.8833 236.265 41.538C235.705 41.1833 235.285 40.6513 235.005 39.942C234.725 39.2327 234.585 38.3367 234.585 37.254V33.642H236.139V37.254C236.139 38.0847 236.219 38.7613 236.377 39.284C236.536 39.8067 236.779 40.194 237.105 40.446C237.432 40.6887 237.852 40.81 238.365 40.81H238.435C238.967 40.81 239.397 40.6887 239.723 40.446C240.059 40.194 240.307 39.8067 240.465 39.284C240.624 38.7613 240.703 38.0893 240.703 37.268V33.642H242.257V37.268C242.257 38.3413 242.117 39.2327 241.837 39.942C241.567 40.6513 241.151 41.1833 240.591 41.538C240.031 41.8833 239.322 42.056 238.463 42.056H238.393ZM235.509 38.78L235.411 37.758C235.953 37.786 236.391 37.702 236.727 37.506C237.063 37.3007 237.311 36.9787 237.469 36.54C237.628 36.1013 237.707 35.5413 237.707 34.86V33.642H239.149V34.776C239.149 35.4387 239.079 36.0267 238.939 36.54C238.799 37.044 238.58 37.4687 238.281 37.814C237.992 38.15 237.614 38.402 237.147 38.57C236.69 38.7287 236.144 38.7987 235.509 38.78ZM243.736 34.944V33.642H249.476L249.294 34.944H243.736ZM246.746 42V36.078C246.746 35.966 246.76 35.8353 246.788 35.686C246.816 35.5367 246.867 35.392 246.942 35.252C247.016 35.112 247.119 35.0093 247.25 34.944H248.496C248.412 35.0187 248.36 35.126 248.342 35.266C248.323 35.406 248.314 35.5647 248.314 35.742V42H246.746ZM254.587 33.642C255.548 33.642 256.257 33.8753 256.715 34.342C257.181 34.7993 257.415 35.4807 257.415 36.386V42H255.847V36.428C255.847 35.9333 255.739 35.5647 255.525 35.322C255.31 35.07 254.965 34.944 254.489 34.944H253.019C252.963 35.0187 252.907 35.1633 252.851 35.378C252.795 35.5927 252.767 35.938 252.767 36.414V42H251.199V36.834C251.199 36.4327 251.236 36.0733 251.311 35.756C251.395 35.4293 251.525 35.168 251.703 34.972L251.479 34.902V33.642H254.587ZM250.681 34.944L250.863 33.642H253.607V34.944H250.681ZM263.104 42.056C262.254 42.056 261.545 41.8833 260.976 41.538C260.416 41.1833 259.996 40.6513 259.716 39.942C259.436 39.2327 259.296 38.3367 259.296 37.254V33.642H260.85V37.254C260.85 38.0847 260.929 38.7613 261.088 39.284C261.246 39.8067 261.489 40.194 261.816 40.446C262.142 40.6887 262.562 40.81 263.076 40.81H263.146C263.678 40.81 264.107 40.6887 264.434 40.446C264.77 40.194 265.017 39.8067 265.176 39.284C265.334 38.7613 265.414 38.0893 265.414 37.268V33.642H266.968V37.268C266.968 38.3413 266.828 39.2327 266.548 39.942C266.277 40.6513 265.862 41.1833 265.302 41.538C264.742 41.8833 264.032 42.056 263.174 42.056H263.104ZM260.22 38.78L260.122 37.758C260.663 37.786 261.102 37.702 261.438 37.506C261.774 37.3007 262.021 36.9787 262.18 36.54C262.338 36.1013 262.418 35.5413 262.418 34.86V33.642H263.86V34.776C263.86 35.4387 263.79 36.0267 263.65 36.54C263.51 37.044 263.29 37.4687 262.992 37.814C262.702 38.15 262.324 38.402 261.858 38.57C261.4 38.7287 260.854 38.7987 260.22 38.78ZM277.213 42V36.428C277.213 35.9333 277.12 35.5647 276.933 35.322C276.747 35.07 276.415 34.944 275.939 34.944H272.579L272.761 33.642H276.037C276.999 33.642 277.694 33.8753 278.123 34.342C278.562 34.7993 278.781 35.4807 278.781 36.386V42H277.213ZM272.747 42V37.086L274.315 36.988V42H272.747ZM280.67 42L281.44 36.764L280.502 33.642H282.07L282.49 35.448H282.546C282.63 35.1587 282.737 34.8973 282.868 34.664C282.998 34.4307 283.157 34.23 283.344 34.062C283.54 33.8847 283.764 33.7493 284.016 33.656C284.268 33.5627 284.557 33.516 284.884 33.516C285.462 33.516 285.957 33.67 286.368 33.978C286.778 34.2767 287.091 34.7247 287.306 35.322C287.53 35.91 287.642 36.6473 287.642 37.534V37.73C287.642 38.6353 287.516 39.4053 287.264 40.04C287.021 40.6747 286.657 41.16 286.172 41.496C285.696 41.832 285.103 42 284.394 42H283.414L283.568 40.698H284.324C284.893 40.698 285.327 40.4413 285.626 39.928C285.924 39.4053 286.074 38.6727 286.074 37.73V37.534C286.074 36.9273 286.008 36.428 285.878 36.036C285.756 35.6347 285.584 35.336 285.36 35.14C285.136 34.9347 284.865 34.832 284.548 34.832C284.305 34.832 284.09 34.8833 283.904 34.986C283.726 35.0887 283.568 35.238 283.428 35.434C283.297 35.6207 283.185 35.854 283.092 36.134C283.008 36.4047 282.947 36.7127 282.91 37.058L282.266 42H280.67ZM294.229 33.642H298.317L298.135 34.608L296.063 42H294.481L296.511 34.944H292.661V31.528L294.229 31.36V33.642ZM299.565 42V40.698H301.413C302.01 40.698 302.449 40.4693 302.729 40.012C303.009 39.5453 303.149 38.8313 303.149 37.87C303.149 36.8713 303.009 36.134 302.729 35.658C302.449 35.182 302.01 34.944 301.413 34.944H299.565L299.733 33.642H301.413C302.542 33.642 303.382 33.992 303.933 34.692C304.483 35.3827 304.759 36.442 304.759 37.87C304.759 39.27 304.483 40.3107 303.933 40.992C303.382 41.664 302.542 42 301.413 42H299.565ZM307.13 33.642H311.218L311.036 34.608L308.964 42H307.382L309.412 34.944H305.562V31.528L307.13 31.36V33.642ZM316.207 34.944V33.642H321.947L321.765 34.944H316.207ZM319.217 42V36.078C319.217 35.966 319.231 35.8353 319.259 35.686C319.287 35.5367 319.338 35.392 319.413 35.252C319.487 35.112 319.59 35.0093 319.721 34.944H320.967C320.883 35.0187 320.831 35.126 320.813 35.266C320.794 35.406 320.785 35.5647 320.785 35.742V42H319.217ZM327.058 33.642C328.019 33.642 328.728 33.8753 329.186 34.342C329.652 34.7993 329.886 35.4807 329.886 36.386V42H328.318V36.428C328.318 35.9333 328.21 35.5647 327.996 35.322C327.781 35.07 327.436 34.944 326.96 34.944H325.49C325.434 35.0187 325.378 35.1633 325.322 35.378C325.266 35.5927 325.238 35.938 325.238 36.414V42H323.67V36.834C323.67 36.4327 323.707 36.0733 323.782 35.756C323.866 35.4293 323.996 35.168 324.174 34.972L323.95 34.902V33.642H327.058ZM323.152 34.944L323.334 33.642H326.078V34.944H323.152ZM336.583 42C336.247 41.2907 335.911 40.6187 335.575 39.984C335.248 39.34 334.921 38.724 334.595 38.136C334.268 37.548 333.937 36.9973 333.601 36.484C333.433 36.204 333.255 35.9287 333.069 35.658C332.891 35.378 332.719 35.112 332.551 34.86C332.383 34.608 332.229 34.3793 332.089 34.174C331.949 33.9593 331.823 33.782 331.711 33.642H333.503C333.643 33.8567 333.787 34.0947 333.937 34.356C334.095 34.608 334.263 34.8787 334.441 35.168C334.627 35.4573 334.819 35.7607 335.015 36.078C335.341 36.638 335.687 37.2447 336.051 37.898C336.424 38.542 336.797 39.214 337.171 39.914C337.553 40.6047 337.922 41.3 338.277 42H336.583ZM331.487 42L331.781 39.312C331.846 38.7613 331.963 38.2807 332.131 37.87C332.308 37.4593 332.551 37.1093 332.859 36.82C333.167 36.5307 333.549 36.2973 334.007 36.12L334.413 37.016C334.17 37.128 333.969 37.2913 333.811 37.506C333.661 37.7207 333.545 37.9867 333.461 38.304C333.386 38.612 333.325 38.9713 333.279 39.382L333.013 42H331.487ZM335.855 38.528L335.435 37.66C335.677 37.5573 335.873 37.3987 336.023 37.184C336.181 36.96 336.307 36.6987 336.401 36.4C336.503 36.1013 336.564 35.7793 336.583 35.434L336.737 33.642H338.249L338.081 35.504C338.043 35.9893 337.936 36.4373 337.759 36.848C337.581 37.2587 337.334 37.6087 337.017 37.898C336.699 38.1873 336.312 38.3973 335.855 38.528ZM347.436 33.642C348.397 33.642 349.107 33.8753 349.564 34.342C350.031 34.7993 350.264 35.4807 350.264 36.386V42H344.034V36.078C344.034 35.966 344.048 35.8353 344.076 35.686C344.104 35.5367 344.155 35.392 344.23 35.252C344.305 35.112 344.407 35.0093 344.538 34.944H343.404L343.572 33.642H347.436ZM348.696 40.698V36.428C348.696 35.9333 348.589 35.5647 348.374 35.322C348.159 35.07 347.814 34.944 347.338 34.944H345.7C345.663 35.0467 345.635 35.1727 345.616 35.322C345.607 35.462 345.602 35.602 345.602 35.742V40.698H348.696ZM352.86 42V33.642H354.428V42H352.86ZM351.796 34.944L351.978 33.642H353.882V34.944H351.796ZM359.64 42L361.404 34.93H356.378L356.546 33.642H363.168L363.014 34.608L361.166 42H359.64ZM356.672 44.646V36.806L358.24 36.694V44.548L356.672 44.646ZM364.592 42L365.362 36.764L364.424 33.642H365.992L366.412 35.448H366.468C366.552 35.1587 366.66 34.8973 366.79 34.664C366.921 34.4307 367.08 34.23 367.266 34.062C367.462 33.8847 367.686 33.7493 367.938 33.656C368.19 33.5627 368.48 33.516 368.806 33.516C369.385 33.516 369.88 33.67 370.29 33.978C370.701 34.2767 371.014 34.7247 371.228 35.322C371.452 35.91 371.564 36.6473 371.564 37.534V37.73C371.564 38.6353 371.438 39.4053 371.186 40.04C370.944 40.6747 370.58 41.16 370.094 41.496C369.618 41.832 369.026 42 368.316 42H367.336L367.49 40.698H368.246C368.816 40.698 369.25 40.4413 369.548 39.928C369.847 39.4053 369.996 38.6727 369.996 37.73V37.534C369.996 36.9273 369.931 36.428 369.8 36.036C369.679 35.6347 369.506 35.336 369.282 35.14C369.058 34.9347 368.788 34.832 368.47 34.832C368.228 34.832 368.013 34.8833 367.826 34.986C367.649 35.0887 367.49 35.238 367.35 35.434C367.22 35.6207 367.108 35.854 367.014 36.134C366.93 36.4047 366.87 36.7127 366.832 37.058L366.188 42H364.592Z" fill="#CC4B65"/>
</svg>
