<svg width="373" height="50" viewBox="0 0 373 50" fill="none" xmlns="http://www.w3.org/2000/svg">
<path d="M54.1316 32.6615C52.9265 31.4711 51.324 30.8155 49.6196 30.8155C47.9153 30.8155 46.3128 31.4711 45.1077 32.6615C45.0513 32.7172 44.9963 32.7743 44.9423 32.8317L38.407 28.3057C38.5934 27.9839 38.7605 27.6505 38.9081 27.3062C39.4006 26.1559 39.6505 24.9345 39.6505 23.676C39.6505 22.4174 39.4006 21.196 38.9081 20.0458C38.4612 19.0018 37.8329 18.0581 37.0391 17.2373L40.721 13.0625C41.1121 13.3254 41.5291 13.5499 41.9691 13.7336C42.8618 14.1067 43.8095 14.2958 44.786 14.2958C45.7626 14.2958 46.7102 14.1067 47.603 13.7336C48.4647 13.3736 49.2385 12.8582 49.9029 12.2021C50.5671 11.5459 51.0889 10.7817 51.4533 9.93036C51.831 9.04854 52.0224 8.11247 52.0224 7.14788C52.0224 6.1833 51.831 5.24722 51.4533 4.3654C51.0889 3.51423 50.5671 2.74989 49.9029 2.09362C49.2387 1.43755 48.4649 0.922134 47.603 0.562157C46.7102 0.189101 45.7626 0 44.786 0C43.8095 0 42.8618 0.189101 41.9691 0.562157C41.1074 0.922134 40.3335 1.43755 39.6691 2.09362C39.005 2.74989 38.4832 3.51402 38.1187 4.3654C37.741 5.24722 37.5496 6.1833 37.5496 7.14788C37.5496 8.11247 37.741 9.04854 38.1187 9.93036C38.4347 10.6685 38.8693 11.3413 39.4124 11.935L35.7304 16.1098C35.1579 15.7012 34.541 15.3575 33.8844 15.0833C32.7199 14.5968 31.4833 14.35 30.2092 14.35C28.9351 14.35 27.6985 14.5968 26.534 15.0833C25.7882 15.3948 25.0932 15.7961 24.4563 16.2807L18.7074 10.1512C19.3113 9.35148 19.6377 8.3854 19.6377 7.36957C19.6377 6.12348 19.1465 4.952 18.2544 4.07103C17.3623 3.18984 16.1765 2.70466 14.915 2.70466C13.6535 2.70466 12.4675 3.18984 11.5756 4.07103C10.6835 4.95221 10.1923 6.12348 10.1923 7.36957C10.1923 8.61566 10.6835 9.78714 11.5756 10.6681C12.4677 11.5493 13.6537 12.0345 14.915 12.0345C15.8206 12.0345 16.6873 11.7845 17.4342 11.3173L23.1831 17.4466C22.4816 18.2171 21.9196 19.0891 21.5102 20.0453C21.0177 21.1956 20.7679 22.417 20.7679 23.6755C20.7679 24.6256 20.9103 25.5543 21.1918 26.4475L11.9359 30.2458C11.6622 29.7857 11.3277 29.3569 10.9355 28.9697C9.72563 27.7747 8.11702 27.1164 6.40597 27.1164C4.69492 27.1164 3.08632 27.7747 1.87645 28.9697C0.666362 30.1652 0 31.7541 0 33.4442C0 35.1344 0.666362 36.7233 1.87623 37.9183C3.0861 39.1134 4.6947 39.7716 6.40575 39.7716C8.11681 39.7716 9.72541 39.1134 10.9353 37.9183C12.1451 36.7233 12.8115 35.1344 12.8115 33.4442C12.8115 32.892 12.7399 32.3506 12.6018 31.8302L21.8588 28.0315C22.2988 28.8542 22.8592 29.605 23.5328 30.2705C24.3995 31.1266 25.4092 31.7989 26.5336 32.2687C27.4317 32.6439 28.3727 32.8763 29.3405 32.9631V39.3315C28.2188 39.5083 27.1845 40.027 26.3658 40.8357C25.3393 41.8496 24.7739 43.1977 24.7739 44.6316C24.7739 46.0655 25.3391 47.4137 26.3658 48.4276C27.3922 49.4415 28.7571 50 30.2088 50C31.6604 50 33.0253 49.4417 34.0517 48.4276C35.0782 47.4135 35.6436 46.0655 35.6436 44.6316C35.6436 43.1977 35.0784 41.8496 34.0517 40.8357C33.233 40.027 32.1987 39.5083 31.077 39.3315V32.9631C32.0451 32.8763 32.986 32.6439 33.8839 32.2687C35.0083 31.7989 36.018 31.1266 36.8848 30.2705C37.0677 30.0897 37.2418 29.9024 37.4081 29.7094L43.9425 34.2347C43.4824 35.1159 43.2384 36.0987 43.2384 37.1186C43.2384 38.8021 43.9022 40.385 45.1073 41.5754C46.3124 42.7657 47.9149 43.4214 49.6192 43.4214C51.3235 43.4214 52.926 42.7657 54.1311 41.5754C55.3362 40.385 56 38.8021 56 37.1186C56 35.4352 55.3362 33.8523 54.1311 32.6619L54.1316 32.6615Z" fill="#CC4B65"/>
<path d="M70.3973 9.96H74.6453L80.5013 27H76.4693L75.1493 23.184H69.8453L68.5493 27H64.5173L70.3973 9.96ZM74.5013 20.472L72.5093 13.92L70.4693 20.472H74.5013ZM85.4625 17.256V27H81.5265V9.96H84.6465L92.5425 19.992V9.96H96.4785V27H93.2625L85.4625 17.256ZM103.381 9.96H107.629L113.485 27H109.453L108.133 23.184H102.829L101.533 27H97.5005L103.381 9.96ZM107.485 20.472L105.493 13.92L103.453 20.472H107.485ZM124.523 14.952C124.475 14.872 124.307 14.752 124.019 14.592C123.731 14.416 123.371 14.232 122.939 14.04C122.507 13.848 122.035 13.68 121.523 13.536C121.011 13.392 120.499 13.32 119.987 13.32C119.315 13.32 118.795 13.44 118.427 13.68C118.059 13.904 117.875 14.256 117.875 14.736C117.875 15.12 118.011 15.424 118.283 15.648C118.571 15.872 118.979 16.072 119.507 16.248C120.035 16.408 120.683 16.6 121.451 16.824C122.539 17.112 123.483 17.464 124.283 17.88C125.083 18.28 125.691 18.8 126.107 19.44C126.539 20.08 126.755 20.928 126.755 21.984C126.755 22.944 126.579 23.76 126.227 24.432C125.875 25.088 125.395 25.624 124.787 26.04C124.195 26.44 123.515 26.736 122.747 26.928C121.979 27.104 121.187 27.192 120.371 27.192C119.539 27.192 118.683 27.112 117.803 26.952C116.939 26.776 116.107 26.536 115.307 26.232C114.507 25.912 113.771 25.528 113.099 25.08L114.827 21.648C114.891 21.728 115.099 21.88 115.451 22.104C115.803 22.312 116.235 22.536 116.747 22.776C117.275 23 117.859 23.2 118.499 23.376C119.139 23.552 119.787 23.64 120.443 23.64C121.147 23.64 121.667 23.528 122.003 23.304C122.355 23.08 122.531 22.768 122.531 22.368C122.531 21.936 122.347 21.6 121.979 21.36C121.627 21.12 121.139 20.904 120.515 20.712C119.907 20.52 119.203 20.304 118.403 20.064C117.363 19.744 116.499 19.384 115.811 18.984C115.139 18.584 114.635 18.096 114.299 17.52C113.979 16.944 113.819 16.224 113.819 15.36C113.819 14.16 114.099 13.152 114.659 12.336C115.235 11.504 116.003 10.88 116.963 10.464C117.923 10.032 118.971 9.816 120.107 9.816C120.907 9.816 121.675 9.912 122.411 10.104C123.163 10.296 123.859 10.536 124.499 10.824C125.155 11.112 125.739 11.4 126.251 11.688L124.523 14.952ZM143.075 9.96V27H139.139V20.016H132.347V27H128.411V9.96H132.347V16.56H139.139V9.96H143.075ZM145.688 27V9.96H149.624V27H145.688ZM165.671 27V16.848L161.999 24.24H159.839L156.167 16.848V27H152.231V9.96H156.503L160.919 18.864L165.359 9.96H169.607V27H165.671ZM172.322 18.456V14.544H175.442V18.456H172.322ZM172.322 27V23.088H175.442V27H172.322ZM178.663 27V9.96H180.343V27H178.663ZM185.643 13.056V27H183.963V9.96H185.355L196.539 24.168V9.984H198.219V27H196.659L185.643 13.056ZM203.529 13.056V27H201.849V9.96H203.241L214.425 24.168V9.984H216.105V27H214.545L203.529 13.056ZM226.6 27.12C225.4 27.12 224.312 26.88 223.336 26.4C222.36 25.92 221.52 25.272 220.816 24.456C220.112 23.624 219.568 22.696 219.184 21.672C218.8 20.632 218.608 19.568 218.608 18.48C218.608 17.344 218.808 16.264 219.208 15.24C219.608 14.2 220.168 13.28 220.888 12.48C221.624 11.664 222.48 11.024 223.456 10.56C224.432 10.08 225.488 9.84 226.624 9.84C227.824 9.84 228.912 10.088 229.888 10.584C230.864 11.08 231.696 11.744 232.384 12.576C233.088 13.408 233.632 14.336 234.016 15.36C234.4 16.384 234.592 17.432 234.592 18.504C234.592 19.64 234.392 20.728 233.992 21.768C233.592 22.792 233.032 23.712 232.312 24.528C231.592 25.328 230.744 25.96 229.768 26.424C228.792 26.888 227.736 27.12 226.6 27.12ZM220.288 18.48C220.288 19.408 220.44 20.304 220.744 21.168C221.048 22.016 221.48 22.776 222.04 23.448C222.6 24.104 223.264 24.632 224.032 25.032C224.816 25.416 225.672 25.608 226.6 25.608C227.576 25.608 228.448 25.408 229.216 25.008C230 24.592 230.664 24.048 231.208 23.376C231.768 22.688 232.192 21.92 232.48 21.072C232.768 20.224 232.912 19.36 232.912 18.48C232.912 17.552 232.76 16.664 232.456 15.816C232.152 14.968 231.712 14.208 231.136 13.536C230.576 12.864 229.912 12.336 229.144 11.952C228.376 11.568 227.528 11.376 226.6 11.376C225.64 11.376 224.768 11.576 223.984 11.976C223.216 12.376 222.552 12.92 221.992 13.608C221.448 14.28 221.024 15.04 220.72 15.888C220.432 16.736 220.288 17.6 220.288 18.48ZM236.378 9.96L242.474 24.912L248.546 9.96H250.298L243.242 27H241.706L234.626 9.96H236.378ZM255.96 9.96H257.376L264.456 27H262.68L260.472 21.672H252.816L250.632 27H248.832L255.96 9.96ZM260.088 20.352L256.656 11.928L253.176 20.352H260.088ZM276.701 11.448H270.629V27H268.949V11.448H262.877V9.96H276.701V11.448ZM278.6 27V9.96H280.28V27H278.6ZM290.765 27.12C289.565 27.12 288.477 26.88 287.501 26.4C286.525 25.92 285.685 25.272 284.981 24.456C284.277 23.624 283.733 22.696 283.349 21.672C282.965 20.632 282.773 19.568 282.773 18.48C282.773 17.344 282.973 16.264 283.373 15.24C283.773 14.2 284.333 13.28 285.053 12.48C285.789 11.664 286.645 11.024 287.621 10.56C288.597 10.08 289.653 9.84 290.789 9.84C291.989 9.84 293.077 10.088 294.053 10.584C295.029 11.08 295.861 11.744 296.549 12.576C297.253 13.408 297.797 14.336 298.181 15.36C298.565 16.384 298.757 17.432 298.757 18.504C298.757 19.64 298.557 20.728 298.157 21.768C297.757 22.792 297.197 23.712 296.477 24.528C295.757 25.328 294.909 25.96 293.933 26.424C292.957 26.888 291.901 27.12 290.765 27.12ZM284.453 18.48C284.453 19.408 284.605 20.304 284.909 21.168C285.213 22.016 285.645 22.776 286.205 23.448C286.765 24.104 287.429 24.632 288.197 25.032C288.981 25.416 289.837 25.608 290.765 25.608C291.741 25.608 292.613 25.408 293.381 25.008C294.165 24.592 294.829 24.048 295.373 23.376C295.933 22.688 296.357 21.92 296.645 21.072C296.933 20.224 297.077 19.36 297.077 18.48C297.077 17.552 296.925 16.664 296.621 15.816C296.317 14.968 295.877 14.208 295.301 13.536C294.741 12.864 294.077 12.336 293.309 11.952C292.541 11.568 291.693 11.376 290.765 11.376C289.805 11.376 288.933 11.576 288.149 11.976C287.381 12.376 286.717 12.92 286.157 13.608C285.613 14.28 285.189 15.04 284.885 15.888C284.597 16.736 284.453 17.6 284.453 18.48ZM302.951 13.056V27H301.271V9.96H302.663L313.847 24.168V9.984H315.527V27H313.967L302.951 13.056ZM338.062 9.96V27H336.406V19.032H326.302V27H324.622V9.96H326.302V17.544H336.406V9.96H338.062ZM348.623 27.12C347.279 27.12 346.143 26.88 345.215 26.4C344.287 25.92 343.551 25.28 343.007 24.48C342.463 23.664 342.063 22.744 341.807 21.72C341.567 20.696 341.447 19.64 341.447 18.552V9.96H343.103V18.552C343.103 19.432 343.191 20.296 343.367 21.144C343.559 21.992 343.863 22.752 344.279 23.424C344.695 24.096 345.255 24.632 345.959 25.032C346.663 25.416 347.543 25.608 348.599 25.608C349.687 25.608 350.583 25.408 351.287 25.008C352.007 24.592 352.567 24.048 352.967 23.376C353.383 22.704 353.679 21.952 353.855 21.12C354.031 20.272 354.119 19.416 354.119 18.552V9.96H355.799V18.552C355.799 19.688 355.671 20.776 355.415 21.816C355.159 22.856 354.743 23.768 354.167 24.552C353.607 25.336 352.871 25.96 351.959 26.424C351.047 26.888 349.935 27.12 348.623 27.12ZM371.968 22.608C371.968 23.456 371.752 24.216 371.32 24.888C370.888 25.544 370.304 26.064 369.568 26.448C368.848 26.816 368.056 27 367.192 27H359.152V9.96H367.36C368.16 9.96 368.848 10.176 369.424 10.608C370.016 11.024 370.464 11.568 370.768 12.24C371.088 12.896 371.248 13.584 371.248 14.304C371.248 15.152 371.032 15.936 370.6 16.656C370.168 17.376 369.568 17.912 368.8 18.264C369.776 18.552 370.544 19.088 371.104 19.872C371.68 20.656 371.968 21.568 371.968 22.608ZM370.288 22.32C370.288 21.744 370.16 21.216 369.904 20.736C369.648 20.24 369.296 19.84 368.848 19.536C368.416 19.232 367.92 19.08 367.36 19.08H360.832V25.536H367.192C367.768 25.536 368.288 25.384 368.752 25.08C369.216 24.776 369.584 24.384 369.856 23.904C370.144 23.408 370.288 22.88 370.288 22.32ZM360.832 11.424V17.712H366.688C367.248 17.712 367.744 17.568 368.176 17.28C368.608 16.976 368.952 16.584 369.208 16.104C369.464 15.624 369.592 15.112 369.592 14.568C369.592 13.992 369.472 13.472 369.232 13.008C368.992 12.528 368.664 12.144 368.248 11.856C367.832 11.568 367.36 11.424 366.832 11.424H360.832Z" fill="#404040"/>
<path d="M150.974 38.828V34.2H152.69V38.828H150.974ZM150.012 35.617L150.194 34.2H151.936V35.617H150.012ZM158.164 42.078C157.341 42.078 156.652 41.909 156.097 41.571C155.551 41.233 155.139 40.7303 154.862 40.063C154.585 39.387 154.446 38.5333 154.446 37.502V34.2H156.149V37.489C156.149 38.243 156.218 38.8583 156.357 39.335C156.504 39.803 156.721 40.1497 157.007 40.375C157.302 40.6003 157.679 40.713 158.138 40.713H158.19C158.675 40.7043 159.065 40.5917 159.36 40.375C159.655 40.1583 159.867 39.816 159.997 39.348C160.136 38.8713 160.205 38.256 160.205 37.502V34.2H161.921V37.502C161.921 38.5333 161.787 39.387 161.518 40.063C161.249 40.739 160.842 41.2417 160.296 41.571C159.759 41.9003 159.07 42.0693 158.229 42.078H158.164ZM155.46 38.997L155.356 37.892C155.876 37.918 156.283 37.84 156.578 37.658C156.881 37.476 157.094 37.19 157.215 36.8C157.345 36.41 157.41 35.916 157.41 35.318V34.2H158.97V35.227C158.97 35.8423 158.905 36.3883 158.775 36.865C158.654 37.3417 158.454 37.7447 158.177 38.074C157.908 38.3947 157.549 38.633 157.098 38.789C156.656 38.945 156.11 39.0143 155.46 38.997ZM164.315 42V34.2H166.031V42H164.315ZM163.353 35.617L163.535 34.2H165.446V35.617H163.353ZM169.307 42V36.488C169.307 36.2713 169.281 36.1023 169.229 35.981C169.186 35.851 169.108 35.76 168.995 35.708C168.891 35.6473 168.731 35.617 168.514 35.617H167.877L168.059 34.2H168.969C169.697 34.2 170.221 34.382 170.542 34.746C170.863 35.1013 171.023 35.6257 171.023 36.319V42H169.307ZM167.669 42V40.583H170.126V42H167.669ZM177.196 42C176.884 41.3413 176.577 40.7217 176.273 40.141C175.979 39.5603 175.684 39.0013 175.389 38.464C175.095 37.9267 174.791 37.411 174.479 36.917C174.332 36.683 174.172 36.436 173.998 36.176C173.825 35.9073 173.656 35.6473 173.491 35.396C173.327 35.1447 173.175 34.915 173.036 34.707C172.898 34.499 172.781 34.33 172.685 34.2H174.635C174.765 34.3993 174.904 34.629 175.051 34.889C175.207 35.1403 175.368 35.4003 175.532 35.669C175.697 35.9377 175.857 36.202 176.013 36.462C176.325 36.9993 176.65 37.5713 176.988 38.178C177.326 38.7847 177.673 39.413 178.028 40.063C178.384 40.7043 178.726 41.35 179.055 42H177.196ZM172.49 42L172.776 39.465C172.828 38.9623 172.937 38.5203 173.101 38.139C173.275 37.7577 173.513 37.437 173.816 37.177C174.128 36.9083 174.514 36.696 174.973 36.54L175.376 37.502C175.168 37.5887 174.999 37.7273 174.869 37.918C174.739 38.1 174.635 38.3297 174.557 38.607C174.488 38.8757 174.432 39.192 174.388 39.556L174.154 42H172.49ZM176.689 38.789L176.26 37.84C176.468 37.762 176.642 37.632 176.78 37.45C176.919 37.2593 177.027 37.0297 177.105 36.761C177.183 36.4923 177.235 36.2063 177.261 35.903L177.391 34.2H179.055L178.899 35.994C178.856 36.4533 178.748 36.8737 178.574 37.255C178.401 37.6363 178.154 37.957 177.833 38.217C177.521 38.477 177.14 38.6677 176.689 38.789ZM184.758 42V36.891C184.758 36.4663 184.68 36.15 184.524 35.942C184.368 35.7253 184.091 35.617 183.692 35.617H180.468L180.663 34.2H183.783C184.719 34.2 185.399 34.4253 185.824 34.876C186.257 35.318 186.474 35.9767 186.474 36.852V42H184.758ZM180.611 42V37.515L182.327 37.411V42H180.611ZM192.519 44.431V34.2H194.235V44.327L192.519 44.431ZM191.57 35.617L191.752 34.2H193.65V35.617H191.57ZM196.873 42V34.2H198.589V42H196.873ZM195.911 35.617L196.093 34.2H198.004V35.617H195.911ZM204.686 42V36.891C204.686 36.4663 204.608 36.15 204.452 35.942C204.296 35.7253 204.019 35.617 203.62 35.617H200.396L200.591 34.2H203.711C204.647 34.2 205.328 34.4253 205.752 34.876C206.186 35.318 206.402 35.9767 206.402 36.852V42H204.686ZM200.539 42V37.515L202.255 37.411V42H200.539ZM212.417 42V36.891C212.417 36.4663 212.339 36.15 212.183 35.942C212.027 35.7253 211.75 35.617 211.351 35.617H208.127L208.322 34.2H211.442C212.378 34.2 213.058 34.4253 213.483 34.876C213.916 35.318 214.133 35.9767 214.133 36.852V42H212.417ZM208.27 42V37.515L209.986 37.411V42H208.27ZM222.973 34.2C223.909 34.2 224.606 34.4253 225.066 34.876C225.525 35.318 225.755 35.9767 225.755 36.852V42H224.039V36.891C224.039 36.4663 223.943 36.15 223.753 35.942C223.571 35.7253 223.276 35.617 222.869 35.617H221.634C221.59 35.6863 221.543 35.812 221.491 35.994C221.447 36.176 221.426 36.4707 221.426 36.878V42H219.71V37.385C219.71 37.021 219.744 36.696 219.814 36.41C219.883 36.1153 220.009 35.864 220.191 35.656L220.035 35.565V34.2H222.973ZM219.255 35.617L219.437 34.2H222.167V35.617H219.255ZM228.239 42V34.2H229.955V42H228.239ZM227.277 35.617L227.459 34.2H229.37V35.617H227.277ZM236.624 42V36.891C236.624 36.4663 236.546 36.15 236.39 35.942C236.234 35.7253 235.952 35.617 235.545 35.617H232.62V34.2H235.649C236.585 34.2 237.265 34.4253 237.69 34.876C238.123 35.318 238.34 35.9767 238.34 36.852V42H236.624ZM231.463 42L231.658 40.583H232.035C232.217 40.583 232.347 40.5483 232.425 40.479C232.503 40.4097 232.555 40.3057 232.581 40.167C232.607 40.0197 232.62 39.842 232.62 39.634V34.551H234.336V39.621C234.336 40.3923 234.184 40.9817 233.881 41.389C233.578 41.7963 233.075 42 232.373 42H231.463ZM231.619 35.617L231.814 34.2H233.673V35.617H231.619ZM240.59 38.828V34.2H242.306V38.828H240.59ZM239.628 35.617L239.81 34.2H241.552V35.617H239.628ZM244.192 42V40.583H246.415C246.857 40.583 247.221 40.479 247.507 40.271C247.793 40.063 248.005 39.7683 248.144 39.387C248.291 38.997 248.365 38.5463 248.365 38.035C248.365 37.2377 248.235 36.6137 247.975 36.163C247.724 35.7123 247.334 35.487 246.805 35.487C246.398 35.487 246.086 35.6127 245.869 35.864C245.661 36.1067 245.557 36.4273 245.557 36.826C245.557 37.1033 245.618 37.346 245.739 37.554C245.86 37.7533 246.034 37.8877 246.259 37.957C246.328 37.983 246.393 38.0047 246.454 38.022C246.523 38.0393 246.588 38.048 246.649 38.048L246.519 39.296C246.424 39.3047 246.307 39.3047 246.168 39.296C246.029 39.2873 245.865 39.2613 245.674 39.218C245.119 39.1053 244.686 38.8323 244.374 38.399C244.062 37.9657 243.906 37.424 243.906 36.774C243.906 36.228 244.019 35.7557 244.244 35.357C244.469 34.9497 244.799 34.6333 245.232 34.408C245.665 34.1827 246.19 34.07 246.805 34.07C247.862 34.07 248.677 34.421 249.249 35.123C249.83 35.825 250.12 36.7957 250.12 38.035C250.12 38.841 249.973 39.543 249.678 40.141C249.383 40.739 248.946 41.1983 248.365 41.519C247.793 41.8397 247.091 42 246.259 42H244.192ZM260.005 42V36.891C260.005 36.4663 259.927 36.15 259.771 35.942C259.615 35.7253 259.334 35.617 258.926 35.617H256.001V34.2H259.03C259.966 34.2 260.647 34.4253 261.071 34.876C261.505 35.318 261.721 35.9767 261.721 36.852V42H260.005ZM254.844 42L255.039 40.583H255.416C255.598 40.583 255.728 40.5483 255.806 40.479C255.884 40.4097 255.936 40.3057 255.962 40.167C255.988 40.0197 256.001 39.842 256.001 39.634V34.551H257.717V39.621C257.717 40.3923 257.566 40.9817 257.262 41.389C256.959 41.7963 256.456 42 255.754 42H254.844ZM255 35.617L255.195 34.2H257.054V35.617H255ZM264.213 42V34.2H265.929V42H264.213ZM263.251 35.617L263.433 34.2H265.344V35.617H263.251ZM267.736 42L268.438 37.203L267.554 34.2H269.27L269.621 35.838H269.673C269.751 35.5693 269.855 35.3267 269.985 35.11C270.115 34.8847 270.271 34.6983 270.453 34.551C270.635 34.395 270.843 34.278 271.077 34.2C271.311 34.122 271.579 34.083 271.883 34.083C272.437 34.083 272.91 34.226 273.3 34.512C273.698 34.798 274.002 35.2227 274.21 35.786C274.426 36.3407 274.535 37.0297 274.535 37.853V38.022C274.535 38.8627 274.413 39.582 274.171 40.18C273.928 40.7693 273.573 41.22 273.105 41.532C272.645 41.844 272.073 42 271.389 42H270.479L270.648 40.583H271.311C271.796 40.583 272.169 40.3577 272.429 39.907C272.689 39.4563 272.819 38.828 272.819 38.022V37.853C272.819 37.333 272.762 36.8997 272.65 36.553C272.546 36.2063 272.394 35.9463 272.195 35.773C272.004 35.5997 271.77 35.513 271.493 35.513C271.285 35.513 271.098 35.5607 270.934 35.656C270.778 35.7427 270.639 35.877 270.518 36.059C270.405 36.2323 270.31 36.4447 270.232 36.696C270.154 36.9387 270.093 37.2203 270.05 37.541L269.478 42H267.736ZM277.328 34.2H281.111L280.916 35.227L279.018 42H277.289L279.148 35.617H275.612V32.302L277.328 32.12V34.2ZM283.228 42V34.2H284.944V42H283.228ZM282.266 35.617L282.448 34.2H284.359V35.617H282.266ZM286.452 42.481L286.439 41.064L289.195 40.466C289.472 40.4053 289.706 40.3057 289.897 40.167C290.096 40.0283 290.256 39.8333 290.378 39.582C290.499 39.3307 290.594 38.997 290.664 38.581C290.742 38.165 290.798 37.6493 290.833 37.034L291.041 34.2H292.757L292.575 36.774C292.531 37.4067 292.466 37.9743 292.38 38.477C292.293 38.971 292.167 39.4087 292.003 39.79C291.847 40.1713 291.643 40.4963 291.392 40.765C291.149 41.0337 290.85 41.259 290.495 41.441C290.148 41.6143 289.736 41.753 289.26 41.857L286.452 42.481ZM288.064 41.337L286.712 34.317L288.389 34.109L289.312 39.14C289.355 39.3567 289.364 39.595 289.338 39.855C289.32 40.115 289.26 40.3707 289.156 40.622C289.06 40.8733 288.917 41.1117 288.727 41.337H288.064ZM297.062 42V36.891C297.062 36.4663 296.984 36.15 296.828 35.942C296.672 35.7253 296.394 35.617 295.996 35.617H294.15L294.332 34.2H296.087C297.031 34.2 297.716 34.4253 298.141 34.876C298.565 35.318 298.778 35.9767 298.778 36.852V40.726C298.726 40.9427 298.626 41.1593 298.479 41.376C298.34 41.5927 298.193 41.8007 298.037 42H297.062ZM293.916 42V40.583H299.623L299.441 42H293.916ZM308.226 42.078C307.403 42.078 306.714 41.909 306.159 41.571C305.613 41.233 305.202 40.7303 304.924 40.063C304.647 39.387 304.508 38.5333 304.508 37.502V34.2H306.211V37.489C306.211 38.243 306.281 38.8583 306.419 39.335C306.567 39.803 306.783 40.1497 307.069 40.375C307.364 40.6003 307.741 40.713 308.2 40.713H308.252C308.738 40.7043 309.128 40.5917 309.422 40.375C309.717 40.1583 309.929 39.816 310.059 39.348C310.198 38.8713 310.267 38.256 310.267 37.502V34.2H311.983V37.502C311.983 38.5333 311.849 39.387 311.58 40.063C311.312 40.739 310.904 41.2417 310.358 41.571C309.821 41.9003 309.132 42.0693 308.291 42.078H308.226ZM305.522 38.997L305.418 37.892C305.938 37.918 306.346 37.84 306.64 37.658C306.944 37.476 307.156 37.19 307.277 36.8C307.407 36.41 307.472 35.916 307.472 35.318V34.2H309.032V35.227C309.032 35.8423 308.967 36.3883 308.837 36.865C308.716 37.3417 308.517 37.7447 308.239 38.074C307.971 38.3947 307.611 38.633 307.16 38.789C306.718 38.945 306.172 39.0143 305.522 38.997ZM313.325 35.617V34.2H318.85L318.668 35.617H313.325ZM316.042 42V36.787C316.042 36.6743 316.055 36.5443 316.081 36.397C316.115 36.241 316.172 36.0937 316.25 35.955C316.336 35.8077 316.449 35.695 316.588 35.617H317.953C317.857 35.6863 317.801 35.7903 317.784 35.929C317.766 36.0677 317.758 36.2237 317.758 36.397V42H316.042ZM323.671 34.2C324.607 34.2 325.305 34.4253 325.764 34.876C326.223 35.318 326.453 35.9767 326.453 36.852V42H324.737V36.891C324.737 36.4663 324.642 36.15 324.451 35.942C324.269 35.7253 323.974 35.617 323.567 35.617H322.332C322.289 35.6863 322.241 35.812 322.189 35.994C322.146 36.176 322.124 36.4707 322.124 36.878V42H320.408V37.385C320.408 37.021 320.443 36.696 320.512 36.41C320.581 36.1153 320.707 35.864 320.889 35.656L320.733 35.565V34.2H323.671ZM319.953 35.617L320.135 34.2H322.865V35.617H319.953ZM331.862 42.078C331.039 42.078 330.35 41.909 329.795 41.571C329.249 41.233 328.838 40.7303 328.56 40.063C328.283 39.387 328.144 38.5333 328.144 37.502V34.2H329.847V37.489C329.847 38.243 329.917 38.8583 330.055 39.335C330.203 39.803 330.419 40.1497 330.705 40.375C331 40.6003 331.377 40.713 331.836 40.713H331.888C332.374 40.7043 332.764 40.5917 333.058 40.375C333.353 40.1583 333.565 39.816 333.695 39.348C333.834 38.8713 333.903 38.256 333.903 37.502V34.2H335.619V37.502C335.619 38.5333 335.485 39.387 335.216 40.063C334.948 40.739 334.54 41.2417 333.994 41.571C333.457 41.9003 332.768 42.0693 331.927 42.078H331.862ZM329.158 38.997L329.054 37.892C329.574 37.918 329.982 37.84 330.276 37.658C330.58 37.476 330.792 37.19 330.913 36.8C331.043 36.41 331.108 35.916 331.108 35.318V34.2H332.668V35.227C332.668 35.8423 332.603 36.3883 332.473 36.865C332.352 37.3417 332.153 37.7447 331.875 38.074C331.607 38.3947 331.247 38.633 330.796 38.789C330.354 38.945 329.808 39.0143 329.158 38.997ZM345.103 42V36.891C345.103 36.4663 345.025 36.15 344.869 35.942C344.713 35.7253 344.436 35.617 344.037 35.617H340.813L341.008 34.2H344.128C345.064 34.2 345.744 34.4253 346.169 34.876C346.602 35.318 346.819 35.9767 346.819 36.852V42H345.103ZM340.956 42V37.515L342.672 37.411V42H340.956ZM348.544 42L349.246 37.203L348.362 34.2H350.078L350.429 35.838H350.481C350.559 35.5693 350.663 35.3267 350.793 35.11C350.923 34.8847 351.079 34.6983 351.261 34.551C351.443 34.395 351.651 34.278 351.885 34.2C352.119 34.122 352.387 34.083 352.691 34.083C353.245 34.083 353.718 34.226 354.108 34.512C354.506 34.798 354.81 35.2227 355.018 35.786C355.234 36.3407 355.343 37.0297 355.343 37.853V38.022C355.343 38.8627 355.221 39.582 354.979 40.18C354.736 40.7693 354.381 41.22 353.913 41.532C353.453 41.844 352.881 42 352.197 42H351.287L351.456 40.583H352.119C352.604 40.583 352.977 40.3577 353.237 39.907C353.497 39.4563 353.627 38.828 353.627 38.022V37.853C353.627 37.333 353.57 36.8997 353.458 36.553C353.354 36.2063 353.202 35.9463 353.003 35.773C352.812 35.5997 352.578 35.513 352.301 35.513C352.093 35.513 351.906 35.5607 351.742 35.656C351.586 35.7427 351.447 35.877 351.326 36.059C351.213 36.2323 351.118 36.4447 351.04 36.696C350.962 36.9387 350.901 37.2203 350.858 37.541L350.286 42H348.544ZM361.715 34.2H365.498L365.303 35.227L363.405 42H361.676L363.535 35.617H359.999V32.302L361.715 32.12V34.2ZM366.614 42V40.583H368.382C368.893 40.583 369.266 40.3837 369.5 39.985C369.743 39.5863 369.864 38.9797 369.864 38.165C369.864 37.2983 369.743 36.657 369.5 36.241C369.266 35.825 368.893 35.617 368.382 35.617H366.614L366.796 34.2H368.382C369.474 34.2 370.284 34.5293 370.813 35.188C371.35 35.838 371.619 36.8303 371.619 38.165C371.619 39.4563 371.35 40.4183 370.813 41.051C370.284 41.6837 369.474 42 368.382 42H366.614Z" fill="#CC4B65"/>
</svg>
