<svg width="17" height="13" viewBox="0 0 17 13" fill="none" xmlns="http://www.w3.org/2000/svg">
<path d="M4.25 0H9.35V2.4375H11.05V0.609375V0H12.325V0.609375V2.4375H14.025V0.609375V0H15.3V0.609375V2.4375H17V4.875V13H9.35H7.65H4.25H0V4.875H4.25V0ZM1.7 8.9375V10.5625H3.4V8.9375H1.7ZM11.9 8.9375H10.2V10.5625H11.9V8.9375ZM13.6 10.5625H15.3V8.9375H13.6V10.5625ZM3.4 6.5H1.7V8.125H3.4V6.5ZM15.3 4.0625H13.6V5.6875H15.3V4.0625ZM10.2 6.5V8.125H11.9V6.5H10.2ZM10.2 4.0625V5.6875H11.9V4.0625H10.2ZM15.3 8.125V6.5H13.6V8.125H15.3ZM5.95 6.5V8.125H7.65V6.5H5.95ZM7.65 1.625H5.95V3.25H7.65V1.625ZM5.95 4.0625V5.6875H7.65V4.0625H5.95Z" fill="white"/>
</svg>
