<svg width="16" height="16" viewBox="0 0 16 16" fill="green" xmlns="http://www.w3.org/2000/svg">
<path d="M8 16C10.1217 16 12.1566 15.1571 13.6569 13.6569C15.1571 12.1566 16 10.1217 16 8C16 5.87827 15.1571 3.84344 13.6569 2.34315C12.1566 0.842855 10.1217 0 8 0C5.87827 0 3.84344 0.842855 2.34315 2.34315C0.842855 3.84344 0 5.87827 0 8C0 10.1217 0.842855 12.1566 2.34315 13.6569C3.84344 15.1571 5.87827 16 8 16ZM11.0594 6L10.5281 6.53125L9.05937 8L10.5281 9.46875L11.0594 10L10 11.0594L9.46875 10.5281L8 9.05937L6.53125 10.5281L6 11.0594L4.94063 10L5.47188 9.46875L6.94063 8L5.47188 6.53125L4.94063 6L6 4.94063L6.53125 5.47188L8 6.94063L9.46875 5.47188L10 4.94063L11.0594 6Z" />
</svg>
