<svg width="14" height="10" viewBox="0 0 14 10" fill="none" xmlns="http://www.w3.org/2000/svg">
<path d="M14 3.21429L7 5.71429L2.79562 4.21205L7.12906 2.47545L7.455 2.34375L7.19688 1.6808L6.87094 1.8125L1.97094 3.77679L1.78062 3.85268L1.75 3.83929V7.02679C2.08687 7.58705 2.35812 8.55357 1.75 10L0 9.64286C0 9.64286 0.710938 8.60491 1.05 7.47991V3.58929L0 3.21429V2.5L7 0L14 2.5V3.21429ZM3.14125 5.09375L6.77031 6.39062L7.00219 6.47321L7.23406 6.39062L10.8631 5.09375L11.2 8.39286C11.2 9.1808 9.31875 10 7 10C4.68125 10 2.8 9.1808 2.8 8.39286L3.14125 5.09375Z" fill="white"/>
</svg>
