<svg width="84" height="22" viewBox="0 0 84 22" fill="none" xmlns="http://www.w3.org/2000/svg">
<g clip-path="url(#clip0_203_171)">
<path d="M35.9243 9.42871H29.8354C29.4992 9.42871 29.2266 9.71013 29.2266 10.0573C29.2266 10.4044 29.4992 10.6859 29.8354 10.6859H35.9243C36.2605 10.6859 36.5331 10.4044 36.5331 10.0573C36.5331 9.71013 36.2605 9.42871 35.9243 9.42871Z" fill="#CC0000"/>
<path d="M35.9242 7.54297H20.0933C19.757 7.54297 19.4844 7.82439 19.4844 8.17154C19.4844 8.51869 19.757 8.80011 20.0933 8.80011H35.9242C36.2604 8.80011 36.533 8.51869 36.533 8.17154C36.533 7.82439 36.2604 7.54297 35.9242 7.54297Z" fill="#CC0000"/>
<path d="M37.7508 16.9714H20.0933C19.757 16.9714 19.4844 17.2529 19.4844 17.6C19.4844 17.9472 19.757 18.2286 20.0933 18.2286H37.7508C38.0871 18.2286 38.3597 17.9472 38.3597 17.6C38.3597 17.2529 38.0871 16.9714 37.7508 16.9714Z" fill="#CC0000"/>
<path d="M37.7508 18.8572H20.0933C19.757 18.8572 19.4844 19.1386 19.4844 19.4857C19.4844 19.8329 19.757 20.1143 20.0933 20.1143H37.7508C38.0871 20.1143 38.3597 19.8329 38.3597 19.4857C38.3597 19.1386 38.0871 18.8572 37.7508 18.8572Z" fill="#CC0000"/>
<path d="M37.7508 20.7429H20.0933C19.757 20.7429 19.4844 21.0243 19.4844 21.3715C19.4844 21.7186 19.757 22.0001 20.0933 22.0001H37.7508C38.0871 22.0001 38.3597 21.7186 38.3597 21.3715C38.3597 21.0243 38.0871 20.7429 37.7508 20.7429Z" fill="#CC0000"/>
<path d="M35.9242 5.65723H20.0933C19.757 5.65723 19.4844 5.93865 19.4844 6.2858C19.4844 6.63295 19.757 6.91437 20.0933 6.91437H35.9242C36.2604 6.91437 36.533 6.63295 36.533 6.2858C36.533 5.93865 36.2604 5.65723 35.9242 5.65723Z" fill="#CC0000"/>
<path d="M35.9242 3.77148H20.0933C19.757 3.77148 19.4844 4.05291 19.4844 4.40006C19.4844 4.74721 19.757 5.02863 20.0933 5.02863H35.9242C36.2604 5.02863 36.533 4.74721 36.533 4.40006C36.533 4.05291 36.2604 3.77148 35.9242 3.77148Z" fill="#CC0000"/>
<path d="M35.9243 11.3145H29.8354C29.4992 11.3145 29.2266 11.5959 29.2266 11.943C29.2266 12.2902 29.4992 12.5716 29.8354 12.5716H35.9243C36.2605 12.5716 36.5331 12.2902 36.5331 11.943C36.5331 11.5959 36.2605 11.3145 35.9243 11.3145Z" fill="#CC0000"/>
<path d="M35.9243 13.2H29.8354C29.4992 13.2 29.2266 13.4814 29.2266 13.8285C29.2266 14.1757 29.4992 14.4571 29.8354 14.4571H35.9243C36.2605 14.4571 36.5331 14.1757 36.5331 13.8285C36.5331 13.4814 36.2605 13.2 35.9243 13.2Z" fill="#CC0000"/>
<path d="M35.9243 15.0857H29.8354C29.4992 15.0857 29.2266 15.3671 29.2266 15.7143C29.2266 16.0614 29.4992 16.3428 29.8354 16.3428H35.9243C36.2605 16.3428 36.5331 16.0614 36.5331 15.7143C36.5331 15.3671 36.2605 15.0857 35.9243 15.0857Z" fill="#CC0000"/>
<path d="M46.2758 11.3145H40.187C39.8507 11.3145 39.5781 11.5959 39.5781 11.943C39.5781 12.2902 39.8507 12.5716 40.187 12.5716H46.2758C46.6121 12.5716 46.8847 12.2902 46.8847 11.943C46.8847 11.5959 46.6121 11.3145 46.2758 11.3145Z" fill="#CC0000"/>
<path d="M46.2758 13.2H40.187C39.8507 13.2 39.5781 13.4814 39.5781 13.8285C39.5781 14.1757 39.8507 14.4571 40.187 14.4571H46.2758C46.6121 14.4571 46.8847 14.1757 46.8847 13.8285C46.8847 13.4814 46.6121 13.2 46.2758 13.2Z" fill="#CC0000"/>
<path d="M46.2758 15.0857H40.187C39.8507 15.0857 39.5781 15.3671 39.5781 15.7143C39.5781 16.0614 39.8507 16.3428 40.187 16.3428H46.2758C46.6121 16.3428 46.8847 16.0614 46.8847 15.7143C46.8847 15.3671 46.6121 15.0857 46.2758 15.0857Z" fill="#CC0000"/>
<path d="M46.2758 16.9714H40.187C39.8507 16.9714 39.5781 17.2529 39.5781 17.6C39.5781 17.9472 39.8507 18.2286 40.187 18.2286H46.2758C46.6121 18.2286 46.8847 17.9472 46.8847 17.6C46.8847 17.2529 46.6121 16.9714 46.2758 16.9714Z" fill="#CC0000"/>
<path d="M46.2758 18.8572H40.187C39.8507 18.8572 39.5781 19.1386 39.5781 19.4857C39.5781 19.8329 39.8507 20.1143 40.187 20.1143H46.2758C46.6121 20.1143 46.8847 19.8329 46.8847 19.4857C46.8847 19.1386 46.6121 18.8572 46.2758 18.8572Z" fill="#CC0000"/>
<path d="M46.2758 20.7429H40.187C39.8507 20.7429 39.5781 21.0243 39.5781 21.3715C39.5781 21.7186 39.8507 22.0001 40.187 22.0001H46.2758C46.6121 22.0001 46.8847 21.7186 46.8847 21.3715C46.8847 21.0243 46.6121 20.7429 46.2758 20.7429Z" fill="#CC0000"/>
<path d="M46.2758 7.54297H40.187C39.8507 7.54297 39.5781 7.82439 39.5781 8.17154C39.5781 8.51869 39.8507 8.80011 40.187 8.80011H46.2758C46.6121 8.80011 46.8847 8.51869 46.8847 8.17154C46.8847 7.82439 46.6121 7.54297 46.2758 7.54297Z" fill="#CC0000"/>
<path d="M46.2758 5.65723H40.187C39.8507 5.65723 39.5781 5.93865 39.5781 6.2858C39.5781 6.63295 39.8507 6.91437 40.187 6.91437H46.2758C46.6121 6.91437 46.8847 6.63295 46.8847 6.2858C46.8847 5.93865 46.6121 5.65723 46.2758 5.65723Z" fill="#CC0000"/>
<path d="M46.2758 3.77148H40.187C39.8507 3.77148 39.5781 4.05291 39.5781 4.40006C39.5781 4.74721 39.8507 5.02863 40.187 5.02863H46.2758C46.6121 5.02863 46.8847 4.74721 46.8847 4.40006C46.8847 4.05291 46.6121 3.77148 46.2758 3.77148Z" fill="#CC0000"/>
<path d="M46.2758 9.42871H40.187C39.8507 9.42871 39.5781 9.71013 39.5781 10.0573C39.5781 10.4044 39.8507 10.6859 40.187 10.6859H46.2758C46.6121 10.6859 46.8847 10.4044 46.8847 10.0573C46.8847 9.71013 46.6121 9.42871 46.2758 9.42871Z" fill="#CC0000"/>
<path d="M64.5413 7.54297H48.7104C48.3742 7.54297 48.1016 7.82439 48.1016 8.17154C48.1016 8.51869 48.3742 8.80011 48.7104 8.80011H64.5413C64.8776 8.80011 65.1502 8.51869 65.1502 8.17154C65.1502 7.82439 64.8776 7.54297 64.5413 7.54297Z" fill="#CC0000"/>
<path d="M64.5414 9.42847H58.4526C58.1164 9.42847 57.8438 9.70989 57.8438 10.057C57.8438 10.4042 58.1164 10.6856 58.4526 10.6856H64.5414C64.8777 10.6856 65.1503 10.4042 65.1503 10.057C65.1503 9.70989 64.8777 9.42847 64.5414 9.42847Z" fill="#CC0000"/>
<path d="M64.5414 11.3142H58.4526C58.1164 11.3142 57.8438 11.5956 57.8438 11.9428C57.8438 12.2899 58.1164 12.5714 58.4526 12.5714H64.5414C64.8777 12.5714 65.1503 12.2899 65.1503 11.9428C65.1503 11.5956 64.8777 11.3142 64.5414 11.3142Z" fill="#CC0000"/>
<path d="M64.5414 13.2H58.4526C58.1164 13.2 57.8438 13.4814 57.8438 13.8285C57.8438 14.1757 58.1164 14.4571 58.4526 14.4571H64.5414C64.8777 14.4571 65.1503 14.1757 65.1503 13.8285C65.1503 13.4814 64.8777 13.2 64.5414 13.2Z" fill="#CC0000"/>
<path d="M64.5414 15.0857H58.4526C58.1164 15.0857 57.8438 15.3671 57.8438 15.7143C57.8438 16.0614 58.1164 16.3428 58.4526 16.3428H64.5414C64.8777 16.3428 65.1503 16.0614 65.1503 15.7143C65.1503 15.3671 64.8777 15.0857 64.5414 15.0857Z" fill="#CC0000"/>
<path d="M63.933 16.9714H51.7554C51.4191 16.9714 51.1465 17.2529 51.1465 17.6C51.1465 17.9472 51.4191 18.2286 51.7554 18.2286H63.933C64.2693 18.2286 64.5419 17.9472 64.5419 17.6C64.5419 17.2529 64.2693 16.9714 63.933 16.9714Z" fill="#CC0000"/>
<path d="M62.1063 18.8572H51.7554C51.4191 18.8572 51.1465 19.1386 51.1465 19.4857C51.1465 19.8329 51.4191 20.1143 51.7554 20.1143H62.1063C62.4426 20.1143 62.7152 19.8329 62.7152 19.4857C62.7152 19.1386 62.4426 18.8572 62.1063 18.8572Z" fill="#CC0000"/>
<path d="M59.6708 20.7429H51.7554C51.4191 20.7429 51.1465 21.0243 51.1465 21.3715C51.1465 21.7186 51.4191 22.0001 51.7554 22.0001H59.6708C60.0071 22.0001 60.2797 21.7186 60.2797 21.3715C60.2797 21.0243 60.0071 20.7429 59.6708 20.7429Z" fill="#CC0000"/>
<path d="M64.5413 5.65723H48.7104C48.3742 5.65723 48.1016 5.93865 48.1016 6.2858C48.1016 6.63295 48.3742 6.91437 48.7104 6.91437H64.5413C64.8776 6.91437 65.1502 6.63295 65.1502 6.2858C65.1502 5.93865 64.8776 5.65723 64.5413 5.65723Z" fill="#CC0000"/>
<path d="M64.5413 3.77148H48.7104C48.3742 3.77148 48.1016 4.05291 48.1016 4.40006C48.1016 4.74721 48.3742 5.02863 48.7104 5.02863H64.5413C64.8776 5.02863 65.1502 4.74721 65.1502 4.40006C65.1502 4.05291 64.8776 3.77148 64.5413 3.77148Z" fill="#CC0000"/>
<path d="M55.4081 1.88574H48.7104C48.3742 1.88574 48.1016 2.16716 48.1016 2.51431C48.1016 2.86146 48.3742 3.14289 48.7104 3.14289H55.4081C55.7444 3.14289 56.017 2.86146 56.017 2.51431C56.017 2.16716 55.7444 1.88574 55.4081 1.88574Z" fill="#CC0000"/>
<path d="M55.4081 0H48.7104C48.3742 0 48.1016 0.281421 48.1016 0.628571C48.1016 0.975722 48.3742 1.25714 48.7104 1.25714H55.4081C55.7444 1.25714 56.017 0.975722 56.017 0.628571C56.017 0.281421 55.7444 0 55.4081 0Z" fill="#CC0000"/>
<path d="M73.6743 20.7429H67.5854C67.2492 20.7429 66.9766 21.0243 66.9766 21.3715C66.9766 21.7186 67.2492 22.0001 67.5854 22.0001H73.6743C74.0105 22.0001 74.2831 21.7186 74.2831 21.3715C74.2831 21.0243 74.0105 20.7429 73.6743 20.7429Z" fill="#CC0000"/>
<path d="M82.8076 20.7429H77.3276C76.9914 20.7429 76.7188 21.0243 76.7188 21.3715C76.7188 21.7186 76.9914 22.0001 77.3276 22.0001H82.8076C83.1438 22.0001 83.4164 21.7186 83.4164 21.3715C83.4164 21.0243 83.1438 20.7429 82.8076 20.7429Z" fill="#CC0000"/>
<path d="M82.1982 18.8572H76.7183C76.382 18.8572 76.1094 19.1386 76.1094 19.4857C76.1094 19.8329 76.382 20.1143 76.7183 20.1143H82.1982C82.5345 20.1143 82.8071 19.8329 82.8071 19.4857C82.8071 19.1386 82.5345 18.8572 82.1982 18.8572Z" fill="#CC0000"/>
<path d="M81.5888 16.9714H76.1089C75.7726 16.9714 75.5 17.2529 75.5 17.6C75.5 17.9472 75.7726 18.2286 76.1089 18.2286H81.5888C81.9251 18.2286 82.1977 17.9472 82.1977 17.6C82.1977 17.2529 81.9251 16.9714 81.5888 16.9714Z" fill="#CC0000"/>
<path d="M73.6743 16.9714H67.5854C67.2492 16.9714 66.9766 17.2529 66.9766 17.6C66.9766 17.9472 67.2492 18.2286 67.5854 18.2286H73.6743C74.0105 18.2286 74.2831 17.9472 74.2831 17.6C74.2831 17.2529 74.0105 16.9714 73.6743 16.9714Z" fill="#CC0000"/>
<path d="M80.9808 15.0857H67.5854C67.2492 15.0857 66.9766 15.3671 66.9766 15.7143C66.9766 16.0614 67.2492 16.3428 67.5854 16.3428H80.9808C81.3171 16.3428 81.5897 16.0614 81.5897 15.7143C81.5897 15.3671 81.3171 15.0857 80.9808 15.0857Z" fill="#CC0000"/>
<path d="M80.3715 13.2H74.2827C73.9464 13.2 73.6738 13.4814 73.6738 13.8285C73.6738 14.1757 73.9464 14.4571 74.2827 14.4571H80.3715C80.7078 14.4571 80.9804 14.1757 80.9804 13.8285C80.9804 13.4814 80.7078 13.2 80.3715 13.2Z" fill="#CC0000"/>
<path d="M79.7621 11.3145H73.6733C73.3371 11.3145 73.0645 11.5959 73.0645 11.943C73.0645 12.2902 73.3371 12.5716 73.6733 12.5716H79.7621C80.0984 12.5716 80.371 12.2902 80.371 11.943C80.371 11.5959 80.0984 11.3145 79.7621 11.3145Z" fill="#CC0000"/>
<path d="M79.1547 9.42871H73.0659C72.7296 9.42871 72.457 9.71013 72.457 10.0573C72.457 10.4044 72.7296 10.6859 73.0659 10.6859H79.1547C79.491 10.6859 79.7636 10.4044 79.7636 10.0573C79.7636 9.71013 79.491 9.42871 79.1547 9.42871Z" fill="#CC0000"/>
<path d="M78.5453 7.54297H67.5854C67.2492 7.54297 66.9766 7.82439 66.9766 8.17154C66.9766 8.51869 67.2492 8.80011 67.5854 8.80011H78.5453C78.8816 8.80011 79.1542 8.51869 79.1542 8.17154C79.1542 7.82439 78.8816 7.54297 78.5453 7.54297Z" fill="#CC0000"/>
<path d="M77.9364 5.65723H67.5854C67.2492 5.65723 66.9766 5.93865 66.9766 6.2858C66.9766 6.63295 67.2492 6.91437 67.5854 6.91437H77.9364C78.2727 6.91437 78.5453 6.63295 78.5453 6.2858C78.5453 5.93865 78.2727 5.65723 77.9364 5.65723Z" fill="#CC0000"/>
<path d="M77.3275 3.77148H67.5854C67.2492 3.77148 66.9766 4.05291 66.9766 4.40006C66.9766 4.74721 67.2492 5.02863 67.5854 5.02863H77.3275C77.6638 5.02863 77.9364 4.74721 77.9364 4.40006C77.9364 4.05291 77.6638 3.77148 77.3275 3.77148Z" fill="#CC0000"/>
<path d="M73.6743 18.8572H67.5854C67.2492 18.8572 66.9766 19.1386 66.9766 19.4857C66.9766 19.8329 67.2492 20.1143 67.5854 20.1143H73.6743C74.0105 20.1143 74.2831 19.8329 74.2831 19.4857C74.2831 19.1386 74.0105 18.8572 73.6743 18.8572Z" fill="#CC0000"/>
<path d="M17.6575 3.77148H0.608881C0.272605 3.77148 0 4.05291 0 4.40006C0 4.74721 0.272605 5.02863 0.608881 5.02863H17.6575C17.9938 5.02863 18.2664 4.74721 18.2664 4.40006C18.2664 4.05291 17.9938 3.77148 17.6575 3.77148Z" fill="#CC0000"/>
<path d="M17.6575 5.65723H0.608881C0.272605 5.65723 0 5.93865 0 6.2858C0 6.63295 0.272605 6.91437 0.608881 6.91437H17.6575C17.9938 6.91437 18.2664 6.63295 18.2664 6.2858C18.2664 5.93865 17.9938 5.65723 17.6575 5.65723Z" fill="#CC0000"/>
<path d="M17.6575 7.54297H0.608881C0.272605 7.54297 0 7.82439 0 8.17154C0 8.51869 0.272605 8.80011 0.608881 8.80011H17.6575C17.9938 8.80011 18.2664 8.51869 18.2664 8.17154C18.2664 7.82439 17.9938 7.54297 17.6575 7.54297Z" fill="#CC0000"/>
<path d="M16.4398 16.9714H0.608881C0.272605 16.9714 0 17.2529 0 17.6C0 17.9472 0.272605 18.2286 0.608881 18.2286H16.4398C16.7761 18.2286 17.0487 17.9472 17.0487 17.6C17.0487 17.2529 16.7761 16.9714 16.4398 16.9714Z" fill="#CC0000"/>
<path d="M6.08881 15.0857H0.608881C0.272605 15.0857 0 15.3671 0 15.7143C0 16.0614 0.272605 16.3428 0.608881 16.3428H6.08881C6.42508 16.3428 6.69769 16.0614 6.69769 15.7143C6.69769 15.3671 6.42508 15.0857 6.08881 15.0857Z" fill="#CC0000"/>
<path d="M6.08881 13.2H0.608881C0.272605 13.2 0 13.4814 0 13.8285C0 14.1757 0.272605 14.4571 0.608881 14.4571H6.08881C6.42508 14.4571 6.69769 14.1757 6.69769 13.8285C6.69769 13.4814 6.42508 13.2 6.08881 13.2Z" fill="#CC0000"/>
<path d="M6.08881 11.3145H0.608881C0.272605 11.3145 0 11.5959 0 11.943C0 12.2902 0.272605 12.5716 0.608881 12.5716H6.08881C6.42508 12.5716 6.69769 12.2902 6.69769 11.943C6.69769 11.5959 6.42508 11.3145 6.08881 11.3145Z" fill="#CC0000"/>
<path d="M6.08881 9.42871H0.608881C0.272605 9.42871 0 9.71013 0 10.0573C0 10.4044 0.272605 10.6859 0.608881 10.6859H6.08881C6.42508 10.6859 6.69769 10.4044 6.69769 10.0573C6.69769 9.71013 6.42508 9.42871 6.08881 9.42871Z" fill="#CC0000"/>
<path d="M17.6572 9.42871H12.1772C11.841 9.42871 11.5684 9.71013 11.5684 10.0573C11.5684 10.4044 11.841 10.6859 12.1772 10.6859H17.6572C17.9934 10.6859 18.266 10.4044 18.266 10.0573C18.266 9.71013 17.9934 9.42871 17.6572 9.42871Z" fill="#CC0000"/>
<path d="M17.6572 11.3145H12.1772C11.841 11.3145 11.5684 11.5959 11.5684 11.943C11.5684 12.2902 11.841 12.5716 12.1772 12.5716H17.6572C17.9934 12.5716 18.266 12.2902 18.266 11.943C18.266 11.5959 17.9934 11.3145 17.6572 11.3145Z" fill="#CC0000"/>
<path d="M17.6572 13.2H12.1772C11.841 13.2 11.5684 13.4814 11.5684 13.8285C11.5684 14.1757 11.841 14.4571 12.1772 14.4571H17.6572C17.9934 14.4571 18.266 14.1757 18.266 13.8285C18.266 13.4814 17.9934 13.2 17.6572 13.2Z" fill="#CC0000"/>
<path d="M17.6572 15.0857H12.1772C11.841 15.0857 11.5684 15.3671 11.5684 15.7143C11.5684 16.0614 11.841 16.3428 12.1772 16.3428H17.6572C17.9934 16.3428 18.266 16.0614 18.266 15.7143C18.266 15.3671 17.9934 15.0857 17.6572 15.0857Z" fill="#CC0000"/>
<path d="M15.222 18.8572H0.608881C0.272605 18.8572 0 19.1386 0 19.4857C0 19.8329 0.272605 20.1143 0.608881 20.1143H15.222C15.5583 20.1143 15.8309 19.8329 15.8309 19.4857C15.8309 19.1386 15.5583 18.8572 15.222 18.8572Z" fill="#CC0000"/>
<path d="M14.0043 20.7429H0.608881C0.272605 20.7429 0 21.0243 0 21.3715C0 21.7186 0.272605 22.0001 0.608881 22.0001H14.0043C14.3405 22.0001 14.6131 21.7186 14.6131 21.3715C14.6131 21.0243 14.3405 20.7429 14.0043 20.7429Z" fill="#CC0000"/>
</g>
<defs>
<clipPath id="clip0_203_171">
<rect width="83.4167" height="22" fill="white"/>
</clipPath>
</defs>
</svg>
