<svg width="34" height="30" viewBox="0 0 34 30" fill="none" xmlns="http://www.w3.org/2000/svg">
<path d="M10.9371 15.7567C10.5254 15.3415 10.5254 14.6585 10.9371 14.2433L19.4371 5.67187C19.8488 5.2567 20.5262 5.2567 20.9379 5.67187C21.3496 6.08705 21.3496 6.77009 20.9379 7.18527L14.2508 13.9286H32.9375C33.5219 13.9286 34 14.4107 34 15C34 15.5893 33.5219 16.0714 32.9375 16.0714H14.2508L20.9379 22.8147C21.3496 23.2299 21.3496 23.9129 20.9379 24.3281C20.5262 24.7433 19.8488 24.7433 19.4371 24.3281L10.9371 15.7567ZM11.6875 27.8571C12.2719 27.8571 12.75 28.3393 12.75 28.9286C12.75 29.5179 12.2719 30 11.6875 30H5.3125C2.37734 30 0 27.6027 0 24.6429V5.35714C0 2.39732 2.37734 0 5.3125 0H11.6875C12.2719 0 12.75 0.482143 12.75 1.07143C12.75 1.66071 12.2719 2.14286 11.6875 2.14286H5.3125C3.55273 2.14286 2.125 3.58259 2.125 5.35714V24.6429C2.125 26.4174 3.55273 27.8571 5.3125 27.8571H11.6875Z" fill="#CC4B65"/>
</svg>
