<svg width="10" height="10" viewBox="0 0 10 10" fill="none" xmlns="http://www.w3.org/2000/svg">
<path d="M0 4.38086C0 1.96094 1.96094 0 4.38086 0H5C6.99414 0 8.625 1.55664 8.74414 3.52148L9.86328 4.92188L10 5.09375V5.3125V5.625V6.25H9.375H8.75V8.125V8.75H8.125H6.25V9.375V10H5.625H1.875H1.25V9.375V7.44531C0.449219 6.62695 0 5.52734 0 4.38086ZM5 1.875H3.75V2.60742C3.53125 2.68555 3.33008 2.80273 3.15625 2.95117L2.52148 2.58594L1.89648 3.66797L2.53125 4.0332C2.50977 4.14453 2.5 4.25977 2.5 4.37695C2.5 4.49414 2.50977 4.60938 2.53125 4.71875L1.89648 5.08398L2.52148 6.16602L3.15625 5.80078C3.33008 5.94922 3.53125 6.06641 3.75 6.14453V6.875H5V6.14258C5.21875 6.06445 5.41992 5.94727 5.59375 5.79883L6.22852 6.16406L6.85352 5.08203L6.21875 4.7168C6.24023 4.60547 6.25 4.49023 6.25 4.375C6.25 4.25977 6.24023 4.14258 6.21875 4.03125L6.85352 3.66602L6.22852 2.58398L5.59375 2.94922C5.41992 2.80078 5.2207 2.68359 5 2.60547V1.875ZM3.59375 4.375C3.59375 4.1678 3.67606 3.96909 3.82257 3.82257C3.96909 3.67606 4.1678 3.59375 4.375 3.59375C4.5822 3.59375 4.78091 3.67606 4.92743 3.82257C5.07394 3.96909 5.15625 4.1678 5.15625 4.375C5.15625 4.5822 5.07394 4.78091 4.92743 4.92743C4.78091 5.07394 4.5822 5.15625 4.375 5.15625C4.1678 5.15625 3.96909 5.07394 3.82257 4.92743C3.67606 4.78091 3.59375 4.5822 3.59375 4.375Z" fill="white"/>
</svg>
