<svg width="34" height="30" viewBox="0 0 34 30" fill="none" xmlns="http://www.w3.org/2000/svg">
<path d="M10.625 2.14286C9.44961 2.14286 8.5 3.10045 8.5 4.28571V25.7143C8.5 26.4978 8.29414 27.2277 7.92891 27.8571H28.6875C30.4473 27.8571 31.875 26.4174 31.875 24.6429V4.28571C31.875 3.10045 30.9254 2.14286 29.75 2.14286H10.625ZM4.25 30C1.90586 30 0 28.0781 0 25.7143V8.57143C0 6.20759 1.90586 4.28571 4.25 4.28571V6.42857C3.07461 6.42857 2.125 7.38616 2.125 8.57143V25.7143C2.125 26.8996 3.07461 27.8571 4.25 27.8571C5.42539 27.8571 6.375 26.8996 6.375 25.7143V4.28571C6.375 1.92188 8.28086 0 10.625 0H29.75C32.0941 0 34 1.92188 34 4.28571V24.6429C34 27.6027 31.6227 30 28.6875 30H4.25ZM25.5 5.35714C25.5 4.76786 25.9781 4.28571 26.5625 4.28571H28.6875C29.2719 4.28571 29.75 4.76786 29.75 5.35714C29.75 5.94643 29.2719 6.42857 28.6875 6.42857H26.5625C25.9781 6.42857 25.5 5.94643 25.5 5.35714ZM25.5 9.64286C25.5 9.05357 25.9781 8.57143 26.5625 8.57143H28.6875C29.2719 8.57143 29.75 9.05357 29.75 9.64286C29.75 10.2321 29.2719 10.7143 28.6875 10.7143H26.5625C25.9781 10.7143 25.5 10.2321 25.5 9.64286ZM25.5 13.9286C25.5 13.3393 25.9781 12.8571 26.5625 12.8571H28.6875C29.2719 12.8571 29.75 13.3393 29.75 13.9286C29.75 14.5179 29.2719 15 28.6875 15H26.5625C25.9781 15 25.5 14.5179 25.5 13.9286ZM10.625 18.2143C10.625 17.625 11.1031 17.1429 11.6875 17.1429H28.6875C29.2719 17.1429 29.75 17.625 29.75 18.2143C29.75 18.8036 29.2719 19.2857 28.6875 19.2857H11.6875C11.1031 19.2857 10.625 18.8036 10.625 18.2143ZM10.625 22.5C10.625 21.9107 11.1031 21.4286 11.6875 21.4286H28.6875C29.2719 21.4286 29.75 21.9107 29.75 22.5C29.75 23.0893 29.2719 23.5714 28.6875 23.5714H11.6875C11.1031 23.5714 10.625 23.0893 10.625 22.5ZM12.75 12.8571H21.25V6.42857H12.75V12.8571ZM10.625 5.89286C10.625 5.00223 11.3355 4.28571 12.2188 4.28571H21.7812C22.6645 4.28571 23.375 5.00223 23.375 5.89286V13.3929C23.375 14.2835 22.6645 15 21.7812 15H12.2188C11.3355 15 10.625 14.2835 10.625 13.3929V5.89286Z" fill="#CC4B65"/>
</svg>
