<svg width="10" height="10" viewBox="0 0 10 10" fill="none" xmlns="http://www.w3.org/2000/svg">
<path d="M5 10C6.32608 10 7.59785 9.47322 8.53553 8.53553C9.47322 7.59785 10 6.32608 10 5C10 3.67392 9.47322 2.40215 8.53553 1.46447C7.59785 0.526784 6.32608 0 5 0C3.67392 0 2.40215 0.526784 1.46447 1.46447C0.526784 2.40215 0 3.67392 0 5C0 6.32608 0.526784 7.59785 1.46447 8.53553C2.40215 9.47322 3.67392 10 5 10ZM3.125 4.375C3.29076 4.375 3.44973 4.44085 3.56694 4.55806C3.68415 4.67527 3.75 4.83424 3.75 5C3.75 5.16576 3.68415 5.32473 3.56694 5.44194C3.44973 5.55915 3.29076 5.625 3.125 5.625C2.95924 5.625 2.80027 5.55915 2.68306 5.44194C2.56585 5.32473 2.5 5.16576 2.5 5C2.5 4.83424 2.56585 4.67527 2.68306 4.55806C2.80027 4.44085 2.95924 4.375 3.125 4.375ZM4.375 5C4.375 4.83424 4.44085 4.67527 4.55806 4.55806C4.67527 4.44085 4.83424 4.375 5 4.375C5.16576 4.375 5.32473 4.44085 5.44194 4.55806C5.55915 4.67527 5.625 4.83424 5.625 5C5.625 5.16576 5.55915 5.32473 5.44194 5.44194C5.32473 5.55915 5.16576 5.625 5 5.625C4.83424 5.625 4.67527 5.55915 4.55806 5.44194C4.44085 5.32473 4.375 5.16576 4.375 5ZM6.875 4.375C7.04076 4.375 7.19973 4.44085 7.31694 4.55806C7.43415 4.67527 7.5 4.83424 7.5 5C7.5 5.16576 7.43415 5.32473 7.31694 5.44194C7.19973 5.55915 7.04076 5.625 6.875 5.625C6.70924 5.625 6.55027 5.55915 6.43306 5.44194C6.31585 5.32473 6.25 5.16576 6.25 5C6.25 4.83424 6.31585 4.67527 6.43306 4.55806C6.55027 4.44085 6.70924 4.375 6.875 4.375Z" fill="white"/>
</svg>
