<svg width="12" height="12" viewBox="0 0 12 12" fill="none" xmlns="http://www.w3.org/2000/svg">
<path d="M0 3.375L6 0L12 3.375V4.5H0V3.375ZM0 12V10.875L1.5 9.75V5.25H3V9.75H3.9375V5.25H5.4375V9.75H6.5625V5.25H8.0625V9.75H9V5.25H10.5V9.75L12 10.875V12H0ZM6 3.375C6.19891 3.375 6.38968 3.29598 6.53033 3.15533C6.67098 3.01468 6.75 2.82391 6.75 2.625C6.75 2.42609 6.67098 2.23532 6.53033 2.09467C6.38968 1.95402 6.19891 1.875 6 1.875C5.80109 1.875 5.61032 1.95402 5.46967 2.09467C5.32902 2.23532 5.25 2.42609 5.25 2.625C5.25 2.82391 5.32902 3.01468 5.46967 3.15533C5.61032 3.29598 5.80109 3.375 6 3.375Z" fill="white"/>
</svg>
