<svg width="112" height="112" viewBox="0 0 112 112" fill="none" xmlns="http://www.w3.org/2000/svg">
<path d="M105 56C105 43.0044 99.8375 30.541 90.6482 21.3518C81.4589 12.1625 68.9956 7 56 7C43.0044 7 30.541 12.1625 21.3518 21.3518C12.1625 30.541 7 43.0044 7 56C7 68.9956 12.1625 81.4589 21.3518 90.6482C30.541 99.8375 43.0044 105 56 105C68.9956 105 81.4589 99.8375 90.6482 90.6482C99.8375 81.4589 105 68.9956 105 56ZM0 56C0 41.1479 5.89998 26.9041 16.402 16.402C26.9041 5.89998 41.1479 0 56 0C70.8521 0 85.0959 5.89998 95.598 16.402C106.1 26.9041 112 41.1479 112 56C112 70.8521 106.1 85.0959 95.598 95.598C85.0959 106.1 70.8521 112 56 112C41.1479 112 26.9041 106.1 16.402 95.598C5.89998 85.0959 0 70.8521 0 56ZM45.5 84H66.5C68.425 84 70 85.575 70 87.5C70 89.425 68.425 91 66.5 91H45.5C43.575 91 42 89.425 42 87.5C42 85.575 43.575 84 45.5 84ZM84.7 59.15C85.8594 57.5969 88.0469 57.2906 89.6 58.45C91.1531 59.6094 91.4594 61.7969 90.3 63.35C83.65 72.2094 70.35 72.2094 63.7 63.35C62.5406 61.7969 62.8469 59.6094 64.4 58.45C65.9531 57.2906 68.1406 57.5969 69.3 59.15C73.15 64.2906 80.85 64.2906 84.7 59.15ZM27.3 59.15C31.15 64.2906 38.85 64.2906 42.7 59.15C43.8594 57.5969 46.0469 57.2906 47.6 58.45C49.1531 59.6094 49.4594 61.7969 48.3 63.35C41.65 72.2094 28.35 72.2094 21.7 63.35C20.5406 61.7969 20.8469 59.6094 22.4 58.45C23.9531 57.2906 26.1406 57.5969 27.3 59.15ZM17.8719 47.075C16.9969 45.3469 17.7188 43.2469 19.4469 42.3719L24.4563 39.8781C27.6281 38.3031 30.4062 36.0281 32.6375 33.2719L35.7875 29.3344C36.9906 27.825 39.2 27.5844 40.7094 28.7875C42.2188 29.9906 42.4594 32.2 41.2563 33.7094L38.1063 37.6469C35.2625 41.2125 31.675 44.1 27.6062 46.1344L22.5969 48.6281C20.8688 49.5031 18.7688 48.7812 17.8938 47.0531L17.8719 47.075ZM92.575 42.3719C94.3031 43.2469 95.0031 45.3469 94.15 47.075C93.2969 48.8031 91.175 49.5031 89.4469 48.65L84.4375 46.1344C80.3688 44.1 76.7812 41.1906 73.9156 37.6469L70.7656 33.7094C69.5625 32.2 69.8031 29.9906 71.3125 28.7875C72.8219 27.5844 75.0312 27.825 76.2344 29.3344L79.3844 33.2719C81.5938 36.05 84.3937 38.3031 87.5656 39.8781L92.575 42.3719Z" fill="#404040"/>
</svg>
