<svg width="30" height="30" viewBox="0 0 30 30" fill="none" xmlns="http://www.w3.org/2000/svg">
<path d="M24.5042 12.2521C24.5042 14.9558 23.6265 17.4534 22.148 19.4797L28.6629 26.0004L30 27.3316L27.3316 30L26.0004 28.6688L19.4797 22.148C17.4534 23.6324 14.9558 24.5042 12.2521 24.5042C5.484 24.5042 0 19.0202 0 12.2521C0 5.484 5.484 0 12.2521 0C19.0202 0 24.5042 5.484 24.5042 12.2521ZM12.2521 20.7343C13.366 20.7343 14.469 20.5149 15.4981 20.0887C16.5272 19.6624 17.4623 19.0376 18.25 18.25C19.0376 17.4623 19.6624 16.5272 20.0887 15.4981C20.5149 14.469 20.7343 13.366 20.7343 12.2521C20.7343 11.1382 20.5149 10.0352 20.0887 9.0061C19.6624 7.97699 19.0376 7.04192 18.25 6.25427C17.4623 5.46662 16.5272 4.84182 15.4981 4.41555C14.469 3.98928 13.366 3.76988 12.2521 3.76988C11.1382 3.76988 10.0352 3.98928 9.0061 4.41555C7.97699 4.84182 7.04192 5.46662 6.25427 6.25427C5.46662 7.04192 4.84182 7.97699 4.41555 9.0061C3.98928 10.0352 3.76988 11.1382 3.76988 12.2521C3.76988 13.366 3.98928 14.469 4.41555 15.4981C4.84182 16.5272 5.46662 17.4623 6.25427 18.25C7.04192 19.0376 7.97699 19.6624 9.0061 20.0887C10.0352 20.5149 11.1382 20.7343 12.2521 20.7343Z" fill="white"/>
</svg>
