<svg width="16" height="13" viewBox="0 0 16 13" fill="none" xmlns="http://www.w3.org/2000/svg">
<path d="M3.6 0C4.13043 0 4.63914 0.214006 5.01421 0.594939C5.38929 0.975873 5.6 1.49253 5.6 2.03125C5.6 2.56997 5.38929 3.08663 5.01421 3.46756C4.63914 3.84849 4.13043 4.0625 3.6 4.0625C3.06957 4.0625 2.56086 3.84849 2.18579 3.46756C1.81071 3.08663 1.6 2.56997 1.6 2.03125C1.6 1.49253 1.81071 0.975873 2.18579 0.594939C2.56086 0.214006 3.06957 0 3.6 0ZM12.8 0C13.3304 0 13.8391 0.214006 14.2142 0.594939C14.5893 0.975873 14.8 1.49253 14.8 2.03125C14.8 2.56997 14.5893 3.08663 14.2142 3.46756C13.8391 3.84849 13.3304 4.0625 12.8 4.0625C12.2696 4.0625 11.7609 3.84849 11.3858 3.46756C11.0107 3.08663 10.8 2.56997 10.8 2.03125C10.8 1.49253 11.0107 0.975873 11.3858 0.594939C11.7609 0.214006 12.2696 0 12.8 0ZM1.2 4.875H4.9C4.835 5.13398 4.8 5.4082 4.8 5.6875C4.8 6.65742 5.22 7.52832 5.8825 8.125H0L1.2 4.875ZM16 8.125H10.1175C10.7825 7.52832 11.2 6.65742 11.2 5.6875C11.2 5.4082 11.165 5.13398 11.1 4.875H14.8L16 8.125ZM5.6 5.6875C5.6 5.04103 5.85286 4.42105 6.30294 3.96393C6.75303 3.50681 7.36348 3.25 8 3.25C8.63652 3.25 9.24697 3.50681 9.69706 3.96393C10.1471 4.42105 10.4 5.04103 10.4 5.6875C10.4 6.33397 10.1471 6.95395 9.69706 7.41107C9.24697 7.86819 8.63652 8.125 8 8.125C7.36348 8.125 6.75303 7.86819 6.30294 7.41107C5.85286 6.95395 5.6 6.33397 5.6 5.6875ZM11.6 8.9375L12.8 13H3.2L4.4 8.9375H11.6Z" fill="white"/>
</svg>
