<svg width="112" height="40" viewBox="0 0 112 40" fill="none" xmlns="http://www.w3.org/2000/svg">
<path fill-rule="evenodd" clip-rule="evenodd" d="M108.849 19.4615L111.317 16.7558C109.41 14.8767 107.056 13.9743 105 13.9743C101.711 13.9743 97.7861 15.5904 97.7861 19.9127C97.7861 24.3092 101.935 25.3993 104.663 25.9252C106.009 26.226 107.691 26.6394 107.691 28.0677C107.541 31.2247 102.346 30.9239 100.365 27.4661L97.3002 29.4582C100.365 36.1854 111.765 35.5465 111.765 27.9925C111.728 23.8585 108.476 22.6558 105.373 22.1299C103.766 21.8664 101.711 21.3032 101.86 19.574C102.084 17.1312 106.719 17.3195 108.849 19.4615ZM84.7049 25.8879H95.7683V20.589C95.7683 16.0416 91.9184 13.8996 88.218 13.8996C84.4058 13.8996 80.5558 16.0416 80.5558 20.589V27.4288C80.5558 31.901 84.4058 34.1181 88.218 34.1181C90.7599 34.1181 93.6752 32.8029 95.17 30.1345L91.7317 28.1429C90.1615 31.4124 84.6301 30.623 84.7049 27.4288V25.8879ZM84.7049 22.4678V20.5888C84.5553 16.8308 91.8059 16.8681 91.8059 20.5136V22.4678H84.7049ZM79.087 33.8923V30.322C76.8443 30.322 74.7889 30.1343 74.7889 27.0526V18.3716H78.4892V14.2376H74.7889V7.097H70.7151V27.0904C70.7151 32.6523 74.5645 34.5692 79.087 33.8923ZM67.9123 9.69013C67.9123 8.1866 66.828 7.05908 65.2956 7.05908C63.838 7.05908 62.7166 8.1866 62.7166 9.69013C62.7166 11.1558 63.838 12.3207 65.2956 12.3207C66.828 12.3207 67.9123 11.1558 67.9123 9.69013ZM57.0987 19.4612C58.8179 18.3337 59.5281 16.2291 59.5281 14.4253C59.5281 9.50186 55.9026 7.05908 51.492 7.05908H41.1765V33.7046H51.4548C56.65 33.7046 60.6118 31.6378 60.7237 25.7746C60.7237 23.1067 59.9763 20.7013 57.0987 19.4612ZM55.2671 14.2746C55.2671 16.7174 53.6599 17.6945 51.492 17.6945H45.5118V11.2681H51.492C53.5851 11.2681 55.2671 12.2452 55.2671 14.2746ZM56.3885 25.6248C56.3885 28.5182 54.3325 29.6084 51.492 29.5332H45.5118V21.6033H51.492C54.4821 21.5659 56.3885 22.7308 56.3885 25.6248ZM63.3149 33.7044H67.4263V14.1995H63.3149V33.7044Z" fill="black"/>
<path fill-rule="evenodd" clip-rule="evenodd" d="M32.9412 11.6064C32.9412 5.20651 27.6627 0 21.1742 0H19.153H14.3315H8.55972H3.68928H2.17717H1.90316C1.59936 0 1.29609 0.0729467 1.02634 0.212018C0.915136 0.260299 0.790103 0.341118 0.681032 0.439255C0.256983 0.777224 0 1.30884 0 1.8772C0 2.9121 0.85395 3.7544 1.90316 3.7544C1.96435 3.75544 2.24794 3.77171 2.35328 3.79323C4.08566 4.29756 3.69087 5.99895 3.67278 6.07085C3.34078 6.72894 3.29502 7.42902 3.57488 8.04828C4.03671 9.07164 5.22851 9.4285 5.27906 9.44319C6.73583 10.2341 6.08033 11.7402 6.00053 11.9092C5.53817 12.4828 5.34557 13.1582 5.48869 13.8216C5.72492 14.9168 6.81564 15.5104 6.86193 15.535C8.15748 16.6387 7.0955 18.0346 7.04921 18.0934C6.47459 18.5615 6.14418 19.1829 6.14418 19.8604C6.14418 20.9808 7.08592 21.7848 7.12636 21.8184C8.13088 23.1257 6.91087 24.2388 6.76828 24.3611C6.10907 24.699 5.65522 25.239 5.5121 25.9024C5.27587 26.9976 6.02766 27.978 6.06012 28.0189C6.7885 29.5471 5.24235 30.3957 5.17637 30.4309C4.4581 30.6282 3.89997 31.0632 3.62064 31.6825C3.15882 32.7053 3.68768 33.8184 3.71003 33.8651C4.08938 35.4621 2.51556 35.9895 2.33519 36.0441C1.80048 36.1291 1.33972 36.275 0.990156 36.4765C0.386273 36.794 0 37.4285 0 38.1228C0 39.1582 0.85395 40 1.90316 40C2.21069 39.9958 6.166 39.9753 7.69991 39.9753H13.5254H18.647H21.1423C27.6627 39.9753 32.9412 34.7683 32.9412 28.3684C32.9412 25.196 31.6249 22.1742 29.3099 19.9874C31.6249 17.8011 32.9412 14.7788 32.9412 11.6064Z" fill="#1253FA"/>
<path fill-rule="evenodd" clip-rule="evenodd" d="M21.7647 18.8234C17.5414 18.8234 14.1177 15.3997 14.1177 11.1764C14.1177 6.95305 17.5414 3.5293 21.7647 3.5293C25.988 3.5293 29.4118 6.95305 29.4118 11.1764C29.4118 15.3997 25.988 18.8234 21.7647 18.8234Z" fill="white"/>
<path fill-rule="evenodd" clip-rule="evenodd" d="M21.1765 8.23535C22.4763 8.23535 23.5294 9.28887 23.5294 10.588C23.5294 11.8877 22.4763 12.9412 21.1765 12.9412C19.8766 12.9412 18.8235 11.8877 18.8235 10.588C18.8235 9.28887 19.8766 8.23535 21.1765 8.23535Z" fill="#000925"/>
</svg>
