<svg width="56" height="50" viewBox="0 0 56 50" fill="none" xmlns="http://www.w3.org/2000/svg">
<path d="M54.1316 32.6615C52.9265 31.4711 51.324 30.8155 49.6196 30.8155C47.9153 30.8155 46.3128 31.4711 45.1077 32.6615C45.0513 32.7172 44.9963 32.7743 44.9423 32.8317L38.407 28.3057C38.5934 27.9839 38.7605 27.6505 38.9081 27.3062C39.4006 26.1559 39.6505 24.9345 39.6505 23.676C39.6505 22.4174 39.4006 21.196 38.9081 20.0458C38.4612 19.0018 37.8329 18.0581 37.0391 17.2373L40.721 13.0625C41.1121 13.3254 41.5291 13.5499 41.9691 13.7336C42.8618 14.1067 43.8095 14.2958 44.786 14.2958C45.7626 14.2958 46.7102 14.1067 47.603 13.7336C48.4647 13.3736 49.2385 12.8582 49.9029 12.2021C50.5671 11.5459 51.0889 10.7817 51.4533 9.93036C51.831 9.04854 52.0224 8.11247 52.0224 7.14788C52.0224 6.1833 51.831 5.24722 51.4533 4.3654C51.0889 3.51423 50.5671 2.74989 49.9029 2.09362C49.2387 1.43755 48.4649 0.922134 47.603 0.562157C46.7102 0.189101 45.7626 0 44.786 0C43.8095 0 42.8618 0.189101 41.9691 0.562157C41.1074 0.922134 40.3335 1.43755 39.6691 2.09362C39.005 2.74989 38.4832 3.51402 38.1187 4.3654C37.741 5.24722 37.5496 6.1833 37.5496 7.14788C37.5496 8.11247 37.741 9.04854 38.1187 9.93036C38.4347 10.6685 38.8693 11.3413 39.4124 11.935L35.7304 16.1098C35.1579 15.7012 34.541 15.3575 33.8844 15.0833C32.7199 14.5968 31.4833 14.35 30.2092 14.35C28.9351 14.35 27.6985 14.5968 26.534 15.0833C25.7882 15.3948 25.0932 15.7961 24.4563 16.2807L18.7074 10.1512C19.3113 9.35148 19.6377 8.3854 19.6377 7.36957C19.6377 6.12348 19.1465 4.952 18.2544 4.07103C17.3623 3.18984 16.1765 2.70466 14.915 2.70466C13.6535 2.70466 12.4675 3.18984 11.5756 4.07103C10.6835 4.95221 10.1923 6.12348 10.1923 7.36957C10.1923 8.61566 10.6835 9.78714 11.5756 10.6681C12.4677 11.5493 13.6537 12.0345 14.915 12.0345C15.8206 12.0345 16.6873 11.7845 17.4342 11.3173L23.1831 17.4466C22.4816 18.2171 21.9196 19.0891 21.5102 20.0453C21.0177 21.1956 20.7679 22.417 20.7679 23.6755C20.7679 24.6256 20.9103 25.5543 21.1918 26.4475L11.9359 30.2458C11.6622 29.7857 11.3277 29.3569 10.9355 28.9697C9.72563 27.7747 8.11702 27.1164 6.40597 27.1164C4.69492 27.1164 3.08632 27.7747 1.87645 28.9697C0.666362 30.1652 0 31.7541 0 33.4442C0 35.1344 0.666362 36.7233 1.87623 37.9183C3.0861 39.1134 4.6947 39.7716 6.40575 39.7716C8.11681 39.7716 9.72541 39.1134 10.9353 37.9183C12.1451 36.7233 12.8115 35.1344 12.8115 33.4442C12.8115 32.892 12.7399 32.3506 12.6018 31.8302L21.8588 28.0315C22.2988 28.8542 22.8592 29.605 23.5328 30.2705C24.3995 31.1266 25.4092 31.7989 26.5336 32.2687C27.4317 32.6439 28.3727 32.8763 29.3405 32.9631V39.3315C28.2188 39.5083 27.1845 40.027 26.3658 40.8357C25.3393 41.8496 24.7739 43.1977 24.7739 44.6316C24.7739 46.0655 25.3391 47.4137 26.3658 48.4276C27.3922 49.4415 28.7571 50 30.2088 50C31.6604 50 33.0253 49.4417 34.0517 48.4276C35.0782 47.4135 35.6436 46.0655 35.6436 44.6316C35.6436 43.1977 35.0784 41.8496 34.0517 40.8357C33.233 40.027 32.1987 39.5083 31.077 39.3315V32.9631C32.0451 32.8763 32.986 32.6439 33.8839 32.2687C35.0083 31.7989 36.018 31.1266 36.8848 30.2705C37.0677 30.0897 37.2418 29.9024 37.4081 29.7094L43.9425 34.2347C43.4824 35.1159 43.2384 36.0987 43.2384 37.1186C43.2384 38.8021 43.9022 40.385 45.1073 41.5754C46.3124 42.7657 47.9149 43.4214 49.6192 43.4214C51.3235 43.4214 52.926 42.7657 54.1311 41.5754C55.3362 40.385 56 38.8021 56 37.1186C56 35.4352 55.3362 33.8523 54.1311 32.6619L54.1316 32.6615Z" fill="#CC4B65"/>
</svg>
