<svg width="268" height="36" viewBox="0 0 268 36" fill="none" xmlns="http://www.w3.org/2000/svg">
<path d="M38.8935 23.4672C38.0276 22.612 36.8762 22.1409 35.6516 22.1409C34.4271 22.1409 33.2757 22.612 32.4098 23.4672C32.3693 23.5073 32.3298 23.5483 32.291 23.5895L27.5954 20.3376C27.7293 20.1064 27.8494 19.8669 27.9555 19.6195C28.3093 18.793 28.4888 17.9154 28.4888 17.0112C28.4888 16.1069 28.3093 15.2293 27.9555 14.4028C27.6343 13.6528 27.1829 12.9747 26.6125 12.385L29.258 9.38541C29.539 9.57427 29.8386 9.73556 30.1547 9.86758C30.7962 10.1356 31.4771 10.2715 32.1787 10.2715C32.8803 10.2715 33.5612 10.1356 34.2027 9.86758C34.8218 9.60893 35.3778 9.23861 35.8552 8.76722C36.3324 8.29569 36.7073 7.74667 36.9691 7.13495C37.2405 6.50136 37.3781 5.8288 37.3781 5.13574C37.3781 4.44269 37.2405 3.77012 36.9691 3.13653C36.7073 2.52497 36.3324 1.9758 35.8552 1.50426C35.3779 1.03288 34.822 0.662552 34.2027 0.403909C33.5612 0.135869 32.8803 0 32.1787 0C31.4771 0 30.7962 0.135869 30.1547 0.403909C29.5356 0.662552 28.9796 1.03288 28.5022 1.50426C28.025 1.9758 27.6501 2.52482 27.3882 3.13653C27.1169 3.77012 26.9793 4.44269 26.9793 5.13574C26.9793 5.8288 27.1169 6.50136 27.3882 7.13495C27.6153 7.66533 27.9275 8.14873 28.3177 8.57528L25.6723 11.5749C25.2609 11.2813 24.8176 11.0343 24.3459 10.8373C23.5092 10.4878 22.6207 10.3105 21.7053 10.3105C20.7898 10.3105 19.9013 10.4878 19.0646 10.8373C18.5288 11.0611 18.0294 11.3495 17.5718 11.6976L13.4412 7.29362C13.8751 6.71903 14.1097 6.0249 14.1097 5.29503C14.1097 4.39971 13.7567 3.558 13.1158 2.92503C12.4748 2.2919 11.6228 1.94329 10.7164 1.94329C9.81 1.94329 8.95786 2.2919 8.31705 2.92503C7.67608 3.55816 7.32315 4.39971 7.32315 5.29503C7.32315 6.19034 7.67608 7.03205 8.31705 7.66502C8.95802 8.29815 9.81016 8.64676 10.7164 8.64676C11.367 8.64676 11.9898 8.46714 12.5264 8.13148L16.657 12.5353C16.153 13.089 15.7492 13.7155 15.4551 14.4025C15.1012 15.229 14.9217 16.1066 14.9217 17.0108C14.9217 17.6934 15.024 18.3608 15.2263 19.0025L8.57593 21.7316C8.37927 21.401 8.13895 21.0929 7.85714 20.8147C6.98785 19.9561 5.83207 19.4831 4.60268 19.4831C3.37329 19.4831 2.21752 19.9561 1.34823 20.8147C0.47878 21.6737 0 22.8153 0 24.0296C0 25.244 0.47878 26.3856 1.34807 27.2443C2.21736 28.1029 3.37314 28.5759 4.60253 28.5759C5.83191 28.5759 6.98769 28.1029 7.85698 27.2443C8.72627 26.3856 9.20505 25.244 9.20505 24.0296C9.20505 23.6328 9.15359 23.2439 9.0544 22.87L15.7055 20.1406C16.0217 20.7317 16.4243 21.2711 16.9083 21.7493C17.531 22.3644 18.2565 22.8475 19.0643 23.185C19.7097 23.4546 20.3857 23.6216 21.0811 23.684V28.2596C20.2752 28.3867 19.532 28.7593 18.9438 29.3404C18.2063 30.0689 17.8 31.0375 17.8 32.0678C17.8 33.098 18.2061 34.0667 18.9438 34.7952C19.6813 35.5236 20.6619 35.9249 21.705 35.9249C22.748 35.9249 23.7286 35.5238 24.4661 34.7952C25.2036 34.0665 25.6099 33.098 25.6099 32.0678C25.6099 31.0375 25.2038 30.0689 24.4661 29.3404C23.8779 28.7593 23.1347 28.3867 22.3288 28.2596V23.684C23.0243 23.6216 23.7004 23.4546 24.3456 23.185C25.1534 22.8475 25.8789 22.3644 26.5016 21.7493C26.6331 21.6194 26.7582 21.4848 26.8777 21.3462L31.5727 24.5976C31.242 25.2307 31.0667 25.9369 31.0667 26.6697C31.0667 27.8793 31.5436 29.0166 32.4095 29.8718C33.2754 30.7271 34.4268 31.1982 35.6513 31.1982C36.8759 31.1982 38.0273 30.7271 38.8932 29.8718C39.759 29.0166 40.2359 27.8793 40.2359 26.6697C40.2359 25.4601 39.759 24.3228 38.8932 23.4675L38.8935 23.4672Z" fill="#CC4B65"/>
<path d="M50.5648 7.34931H53.617L57.8245 19.5925H54.9275L53.9791 16.8507H50.1682L49.237 19.5925H46.34L50.5648 7.34931ZM53.5135 14.9022L52.0822 10.1946L50.6165 14.9022H53.5135ZM61.3891 12.5915V19.5925H58.5611V7.34931H60.8028L66.4761 14.5573V7.34931H69.3041V19.5925H66.9934L61.3891 12.5915ZM74.2632 7.34931H77.3153L81.5229 19.5925H78.6259L77.6775 16.8507H73.8665L72.9354 19.5925H70.0384L74.2632 7.34931ZM77.2119 14.9022L75.7806 10.1946L74.3149 14.9022H77.2119ZM89.4538 10.9361C89.4194 10.8786 89.2986 10.7924 89.0917 10.6774C88.8848 10.5509 88.6261 10.4187 88.3157 10.2808C88.0053 10.1428 87.6662 10.0221 87.2983 9.91866C86.9305 9.8152 86.5626 9.76347 86.1947 9.76347C85.7119 9.76347 85.3383 9.84969 85.0739 10.0221C84.8095 10.1831 84.6773 10.436 84.6773 10.7809C84.6773 11.0568 84.775 11.2752 84.9704 11.4361C85.1773 11.5971 85.4705 11.7408 85.8499 11.8672C86.2292 11.9822 86.6948 12.1201 87.2466 12.2811C88.0283 12.488 88.7066 12.7409 89.2814 13.0398C89.8562 13.3272 90.293 13.7008 90.5919 14.1607C90.9023 14.6205 91.0575 15.2298 91.0575 15.9885C91.0575 16.6783 90.9311 17.2646 90.6782 17.7474C90.4253 18.2188 90.0804 18.6039 89.6435 18.9028C89.2182 19.1902 88.7296 19.4028 88.1778 19.5408C87.626 19.6673 87.0569 19.7305 86.4706 19.7305C85.8728 19.7305 85.2578 19.673 84.6255 19.558C84.0047 19.4316 83.407 19.2591 82.8322 19.0407C82.2574 18.8108 81.7285 18.5349 81.2457 18.213L82.4873 15.7471C82.5333 15.8046 82.6827 15.9138 82.9356 16.0748C83.1885 16.2242 83.4989 16.3852 83.8668 16.5576C84.2462 16.7185 84.6658 16.8622 85.1256 16.9887C85.5854 17.1151 86.051 17.1784 86.5224 17.1784C87.0282 17.1784 87.4018 17.0979 87.6432 16.937C87.8961 16.776 88.0226 16.5518 88.0226 16.2644C88.0226 15.9541 87.8904 15.7126 87.626 15.5402C87.3731 15.3678 87.0224 15.2126 86.5741 15.0746C86.1373 14.9367 85.6314 14.7815 85.0566 14.609C84.3094 14.3791 83.6886 14.1204 83.1943 13.833C82.7115 13.5456 82.3493 13.195 82.1079 12.7812C81.878 12.3673 81.763 11.85 81.763 11.2292C81.763 10.367 81.9642 9.64276 82.3666 9.05647C82.7804 8.45867 83.3322 8.01033 84.022 7.71144C84.7118 7.40104 85.4647 7.24585 86.281 7.24585C86.8558 7.24585 87.4076 7.31482 87.9364 7.45278C88.4767 7.59073 88.9768 7.76317 89.4366 7.9701C89.9079 8.17702 90.3275 8.38395 90.6954 8.59088L89.4538 10.9361ZM102.784 7.34931V19.5925H99.9559V14.5745H95.0759V19.5925H92.2479V7.34931H95.0759V12.0914H99.9559V7.34931H102.784ZM104.661 19.5925V7.34931H107.489V19.5925H104.661ZM119.019 19.5925V12.2983L116.38 17.6095H114.828L112.19 12.2983V19.5925H109.362V7.34931H112.431L115.604 13.7468L118.794 7.34931H121.847V19.5925H119.019ZM123.798 13.4537V10.6429H126.039V13.4537H123.798ZM123.798 19.5925V16.7818H126.039V19.5925H123.798ZM128.354 19.5925V7.34931H129.561V19.5925H128.354ZM133.369 9.57378V19.5925H132.162V7.34931H133.162L141.198 17.5577V7.36656H142.405V19.5925H141.284L133.369 9.57378ZM146.22 9.57378V19.5925H145.013V7.34931H146.013L154.049 17.5577V7.36656H155.256V19.5925H154.135L146.22 9.57378ZM162.796 19.6787C161.934 19.6787 161.152 19.5063 160.451 19.1614C159.749 18.8166 159.146 18.351 158.64 17.7647C158.134 17.1669 157.743 16.5001 157.468 15.7644C157.192 15.0171 157.054 14.2526 157.054 13.4709C157.054 12.6547 157.197 11.8787 157.485 11.143C157.772 10.3957 158.175 9.73473 158.692 9.15993C159.221 8.57363 159.836 8.11379 160.537 7.78041C161.238 7.43553 161.997 7.26309 162.813 7.26309C163.675 7.26309 164.457 7.44128 165.158 7.79766C165.86 8.15403 166.457 8.63111 166.952 9.2289C167.458 9.8267 167.848 10.4935 168.124 11.2292C168.4 11.9649 168.538 12.7179 168.538 13.4882C168.538 14.3044 168.394 15.0861 168.107 15.8333C167.82 16.5691 167.417 17.2301 166.9 17.8164C166.383 18.3912 165.773 18.8453 165.072 19.1787C164.371 19.5121 163.612 19.6787 162.796 19.6787ZM158.261 13.4709C158.261 14.1377 158.37 14.7815 158.588 15.4022C158.807 16.0115 159.117 16.5576 159.52 17.0404C159.922 17.5118 160.399 17.8911 160.951 18.1785C161.514 18.4544 162.129 18.5924 162.796 18.5924C163.497 18.5924 164.124 18.4487 164.675 18.1613C165.239 17.8624 165.716 17.4715 166.107 16.9887C166.509 16.4944 166.814 15.9426 167.021 15.3333C167.228 14.724 167.331 14.1032 167.331 13.4709C167.331 12.8042 167.222 12.1661 167.003 11.5568C166.785 10.9476 166.469 10.4015 166.055 9.91866C165.653 9.43583 165.176 9.05646 164.624 8.78056C164.072 8.50466 163.463 8.36671 162.796 8.36671C162.106 8.36671 161.48 8.51041 160.916 8.79781C160.364 9.0852 159.887 9.47607 159.485 9.9704C159.094 10.4532 158.79 10.9993 158.571 11.6086C158.364 12.2179 158.261 12.8386 158.261 13.4709ZM169.822 7.34931L174.202 18.0923L178.564 7.34931H179.823L174.753 19.5925H173.65L168.563 7.34931H169.822ZM183.891 7.34931H184.909L189.995 19.5925H188.719L187.133 15.7644H181.632L180.063 19.5925H178.77L183.891 7.34931ZM186.857 14.816L184.391 8.76332L181.891 14.816H186.857ZM198.794 8.41844H194.431V19.5925H193.224V8.41844H188.861V7.34931H198.794V8.41844ZM200.158 19.5925V7.34931H201.366V19.5925H200.158ZM208.898 19.6787C208.036 19.6787 207.254 19.5063 206.553 19.1614C205.852 18.8166 205.248 18.351 204.743 17.7647C204.237 17.1669 203.846 16.5001 203.57 15.7644C203.294 15.0171 203.156 14.2526 203.156 13.4709C203.156 12.6547 203.3 11.8787 203.587 11.143C203.875 10.3957 204.277 9.73473 204.794 9.15993C205.323 8.57363 205.938 8.11379 206.639 7.78041C207.341 7.43553 208.099 7.26309 208.916 7.26309C209.778 7.26309 210.56 7.44128 211.261 7.79766C211.962 8.15403 212.56 8.63111 213.054 9.2289C213.56 9.8267 213.951 10.4935 214.227 11.2292C214.503 11.9649 214.641 12.7179 214.641 13.4882C214.641 14.3044 214.497 15.0861 214.21 15.8333C213.922 16.5691 213.52 17.2301 213.002 17.8164C212.485 18.3912 211.876 18.8453 211.175 19.1787C210.473 19.5121 209.715 19.6787 208.898 19.6787ZM204.363 13.4709C204.363 14.1377 204.472 14.7815 204.691 15.4022C204.909 16.0115 205.22 16.5576 205.622 17.0404C206.024 17.5118 206.501 17.8911 207.053 18.1785C207.617 18.4544 208.232 18.5924 208.898 18.5924C209.6 18.5924 210.226 18.4487 210.778 18.1613C211.341 17.8624 211.818 17.4715 212.209 16.9887C212.612 16.4944 212.916 15.9426 213.123 15.3333C213.33 14.724 213.434 14.1032 213.434 13.4709C213.434 12.8042 213.324 12.1661 213.106 11.5568C212.887 10.9476 212.571 10.4015 212.157 9.91866C211.755 9.43583 211.278 9.05646 210.726 8.78056C210.174 8.50466 209.565 8.36671 208.898 8.36671C208.209 8.36671 207.582 8.51041 207.019 8.79781C206.467 9.0852 205.99 9.47607 205.588 9.9704C205.197 10.4532 204.892 10.9993 204.674 11.6086C204.467 12.2179 204.363 12.8386 204.363 13.4709ZM217.654 9.57378V19.5925H216.447V7.34931H217.447L225.483 17.5577V7.36656H226.69V19.5925H225.569L217.654 9.57378ZM242.881 7.34931V19.5925H241.691V13.8675H234.432V19.5925H233.225V7.34931H234.432V12.7984H241.691V7.34931H242.881ZM250.47 19.6787C249.504 19.6787 248.688 19.5063 248.021 19.1614C247.354 18.8166 246.826 18.3567 246.435 17.7819C246.044 17.1956 245.756 16.5346 245.573 15.7989C245.4 15.0631 245.314 14.3044 245.314 13.5227V7.34931H246.504V13.5227C246.504 14.1549 246.567 14.7757 246.693 15.385C246.831 15.9943 247.05 16.5403 247.349 17.0232C247.648 17.506 248.05 17.8911 248.556 18.1785C249.062 18.4544 249.694 18.5924 250.453 18.5924C251.234 18.5924 251.878 18.4487 252.384 18.1613C252.901 17.8624 253.304 17.4715 253.591 16.9887C253.89 16.5059 254.103 15.9655 254.229 15.3678C254.355 14.7585 254.419 14.1434 254.419 13.5227V7.34931H255.626V13.5227C255.626 14.3389 255.534 15.1206 255.35 15.8678C255.166 16.6151 254.867 17.2703 254.453 17.8336C254.051 18.3969 253.522 18.8453 252.867 19.1787C252.211 19.5121 251.412 19.6787 250.47 19.6787ZM267.243 16.4369C267.243 17.0462 267.087 17.5922 266.777 18.0751C266.467 18.5464 266.047 18.92 265.518 19.1959C265.001 19.4603 264.432 19.5925 263.811 19.5925H258.034V7.34931H263.932C264.507 7.34931 265.001 7.50451 265.415 7.8149C265.84 8.1138 266.162 8.50466 266.38 8.98749C266.61 9.45882 266.725 9.95315 266.725 10.4705C266.725 11.0798 266.57 11.6431 266.26 12.1604C265.949 12.6777 265.518 13.0628 264.966 13.3157C265.668 13.5227 266.219 13.9078 266.622 14.4711C267.036 15.0344 267.243 15.6896 267.243 16.4369ZM266.036 16.23C266.036 15.8161 265.944 15.4367 265.76 15.0919C265.576 14.7355 265.323 14.4481 265.001 14.2297C264.691 14.0112 264.334 13.902 263.932 13.902H259.241V18.5406H263.811C264.225 18.5406 264.599 18.4314 264.932 18.213C265.265 17.9946 265.53 17.7129 265.725 17.3681C265.932 17.0117 266.036 16.6323 266.036 16.23ZM259.241 8.40119V12.9191H263.449C263.851 12.9191 264.208 12.8156 264.518 12.6087C264.828 12.3903 265.076 12.1086 265.26 11.7638C265.444 11.4189 265.535 11.051 265.535 10.6602C265.535 10.2463 265.449 9.87268 265.277 9.5393C265.104 9.19442 264.869 8.91851 264.57 8.71159C264.271 8.50466 263.932 8.40119 263.552 8.40119H259.241Z" fill="#404040"/>
<path d="M108.265 27.5573V24.2321H109.498V27.5573H108.265ZM107.574 25.2502L107.705 24.2321H108.956V25.2502H107.574ZM113.431 29.8925C112.84 29.8925 112.345 29.771 111.946 29.5282C111.554 29.2853 111.258 28.9242 111.059 28.4447C110.86 27.959 110.76 27.3456 110.76 26.6046V24.2321H111.984V26.5953C111.984 27.137 112.033 27.5791 112.133 27.9216C112.239 28.2579 112.395 28.507 112.6 28.6689C112.812 28.8308 113.083 28.9117 113.413 28.9117H113.45C113.799 28.9055 114.079 28.8245 114.291 28.6689C114.502 28.5132 114.655 28.2672 114.748 27.931C114.848 27.5885 114.898 27.1464 114.898 26.6046V24.2321H116.131V26.6046C116.131 27.3456 116.034 27.959 115.841 28.4447C115.648 28.9304 115.355 29.2916 114.963 29.5282C114.577 29.7648 114.082 29.8862 113.478 29.8925H113.431ZM111.488 27.6788L111.414 26.8848C111.787 26.9035 112.08 26.8475 112.292 26.7167C112.51 26.5859 112.662 26.3804 112.749 26.1002C112.843 25.82 112.89 25.4651 112.89 25.0354V24.2321H114.01V24.97C114.01 25.4122 113.964 25.8045 113.87 26.1469C113.783 26.4894 113.64 26.779 113.441 27.0156C113.248 27.246 112.989 27.4172 112.665 27.5293C112.348 27.6414 111.955 27.6912 111.488 27.6788ZM117.851 29.8364V24.2321H119.084V29.8364H117.851ZM117.16 25.2502L117.291 24.2321H118.664V25.2502H117.16ZM121.438 29.8364V25.8761C121.438 25.7204 121.419 25.599 121.382 25.5118C121.35 25.4184 121.294 25.353 121.213 25.3156C121.139 25.272 121.024 25.2502 120.868 25.2502H120.41L120.541 24.2321H121.195C121.718 24.2321 122.095 24.3629 122.325 24.6244C122.555 24.8797 122.671 25.2565 122.671 25.7546V29.8364H121.438ZM120.261 29.8364V28.8183H122.026V29.8364H120.261ZM127.106 29.8364C126.882 29.3632 126.661 28.9179 126.443 28.5007C126.231 28.0835 126.019 27.6819 125.808 27.2958C125.596 26.9097 125.378 26.5392 125.154 26.1843C125.048 26.0162 124.933 25.8387 124.808 25.6519C124.684 25.4589 124.562 25.272 124.444 25.0915C124.326 24.9109 124.217 24.7459 124.117 24.5964C124.017 24.447 123.933 24.3255 123.865 24.2321H125.266C125.359 24.3754 125.459 24.5404 125.565 24.7272C125.677 24.9078 125.792 25.0946 125.91 25.2876C126.029 25.4806 126.144 25.6706 126.256 25.8574C126.48 26.2435 126.714 26.6544 126.957 27.0903C127.199 27.5262 127.449 27.9777 127.704 28.4447C127.959 28.9055 128.205 29.3694 128.442 29.8364H127.106ZM123.725 29.8364L123.93 28.015C123.968 27.6539 124.045 27.3363 124.164 27.0623C124.288 26.7883 124.46 26.5579 124.678 26.3711C124.902 26.1781 125.179 26.0255 125.509 25.9134L125.798 26.6046C125.649 26.6669 125.527 26.7665 125.434 26.9035C125.341 27.0343 125.266 27.1993 125.21 27.3986C125.16 27.5916 125.12 27.8189 125.088 28.0804L124.92 29.8364H123.725ZM126.742 27.5293L126.434 26.8475C126.583 26.7914 126.707 26.698 126.807 26.5673C126.907 26.4303 126.985 26.2652 127.041 26.0722C127.097 25.8792 127.134 25.6737 127.153 25.4557L127.246 24.2321H128.442L128.33 25.5211C128.298 25.8512 128.221 26.1532 128.096 26.4271C127.972 26.7011 127.794 26.9315 127.564 27.1183C127.34 27.3052 127.066 27.4421 126.742 27.5293ZM132.539 29.8364V26.1656C132.539 25.8605 132.483 25.6332 132.371 25.4838C132.259 25.3281 132.06 25.2502 131.773 25.2502H129.457L129.597 24.2321H131.839C132.511 24.2321 133 24.394 133.305 24.7178C133.617 25.0354 133.772 25.5087 133.772 26.1376V29.8364H132.539ZM129.56 29.8364V26.614L130.793 26.5392V29.8364H129.56ZM138.115 31.5831V24.2321H139.348V31.5084L138.115 31.5831ZM137.434 25.2502L137.564 24.2321H138.928V25.2502H137.434ZM141.244 29.8364V24.2321H142.477V29.8364H141.244ZM140.553 25.2502L140.684 24.2321H142.057V25.2502H140.553ZM146.858 29.8364V26.1656C146.858 25.8605 146.802 25.6332 146.689 25.4838C146.577 25.3281 146.378 25.2502 146.092 25.2502H143.775L143.915 24.2321H146.157C146.83 24.2321 147.318 24.394 147.624 24.7178C147.935 25.0354 148.091 25.5087 148.091 26.1376V29.8364H146.858ZM143.878 29.8364V26.614L145.111 26.5392V29.8364H143.878ZM152.412 29.8364V26.1656C152.412 25.8605 152.356 25.6332 152.244 25.4838C152.132 25.3281 151.933 25.2502 151.646 25.2502H149.33L149.47 24.2321H151.712C152.384 24.2321 152.873 24.394 153.178 24.7178C153.489 25.0354 153.645 25.5087 153.645 26.1376V29.8364H152.412ZM149.432 29.8364V26.614L150.665 26.5392V29.8364H149.432ZM159.996 24.2321C160.669 24.2321 161.17 24.394 161.5 24.7178C161.83 25.0354 161.995 25.5087 161.995 26.1376V29.8364H160.762V26.1656C160.762 25.8605 160.694 25.6332 160.557 25.4838C160.426 25.3281 160.214 25.2502 159.922 25.2502H159.034C159.003 25.3001 158.969 25.3904 158.932 25.5211C158.9 25.6519 158.885 25.8636 158.885 26.1563V29.8364H157.652V26.5206C157.652 26.259 157.677 26.0255 157.727 25.82C157.776 25.6083 157.867 25.4277 157.998 25.2783L157.885 25.2129V24.2321H159.996ZM157.325 25.2502L157.456 24.2321H159.417V25.2502H157.325ZM163.78 29.8364V24.2321H165.013V29.8364H163.78ZM163.089 25.2502L163.22 24.2321H164.593V25.2502H163.089ZM169.805 29.8364V26.1656C169.805 25.8605 169.749 25.6332 169.637 25.4838C169.525 25.3281 169.322 25.2502 169.03 25.2502H166.928V24.2321H169.104C169.777 24.2321 170.266 24.394 170.571 24.7178C170.882 25.0354 171.038 25.5087 171.038 26.1376V29.8364H169.805ZM166.097 29.8364L166.237 28.8183H166.508C166.638 28.8183 166.732 28.7934 166.788 28.7436C166.844 28.6938 166.881 28.619 166.9 28.5194C166.919 28.4136 166.928 28.2859 166.928 28.1365V24.4843H168.161V28.1271C168.161 28.6813 168.052 29.1048 167.834 29.3974C167.616 29.6901 167.255 29.8364 166.751 29.8364H166.097ZM166.209 25.2502L166.349 24.2321H167.685V25.2502H166.209ZM172.654 27.5573V24.2321H173.887V27.5573H172.654ZM171.963 25.2502L172.094 24.2321H173.345V25.2502H171.963ZM175.242 29.8364V28.8183H176.84C177.157 28.8183 177.419 28.7436 177.624 28.5941C177.83 28.4447 177.982 28.233 178.082 27.959C178.188 27.6788 178.241 27.355 178.241 26.9876C178.241 26.4147 178.147 25.9664 177.96 25.6425C177.78 25.3187 177.5 25.1568 177.12 25.1568C176.827 25.1568 176.603 25.2471 176.447 25.4277C176.298 25.6021 176.223 25.8325 176.223 26.1189C176.223 26.3182 176.267 26.4925 176.354 26.642C176.441 26.7852 176.566 26.8817 176.727 26.9315C176.777 26.9502 176.824 26.9658 176.868 26.9782C176.917 26.9907 176.964 26.9969 177.008 26.9969L176.914 27.8936C176.846 27.8998 176.762 27.8998 176.662 27.8936C176.562 27.8874 176.444 27.8687 176.307 27.8376C175.909 27.7566 175.597 27.5605 175.373 27.2491C175.149 26.9378 175.037 26.5486 175.037 26.0816C175.037 25.6893 175.118 25.3499 175.28 25.0634C175.442 24.7708 175.678 24.5435 175.99 24.3816C176.301 24.2197 176.678 24.1387 177.12 24.1387C177.879 24.1387 178.465 24.3909 178.876 24.8953C179.293 25.3997 179.502 26.0971 179.502 26.9876C179.502 27.5667 179.396 28.0711 179.184 28.5007C178.972 28.9304 178.658 29.2604 178.241 29.4908C177.83 29.7212 177.325 29.8364 176.727 29.8364H175.242ZM186.604 29.8364V26.1656C186.604 25.8605 186.548 25.6332 186.436 25.4838C186.324 25.3281 186.122 25.2502 185.829 25.2502H183.727V24.2321H185.904C186.576 24.2321 187.065 24.394 187.37 24.7178C187.682 25.0354 187.837 25.5087 187.837 26.1376V29.8364H186.604ZM182.896 29.8364L183.036 28.8183H183.307C183.438 28.8183 183.531 28.7934 183.587 28.7436C183.643 28.6938 183.681 28.619 183.699 28.5194C183.718 28.4136 183.727 28.2859 183.727 28.1365V24.4843H184.96V28.1271C184.96 28.6813 184.851 29.1048 184.634 29.3974C184.416 29.6901 184.054 29.8364 183.55 29.8364H182.896ZM183.008 25.2502L183.148 24.2321H184.484V25.2502H183.008ZM189.627 29.8364V24.2321H190.86V29.8364H189.627ZM188.936 25.2502L189.067 24.2321H190.44V25.2502H188.936ZM192.158 29.8364L192.663 26.3898L192.028 24.2321H193.261L193.513 25.409H193.55C193.606 25.216 193.681 25.0416 193.774 24.886C193.868 24.7241 193.98 24.5902 194.111 24.4843C194.241 24.3722 194.391 24.2882 194.559 24.2321C194.727 24.1761 194.92 24.1481 195.138 24.1481C195.537 24.1481 195.876 24.2508 196.156 24.4563C196.443 24.6618 196.66 24.9669 196.81 25.3717C196.966 25.7702 197.043 26.2652 197.043 26.8568V26.9782C197.043 27.5823 196.956 28.0991 196.782 28.5288C196.608 28.9522 196.352 29.276 196.016 29.5002C195.686 29.7243 195.275 29.8364 194.783 29.8364H194.129L194.251 28.8183H194.727C195.076 28.8183 195.343 28.6564 195.53 28.3326C195.717 28.0088 195.811 27.5573 195.811 26.9782V26.8568C195.811 26.4832 195.77 26.1718 195.689 25.9228C195.614 25.6737 195.505 25.4869 195.362 25.3623C195.225 25.2378 195.057 25.1755 194.858 25.1755C194.708 25.1755 194.574 25.2098 194.456 25.2783C194.344 25.3405 194.244 25.4371 194.157 25.5678C194.076 25.6924 194.008 25.8449 193.952 26.0255C193.896 26.1999 193.852 26.4022 193.821 26.6326L193.41 29.8364H192.158ZM199.05 24.2321H201.768L201.628 24.97L200.265 29.8364H199.022L200.358 25.2502H197.817V22.8684L199.05 22.7377V24.2321ZM203.289 29.8364V24.2321H204.522V29.8364H203.289ZM202.598 25.2502L202.729 24.2321H204.102V25.2502H202.598ZM205.606 30.182L205.596 29.1639L207.577 28.7342C207.776 28.6907 207.944 28.619 208.081 28.5194C208.224 28.4198 208.339 28.2797 208.427 28.0991C208.514 27.9185 208.582 27.6788 208.632 27.3799C208.688 27.081 208.729 26.7105 208.754 26.2684L208.903 24.2321H210.136L210.005 26.0816C209.974 26.5361 209.927 26.944 209.865 27.3052C209.803 27.6601 209.712 27.9746 209.594 28.2485C209.482 28.5225 209.336 28.756 209.155 28.9491C208.981 29.1421 208.766 29.304 208.511 29.4348C208.262 29.5593 207.966 29.659 207.623 29.7337L205.606 30.182ZM206.764 29.3601L205.793 24.3162L206.998 24.1668L207.661 27.7815C207.692 27.9372 207.698 28.1084 207.679 28.2952C207.667 28.4821 207.623 28.6658 207.549 28.8463C207.48 29.0269 207.377 29.1982 207.24 29.3601H206.764ZM213.229 29.8364V26.1656C213.229 25.8605 213.173 25.6332 213.061 25.4838C212.949 25.3281 212.75 25.2502 212.463 25.2502H211.137L211.268 24.2321H212.529C213.207 24.2321 213.699 24.394 214.005 24.7178C214.31 25.0354 214.462 25.5087 214.462 26.1376V28.9211C214.425 29.0767 214.353 29.2324 214.247 29.3881C214.148 29.5438 214.042 29.6932 213.93 29.8364H213.229ZM210.969 29.8364V28.8183H215.069L214.939 29.8364H210.969ZM221.251 29.8925C220.659 29.8925 220.164 29.771 219.766 29.5282C219.374 29.2853 219.078 28.9242 218.879 28.4447C218.679 27.959 218.58 27.3456 218.58 26.6046V24.2321H219.803V26.5953C219.803 27.137 219.853 27.5791 219.953 27.9216C220.059 28.2579 220.214 28.507 220.42 28.6689C220.631 28.8308 220.902 28.9117 221.232 28.9117H221.27C221.618 28.9055 221.899 28.8245 222.11 28.6689C222.322 28.5132 222.475 28.2672 222.568 27.931C222.668 27.5885 222.717 27.1464 222.717 26.6046V24.2321H223.95V26.6046C223.95 27.3456 223.854 27.959 223.661 28.4447C223.468 28.9304 223.175 29.2916 222.783 29.5282C222.397 29.7648 221.902 29.8862 221.298 29.8925H221.251ZM219.308 27.6788L219.233 26.8848C219.607 26.9035 219.9 26.8475 220.111 26.7167C220.329 26.5859 220.482 26.3804 220.569 26.1002C220.663 25.82 220.709 25.4651 220.709 25.0354V24.2321H221.83V24.97C221.83 25.4122 221.783 25.8045 221.69 26.1469C221.603 26.4894 221.46 26.779 221.26 27.0156C221.067 27.246 220.809 27.4172 220.485 27.5293C220.168 27.6414 219.775 27.6912 219.308 27.6788ZM224.914 25.2502V24.2321H228.884L228.753 25.2502H224.914ZM226.866 29.8364V26.0909C226.866 26.0099 226.876 25.9165 226.894 25.8107C226.919 25.6986 226.96 25.5927 227.016 25.4931C227.078 25.3872 227.159 25.3063 227.259 25.2502H228.239C228.171 25.3001 228.13 25.3748 228.118 25.4744C228.105 25.5741 228.099 25.6861 228.099 25.8107V29.8364H226.866ZM232.348 24.2321C233.02 24.2321 233.522 24.394 233.852 24.7178C234.182 25.0354 234.347 25.5087 234.347 26.1376V29.8364H233.114V26.1656C233.114 25.8605 233.045 25.6332 232.908 25.4838C232.778 25.3281 232.566 25.2502 232.273 25.2502H231.386C231.355 25.3001 231.32 25.3904 231.283 25.5211C231.252 25.6519 231.236 25.8636 231.236 26.1563V29.8364H230.003V26.5206C230.003 26.259 230.028 26.0255 230.078 25.82C230.128 25.6083 230.218 25.4277 230.349 25.2783L230.237 25.2129V24.2321H232.348ZM229.676 25.2502L229.807 24.2321H231.769V25.2502H229.676ZM238.234 29.8925C237.642 29.8925 237.147 29.771 236.748 29.5282C236.356 29.2853 236.06 28.9242 235.861 28.4447C235.662 27.959 235.562 27.3456 235.562 26.6046V24.2321H236.786V26.5953C236.786 27.137 236.836 27.5791 236.935 27.9216C237.041 28.2579 237.197 28.507 237.402 28.6689C237.614 28.8308 237.885 28.9117 238.215 28.9117H238.252C238.601 28.9055 238.881 28.8245 239.093 28.6689C239.305 28.5132 239.457 28.2672 239.551 27.931C239.65 27.5885 239.7 27.1464 239.7 26.6046V24.2321H240.933V26.6046C240.933 27.3456 240.836 27.959 240.643 28.4447C240.45 28.9304 240.158 29.2916 239.765 29.5282C239.379 29.7648 238.884 29.8862 238.28 29.8925H238.234ZM236.291 27.6788L236.216 26.8848C236.59 26.9035 236.882 26.8475 237.094 26.7167C237.312 26.5859 237.464 26.3804 237.552 26.1002C237.645 25.82 237.692 25.4651 237.692 25.0354V24.2321H238.813V24.97C238.813 25.4122 238.766 25.8045 238.673 26.1469C238.585 26.4894 238.442 26.779 238.243 27.0156C238.05 27.246 237.791 27.4172 237.468 27.5293C237.15 27.6414 236.758 27.6912 236.291 27.6788ZM247.747 29.8364V26.1656C247.747 25.8605 247.691 25.6332 247.579 25.4838C247.467 25.3281 247.267 25.2502 246.981 25.2502H244.664L244.805 24.2321H247.046C247.719 24.2321 248.208 24.394 248.513 24.7178C248.824 25.0354 248.98 25.5087 248.98 26.1376V29.8364H247.747ZM244.767 29.8364V26.614L246 26.5392V29.8364H244.767ZM250.219 29.8364L250.723 26.3898L250.088 24.2321H251.321L251.573 25.409H251.611C251.667 25.216 251.741 25.0416 251.835 24.886C251.928 24.7241 252.04 24.5902 252.171 24.4843C252.302 24.3722 252.451 24.2882 252.619 24.2321C252.787 24.1761 252.981 24.1481 253.198 24.1481C253.597 24.1481 253.936 24.2508 254.217 24.4563C254.503 24.6618 254.721 24.9669 254.87 25.3717C255.026 25.7702 255.104 26.2652 255.104 26.8568V26.9782C255.104 27.5823 255.017 28.0991 254.842 28.5288C254.668 28.9522 254.413 29.276 254.076 29.5002C253.746 29.7243 253.335 29.8364 252.844 29.8364H252.19L252.311 28.8183H252.787C253.136 28.8183 253.404 28.6564 253.591 28.3326C253.778 28.0088 253.871 27.5573 253.871 26.9782V26.8568C253.871 26.4832 253.831 26.1718 253.75 25.9228C253.675 25.6737 253.566 25.4869 253.423 25.3623C253.286 25.2378 253.118 25.1755 252.918 25.1755C252.769 25.1755 252.635 25.2098 252.517 25.2783C252.405 25.3405 252.305 25.4371 252.218 25.5678C252.137 25.6924 252.068 25.8449 252.012 26.0255C251.956 26.1999 251.913 26.4022 251.881 26.6326L251.47 29.8364H250.219ZM259.683 24.2321H262.401L262.26 24.97L260.897 29.8364H259.654L260.99 25.2502H258.45V22.8684L259.683 22.7377V24.2321ZM263.202 29.8364V28.8183H264.473C264.84 28.8183 265.108 28.6751 265.276 28.3887C265.45 28.1022 265.538 27.6663 265.538 27.081C265.538 26.4583 265.45 25.9975 265.276 25.6986C265.108 25.3997 264.84 25.2502 264.473 25.2502H263.202L263.333 24.2321H264.473C265.257 24.2321 265.84 24.4688 266.219 24.942C266.605 25.409 266.798 26.122 266.798 27.081C266.798 28.0088 266.605 28.7 266.219 29.1546C265.84 29.6091 265.257 29.8364 264.473 29.8364H263.202Z" fill="#CC4B65"/>
</svg>
