<svg width="97" height="41" viewBox="0 0 97 41" fill="none" xmlns="http://www.w3.org/2000/svg">
<path d="M63.7207 0.181641V10.1628H77.0289L73.7018 0.181641H63.7207Z" fill="#8535D9"/>
<path d="M77.0293 10.1675L80.3607 20.1486H97.0002V10.1675H77.0293Z" fill="#8535D9"/>
<path d="M63.7207 20.1484V30.1296H83.6873L80.3603 20.1484H63.7207Z" fill="#8535D9"/>
<path d="M83.6875 30.1338L87.0189 40.1149H97V30.1338H83.6875Z" fill="#8535D9"/>
<path d="M2.46484 0.164517H5.76589C6.11528 0.136359 6.46529 0.210702 6.77307 0.37844C7.08085 0.546179 7.33303 0.800032 7.49873 1.10891C7.67346 1.49889 7.74934 1.92592 7.71967 2.35222V5.75724H6.3204V2.33056C6.3204 1.69808 6.01282 1.35584 5.42366 1.35584H3.85978V5.77024H2.46484V0.164517Z" fill="black"/>
<path d="M9.30869 1.33873H8.67188V0.177734H10.7253V5.77046H9.30869V1.33873Z" fill="black"/>
<path d="M12.0598 4.61367H13.5371C15.0533 4.61367 15.6771 4.18046 15.6771 2.79853C15.6771 1.69818 15.1702 1.174 14.2432 1.174C13.4677 1.174 12.9912 1.54656 12.9912 2.10973C12.9912 2.58192 13.3291 2.79853 13.745 2.87217V4.01151C13.0432 4.01151 11.6699 3.62162 11.6699 2.16604C11.6699 0.866417 12.7399 0 14.3472 0C16.1103 0 17.046 0.948727 17.046 2.71189C17.046 4.68732 15.9067 5.74435 13.7623 5.74435H12.0598V4.61367Z" fill="black"/>
<path d="M17.5673 5.72688V4.62653C17.7184 4.65738 17.8722 4.67334 18.0265 4.67418C18.4857 4.67418 18.8106 4.52689 18.8106 3.70813V1.33848H17.5586V0.164482H21.8647C22.2137 0.139077 22.5626 0.214606 22.8699 0.382058C23.1771 0.54951 23.4297 0.801816 23.5975 1.10888C23.7672 1.49564 23.84 1.91793 23.8098 2.33919V5.75721H22.4149V2.33053C22.4149 1.69804 22.1246 1.35147 21.5484 1.35147H20.2098V3.88574C20.2098 5.47129 19.3434 5.83085 18.3514 5.83085C18.0861 5.8338 17.8218 5.7973 17.5673 5.72255" fill="black"/>
<path d="M26.8555 5.72688V4.62653C27.0066 4.65738 27.1604 4.67334 27.3147 4.67418C27.7739 4.67418 28.0988 4.52689 28.0988 3.70813V1.33848H26.8555V0.164482H31.1616C31.5106 0.139077 31.8595 0.214606 32.1668 0.382058C32.474 0.54951 32.7266 0.801816 32.8944 1.10888C33.0626 1.49601 33.134 1.91829 33.1023 2.33919V5.75721H31.6901V2.33053C31.6901 1.69804 31.3955 1.35147 30.802 1.35147H29.5024V3.88574C29.5024 5.47129 28.636 5.83085 27.6482 5.83085C27.3881 5.83931 27.1282 5.80864 26.8771 5.73988" fill="black"/>
<path d="M33.9453 5.72688V4.62653C34.0873 4.65984 34.2327 4.67584 34.3785 4.67418C34.8421 4.67418 35.1626 4.52689 35.1626 3.70813V1.33848H33.9453V0.164482H38.2297C38.5787 0.139077 38.9277 0.214606 39.2349 0.382058C39.5422 0.54951 39.7948 0.801816 39.9626 1.10888C40.1293 1.49638 40.1992 1.91864 40.1662 2.33919V5.75721H38.7799V2.33053C38.7799 1.69804 38.4853 1.35147 37.9135 1.35147H36.6139V3.88574C36.6139 5.47129 35.7475 5.83085 34.7597 5.83085C34.4996 5.83931 34.2397 5.80864 33.9886 5.73988" fill="black"/>
<path d="M41.7603 1.33873H41.1191V0.177734H43.1726V5.77046H41.7603V1.33873Z" fill="black"/>
<path d="M46.9388 5.81794V4.65261C47.1055 4.68703 47.2754 4.70445 47.4456 4.70459C48.4593 4.70459 48.8882 4.09377 48.8882 2.97176C48.8882 1.84975 48.455 1.23892 47.6622 1.23892C47.0168 1.23892 46.6485 1.67213 46.4536 2.28729C46.1891 3.08494 46.0289 3.91347 45.9771 4.75224L45.8601 5.83093H44.4868C44.5735 4.81722 44.7901 3.17536 44.9937 2.10101L43.9453 0.164564H45.5179L46.029 0.996325C46.235 0.698677 46.5131 0.458241 46.8375 0.297594C47.1618 0.136946 47.5216 0.0613566 47.8832 0.0779221C49.3344 0.0779221 50.3135 1.03965 50.3135 2.88078C50.3135 4.72192 49.3648 5.91324 47.5929 5.91324C47.378 5.91777 47.1636 5.89151 46.9561 5.83527" fill="black"/>
<path d="M50.8975 4.60494H52.5264L50.7676 0.164551H52.2881L53.9343 4.44465C54.0897 4.35684 54.2206 4.23158 54.3152 4.08025C54.4098 3.92893 54.465 3.75635 54.4758 3.57824C54.6421 2.76025 54.7147 1.92602 54.6924 1.09162V0.164551H56.1264V1.21292C56.1228 1.85874 56.0823 2.50383 56.0051 3.14503C55.7235 4.9775 54.8267 5.77027 52.6174 5.77027H50.8845L50.8975 4.60494Z" fill="black"/>
<path d="M2.53427 15.0538L3.66928 11.8091L4.81295 15.0668L2.53427 15.0538ZM2.77254 10.5225L0 17.926H1.52056L2.11839 16.1932H5.22016L5.85698 17.926H7.37754L4.61367 10.5225H2.77254Z" fill="black"/>
<path d="M12.0333 15.2101C12.0333 14.1964 11.5265 13.4773 10.6774 13.4773C9.82832 13.4773 9.2998 14.1791 9.2998 15.2101C9.2998 16.2411 9.84564 16.9429 10.6687 16.9429C11.4918 16.9429 12.0204 16.2671 12.0204 15.2101M7.97852 12.5112H8.89692L9.20883 13.0744C9.43016 12.8391 9.69832 12.6528 9.99602 12.5275C10.2937 12.4021 10.6144 12.3405 10.9373 12.3466C12.3972 12.3466 13.3936 13.4816 13.3936 15.1668C13.3936 16.852 12.3323 18.0866 10.7944 18.0866C10.2845 18.1036 9.78329 17.9513 9.36912 17.6534V20.3523H7.97852V12.5112Z" fill="black"/>
<path d="M18.4418 15.2099C18.4418 14.1962 17.9349 13.4771 17.0902 13.4771C16.2454 13.4771 15.7039 14.1919 15.7039 15.2012C15.7039 16.2106 16.2454 16.9341 17.0685 16.9341C17.8916 16.9341 18.4201 16.2583 18.4201 15.2012M14.4043 12.4937H15.3184L15.6303 13.0569C15.8543 12.825 16.1239 12.6422 16.4222 12.5199C16.7205 12.3976 17.0408 12.3385 17.3631 12.3464C18.8187 12.3464 19.8194 13.4814 19.8194 15.1666C19.8194 16.8518 18.758 18.0864 17.2202 18.0864C16.7088 18.1041 16.2061 17.9517 15.7906 17.6532V20.3521H14.4043V12.4937Z" fill="black"/>
<path d="M22.1552 9.98096H20.7949V17.939H22.1552V9.98096Z" fill="black"/>
<path d="M27.192 14.699C27.1587 14.3562 26.9989 14.038 26.7438 13.8065C26.4888 13.575 26.1567 13.4468 25.8122 13.4468C25.4678 13.4468 25.1356 13.575 24.8806 13.8065C24.6255 14.038 24.4658 14.3562 24.4324 14.699H27.192ZM23.1415 15.2838C23.1415 13.5207 24.2418 12.3467 25.8534 12.3467C27.4649 12.3467 28.4526 13.421 28.4526 15.1279C28.4533 15.2973 28.4432 15.4666 28.4223 15.6347H24.3934C24.3912 15.8151 24.4244 15.9941 24.4913 16.1616C24.5582 16.3291 24.6575 16.4818 24.7834 16.6109C24.9093 16.74 25.0594 16.8431 25.2252 16.9142C25.3909 16.9853 25.569 17.0231 25.7494 17.0253H25.784C26.028 17.0299 26.2683 16.9656 26.4774 16.84C26.6866 16.7143 26.8561 16.5324 26.9667 16.3149H28.2663C28.1009 16.8505 27.7622 17.316 27.3035 17.6382C26.8448 17.9605 26.2921 18.1213 25.7321 18.0954C24.1768 18.0954 23.1328 17.0123 23.1328 15.3055" fill="black"/>
<path d="M29.2769 17.6702V16.3316C29.8134 16.7602 30.475 17.0021 31.1614 17.0204C31.7029 17.0204 32.0278 16.8341 32.0278 16.4919C32.0278 15.9287 31.1224 15.9071 30.3903 15.6601C29.5672 15.3742 29.1816 14.8933 29.1816 14.1396C29.1816 13.0262 29.9744 12.3721 31.261 12.3721C31.8616 12.3741 32.454 12.5118 32.9939 12.775V14.0746C32.5203 13.6843 31.9307 13.4619 31.3174 13.4421C30.8105 13.4421 30.5246 13.65 30.5246 13.9489C30.5246 14.5208 31.365 14.5598 32.1448 14.8154C32.9246 15.071 33.3578 15.5042 33.3578 16.2406C33.3578 17.367 32.4914 18.0644 31.1397 18.0644C30.4909 18.0543 29.8515 17.9067 29.264 17.6312" fill="black"/>
<path d="M38.0001 14.699C37.9668 14.3562 37.8071 14.038 37.552 13.8065C37.2969 13.575 36.9648 13.4468 36.6204 13.4468C36.2759 13.4468 35.9438 13.575 35.6887 13.8065C35.4337 14.038 35.2739 14.3562 35.2406 14.699H38.0001ZM33.9453 15.2838C33.9453 13.5207 35.05 12.3467 36.6659 12.3467C38.2817 12.3467 39.2651 13.421 39.2651 15.1279C39.2665 15.2975 39.2549 15.4669 39.2305 15.6347H35.1973C35.1938 15.9986 35.3344 16.3491 35.5885 16.6096C35.8425 16.8702 36.1894 17.0196 36.5532 17.0253H36.5879C36.8362 17.0348 37.082 16.973 37.2962 16.8471C37.5104 16.7211 37.6841 16.5364 37.7965 16.3149H39.0962C38.93 16.8501 38.5912 17.3151 38.1327 17.6373C37.6741 17.9595 37.1217 18.1205 36.5619 18.0954C35.011 18.0954 33.9626 17.0123 33.9626 15.3055" fill="black"/>
<path d="M44.0755 14.699C44.0705 14.526 44.031 14.3558 43.9594 14.1983C43.8877 14.0408 43.7854 13.8991 43.6583 13.7817C43.5312 13.6643 43.3819 13.5734 43.2192 13.5145C43.0565 13.4555 42.8837 13.4296 42.7109 13.4384C42.537 13.4272 42.3627 13.4504 42.1979 13.5066C42.033 13.5629 41.8809 13.651 41.7502 13.7661C41.6194 13.8812 41.5126 14.0209 41.4359 14.1772C41.3591 14.3336 41.314 14.5035 41.3029 14.6773L44.0755 14.699ZM40.0293 15.2838C40.0293 13.5207 41.134 12.3467 42.7455 12.3467C44.3571 12.3467 45.3448 13.421 45.3448 15.1279C45.3455 15.2973 45.3353 15.4666 45.3144 15.6347H41.2639C41.2622 15.8156 41.2962 15.9951 41.3638 16.1629C41.4315 16.3307 41.5315 16.4835 41.6582 16.6127C41.7849 16.7418 41.9359 16.8447 42.1023 16.9155C42.2688 16.9863 42.4476 17.0236 42.6285 17.0253H42.6589C42.9072 17.0384 43.1539 16.978 43.3681 16.8516C43.5823 16.7253 43.7545 16.5386 43.8632 16.3149H45.1628C44.9974 16.8505 44.6587 17.316 44.2 17.6382C43.7413 17.9605 43.1885 18.1213 42.6285 18.0954C41.0777 18.0954 40.0293 17.0123 40.0293 15.3055" fill="black"/>
<path d="M50.1624 15.2055C50.1624 14.1658 49.6208 13.4943 48.8194 13.4943C48.018 13.4943 47.4461 14.1961 47.4461 15.2271C47.4461 16.2582 47.9833 16.9599 48.7891 16.9599C49.5949 16.9599 50.1624 16.2278 50.1624 15.2271M51.462 10.0026V17.926H50.5436L50.236 17.3758C50.0096 17.6036 49.7393 17.783 49.4414 17.9029C49.1434 18.0228 48.8242 18.0808 48.5032 18.0733C47.0476 18.0733 46.0469 16.947 46.0469 15.2618C46.0469 13.5766 47.1082 12.3333 48.6461 12.3333C49.1562 12.3249 49.6561 12.4764 50.0757 12.7665V9.98096L51.462 10.0026Z" fill="black"/>
<path d="M52.5484 17.6702V16.3316C53.0858 16.7586 53.7469 17.0002 54.4329 17.0204C54.9744 17.0204 55.2993 16.8341 55.2993 16.4919C55.2993 15.9287 54.3896 15.9071 53.6618 15.6601C52.8257 15.3742 52.4531 14.8977 52.4531 14.1396C52.4531 13.0262 53.2459 12.3721 54.5412 12.3721C55.1419 12.3732 55.7344 12.511 56.274 12.775V14.0746C55.7991 13.6837 55.208 13.4613 54.5932 13.4421C54.0907 13.4421 53.8047 13.65 53.8047 13.9489C53.8047 14.5208 54.6452 14.5598 55.4336 14.8154C56.222 15.071 56.6379 15.5042 56.6379 16.2406C56.6379 17.367 55.7715 18.0644 54.4199 18.0644C53.771 18.0543 53.1317 17.9067 52.5441 17.6312" fill="black"/>
<path d="M30.9088 26.4429C30.5101 26.5243 30.1199 26.6432 29.7435 26.7981C29.563 26.8802 29.3929 26.9835 29.2367 27.1057C29.1509 27.1696 29.0811 27.2527 29.033 27.3483C29.0127 27.3811 28.9991 27.4177 28.9931 27.4559C28.9871 27.4941 28.9888 27.5331 28.9981 27.5707C29.0074 27.6082 29.0241 27.6435 29.0472 27.6745C29.0703 27.7055 29.0994 27.7315 29.1327 27.7511H29.163C29.2623 27.804 29.3689 27.8419 29.4792 27.8638C29.8633 27.9237 30.2536 27.9339 30.6402 27.8941L30.9088 27.8898V26.4429ZM40.0799 28.0934C40.5661 27.7502 40.9859 27.3216 41.3188 26.8284C40.812 26.4818 39.1528 26.4342 38.7196 26.7721L40.0755 28.0717M45.3087 28.5049L45.404 28.5526C45.7029 28.6392 45.9975 28.7345 46.2964 28.8082C46.6736 28.9083 47.0629 28.955 47.4531 28.9468C47.5484 28.9468 47.6047 28.9165 47.609 28.8168V28.297C47.5917 28.0201 47.4921 27.7546 47.3231 27.5345C47.2449 27.4369 47.1481 27.3557 47.0383 27.2956C46.9285 27.2356 46.808 27.1978 46.6836 27.1845C46.5591 27.1712 46.4333 27.1827 46.3133 27.2182C46.1934 27.2537 46.0816 27.3127 45.9845 27.3916C45.942 27.4269 45.9015 27.4645 45.8632 27.5042C45.6863 27.7306 45.5406 27.9798 45.43 28.245C45.3867 28.336 45.352 28.4226 45.3087 28.5179M50.9058 27.1013V25.767C51.0519 25.7522 51.1968 25.7262 51.339 25.6891C52.0918 25.5503 52.8685 25.6284 53.5786 25.9143C54.0119 26.0963 54.4451 26.3086 54.8783 26.5165C55.3851 26.7764 55.892 27.0234 56.3988 27.3006C56.4197 27.3082 56.4374 27.3226 56.4492 27.3414C56.461 27.3603 56.4661 27.3825 56.4638 27.4046V28.1627C56.464 28.1812 56.4598 28.1995 56.4515 28.2161C56.4432 28.2327 56.4311 28.247 56.4162 28.258C55.558 28.852 54.6315 29.3407 53.6566 29.7136C52.8928 29.9869 52.0894 30.1333 51.2783 30.1468H49.5845C49.1784 30.1384 48.7814 30.0249 48.4321 29.8175C48.4201 29.8111 48.4067 29.8077 48.3931 29.8077C48.3795 29.8077 48.3661 29.8111 48.3542 29.8175C48.2001 29.9485 48.0216 30.0477 47.8291 30.1094C47.6365 30.1711 47.4336 30.1941 47.2321 30.1771C46.4164 30.1676 45.6107 29.9953 44.8625 29.6703C44.8335 29.653 44.7993 29.6466 44.766 29.6521C44.7327 29.6577 44.7024 29.6749 44.6805 29.7006C44.3641 29.9554 43.9769 30.1066 43.5715 30.1338C42.7902 30.2099 42.0024 30.1837 41.2279 30.0558C40.8135 29.9832 40.4235 29.809 40.0929 29.549C40.0736 29.5307 40.048 29.5205 40.0214 29.5205C39.9948 29.5205 39.9692 29.5307 39.9499 29.549C39.4645 29.8867 38.8943 30.0818 38.3037 30.1121C37.8705 30.1121 37.407 30.1555 36.9608 30.1555C36.5467 30.1738 36.1331 30.1105 35.7434 29.9692C35.5598 29.9031 35.3919 29.7997 35.2502 29.6655C35.1085 29.5313 34.9962 29.3692 34.9203 29.1894C34.8119 29.4319 34.6459 29.6442 34.4368 29.808C34.2277 29.9718 33.9817 30.0822 33.7204 30.1295C33.3335 30.2154 32.9342 30.23 32.542 30.1728C32.2388 30.1575 31.9427 30.0746 31.6756 29.9302C31.4418 29.7955 31.251 29.5972 31.1254 29.3583C31.1155 29.3288 31.0949 29.304 31.0677 29.2888C31.0404 29.2736 31.0085 29.269 30.9782 29.276C30.6316 29.276 30.2764 29.3107 29.9255 29.3064C29.4905 29.3015 29.0624 29.1978 28.6735 29.0031C28.4589 28.9081 28.2773 28.7517 28.1516 28.5535C28.0259 28.3553 27.9618 28.1244 27.9673 27.8898C27.9464 27.5833 27.9993 27.2763 28.1214 26.9944C28.2435 26.7125 28.4313 26.464 28.6691 26.2696C29.0344 25.9549 29.4485 25.7017 29.8951 25.5201C30.1984 25.3858 30.5103 25.2732 30.8265 25.1519C30.8526 25.1466 30.8757 25.1316 30.891 25.1098C30.9063 25.088 30.9127 25.0612 30.9088 25.0349V24.5107H31.9919V27.7685C31.9954 27.9273 32.0143 28.0854 32.0482 28.2407C32.0672 28.379 32.1315 28.5071 32.2311 28.6051C32.3306 28.703 32.4597 28.7653 32.5984 28.7822C32.951 28.8598 33.3182 28.8388 33.6597 28.7215C33.8744 28.6536 34.0616 28.5184 34.1935 28.3358C34.3253 28.1532 34.3949 27.933 34.3918 27.7078V26.5512H35.5095V27.5302C35.4986 27.7911 35.5665 28.0493 35.7045 28.271C35.8005 28.4219 35.9321 28.547 36.0877 28.6353C36.2432 28.7237 36.418 28.7726 36.5969 28.7778H38.4987C38.6704 28.7563 38.84 28.72 39.0055 28.6695L38.9145 28.5742L37.6149 27.24C37.5944 27.2206 37.5784 27.197 37.5679 27.1708C37.5575 27.1446 37.5528 27.1165 37.5543 27.0883V25.8407C37.5503 25.8116 37.5575 25.782 37.5743 25.7579C37.5912 25.7338 37.6165 25.717 37.6452 25.7107C38.2603 25.4635 38.9113 25.3173 39.573 25.2775C40.332 25.2182 41.0949 25.3186 41.8127 25.5721C42.0033 25.6371 42.1809 25.7281 42.3585 25.8017C42.3815 25.8078 42.4014 25.8224 42.4142 25.8424C42.427 25.8624 42.4319 25.8866 42.4279 25.91V27.0667C42.4276 27.1189 42.4093 27.1694 42.3759 27.2096C42.0265 27.7106 41.6129 28.1636 41.1456 28.5569L41.0286 28.6565C41.1177 28.6899 41.2088 28.7174 41.3015 28.7389C41.4692 28.7669 41.6385 28.7843 41.8084 28.7908H43.0387C43.2386 28.7811 43.4372 28.7535 43.6322 28.7085C43.7373 28.685 43.8366 28.6403 43.9237 28.5769C44.0109 28.5136 44.0842 28.4331 44.139 28.3403C44.2671 28.1426 44.3828 27.9371 44.4856 27.7252C44.6443 27.3693 44.8372 27.0298 45.0618 26.7114C45.3079 26.3442 45.6622 26.0626 46.0755 25.9057C46.4534 25.7588 46.8705 25.7466 47.2564 25.8713C47.6422 25.996 47.9733 26.2498 48.1939 26.5901C48.4472 27.003 48.5959 27.4714 48.6271 27.9548V28.4269C48.6244 28.4525 48.6296 28.4782 48.642 28.5006C48.6544 28.5231 48.6734 28.5412 48.6964 28.5526C48.9229 28.6946 49.183 28.7738 49.4502 28.7822C50.3533 28.8385 51.259 28.8385 52.1621 28.7822C52.8455 28.716 53.5147 28.5451 54.1462 28.2753L54.757 28.0154L54.8393 27.9764H54.8133C54.2216 27.6451 53.601 27.3681 52.9592 27.149C52.2854 26.9453 51.5665 26.9453 50.8928 27.149H50.8408" fill="black"/>
<path d="M12.8357 27.3657C12.8421 27.2557 12.8246 27.1456 12.7842 27.0431C12.7438 26.9406 12.6815 26.8482 12.6017 26.7722C12.4845 26.6622 12.3429 26.5817 12.1885 26.5373C12.0341 26.4929 11.8713 26.4858 11.7136 26.5166C11.5842 26.5262 11.4596 26.5694 11.352 26.642C11.2444 26.7146 11.1577 26.814 11.1004 26.9305C11.043 27.0469 11.0171 27.1763 11.0251 27.3058C11.0331 27.4353 11.0749 27.5605 11.1461 27.6689C11.2814 27.899 11.4799 28.0854 11.718 28.2061C11.8592 28.2704 12.0038 28.3268 12.1512 28.3751C12.2834 28.2903 12.4094 28.1962 12.5281 28.0935C12.6262 27.9999 12.7035 27.8868 12.755 27.7614C12.8065 27.636 12.831 27.5012 12.827 27.3657M6.71875 22.726H7.90574V27.6039C7.90495 27.7616 7.92387 27.9188 7.96206 28.0718C8.00219 28.2595 8.10352 28.4286 8.25015 28.5525C8.39677 28.6764 8.58038 28.748 8.77216 28.7563C9.07983 28.7916 9.38977 28.8032 9.69923 28.7909C9.96781 28.7909 10.2364 28.7519 10.5007 28.726C10.5366 28.7305 10.573 28.7305 10.609 28.726L10.57 28.6783C10.2912 28.4116 10.1026 28.0646 10.0304 27.6857C9.95821 27.3068 10.006 26.9147 10.1671 26.5642C10.274 26.2365 10.4665 25.9432 10.7247 25.7148C10.9829 25.4863 11.2974 25.3309 11.6357 25.2646C11.9121 25.1923 12.2016 25.1852 12.4812 25.2439C12.7609 25.3025 13.0231 25.4253 13.2472 25.6025C13.4965 25.7976 13.6901 26.0548 13.8087 26.3482C13.9273 26.6417 13.9667 26.9612 13.923 27.2747C13.8685 27.7912 13.6302 28.2708 13.2515 28.6263L13.1996 28.6783V28.7043L13.3858 28.7346C13.8634 28.8039 14.3471 28.8213 14.8284 28.7866C15.131 28.782 15.4194 28.6577 15.6305 28.4409C15.8416 28.2241 15.9582 27.9325 15.9548 27.6299C15.9548 27.6299 15.9548 27.5953 15.9548 27.5779V26.5902H17.0854V27.565C17.0813 27.7824 17.1288 27.9976 17.2241 28.1931C17.2972 28.343 17.4034 28.4744 17.5348 28.5772C17.6661 28.68 17.8191 28.7516 17.9822 28.7866C18.2805 28.8516 18.5893 28.8516 18.8876 28.7866C19.0965 28.7581 19.288 28.6544 19.4259 28.4949C19.5639 28.3354 19.639 28.1311 19.637 27.9202C19.6457 27.8309 19.6457 27.7409 19.637 27.6516V22.8516C19.637 22.7217 19.637 22.7217 19.767 22.7217H20.7071C20.7677 22.7217 20.798 22.7217 20.798 22.804V27.8899C20.7933 28.2015 20.7377 28.5102 20.6334 28.8039C20.5375 29.0931 20.3707 29.3536 20.1482 29.5617C19.9257 29.7698 19.6547 29.9188 19.3598 29.9953C18.6955 30.189 17.9877 30.1739 17.3324 29.9519C17.1347 29.8874 16.9541 29.7791 16.8041 29.6351C16.6541 29.4911 16.5385 29.3151 16.4659 29.1202C16.3561 29.3605 16.1902 29.5708 15.9821 29.7337C15.774 29.8965 15.5299 30.007 15.2703 30.0559C14.8778 30.1512 14.4718 30.1776 14.0703 30.1339C13.3777 30.077 12.6965 29.9224 12.0472 29.6747C12.0011 29.6574 11.9503 29.6574 11.9043 29.6747C10.9324 30.0199 9.90139 30.1671 8.8718 30.1079C8.44379 30.0865 8.0268 29.9649 7.65448 29.7527C7.44671 29.6274 7.26886 29.4581 7.1334 29.2568C6.99795 29.0555 6.90818 28.827 6.87037 28.5873C6.81423 28.3281 6.78376 28.064 6.7794 27.7989V22.739" fill="black"/>
<path d="M6.30412 31.4638V32.6551C6.28563 32.6848 6.26219 32.7112 6.23481 32.7331C5.85098 32.8879 5.45362 33.0068 5.04782 33.0883C4.33555 33.235 3.60482 33.27 2.88178 33.1923C2.34131 33.1438 1.81424 32.997 1.32656 32.7591C0.969579 32.5962 0.669042 32.331 0.463101 31.997C0.25716 31.663 0.155104 31.2754 0.169889 30.8833C0.154913 30.478 0.227673 30.0742 0.383193 29.6996C0.538713 29.325 0.773321 28.9884 1.07096 28.7129C1.62626 28.1705 2.27302 27.7306 2.98141 27.4133L3.19802 27.3093C2.26921 26.8464 1.19925 26.7535 0.204546 27.0494C0.200255 27.025 0.200255 27.0001 0.204546 26.9757V25.845C0.204546 25.7974 0.204546 25.7671 0.269527 25.7541C1.05454 25.5462 1.88016 25.5462 2.66517 25.7541C3.27441 25.9402 3.86825 26.1734 4.44133 26.4515C4.76623 26.5988 5.09547 26.7245 5.42471 26.8544C5.48969 26.8544 5.52002 26.9064 5.51568 26.9844V27.7728C5.51568 27.8378 5.51569 27.8638 5.42904 27.8768C4.57645 28.0448 3.74733 28.3153 2.95975 28.6826C2.5085 28.879 2.09619 29.1548 1.74244 29.497C1.50847 29.7316 1.35653 30.0355 1.30923 30.3634C1.26584 30.5877 1.29393 30.82 1.38952 31.0275C1.48511 31.235 1.6434 31.4073 1.84207 31.5201C2.18317 31.697 2.55542 31.8059 2.93809 31.8407C4.06463 31.9742 5.20677 31.8497 6.27813 31.4768H6.32145" fill="black"/>
<path d="M24.0158 30.1296H22.8418V22.7261H23.9335C24.0245 22.7261 24.0418 22.7261 24.0418 22.8387V30.0256C24.0461 30.0645 24.0461 30.1037 24.0418 30.1426" fill="black"/>
<path d="M11.932 24.4244C11.8458 24.4267 11.7599 24.4119 11.6794 24.3808C11.5988 24.3498 11.5252 24.3031 11.4628 24.2435C11.4004 24.184 11.3504 24.1126 11.3157 24.0336C11.281 23.9546 11.2622 23.8695 11.2606 23.7832V23.7572C11.2457 23.6649 11.2501 23.5705 11.2734 23.48C11.2967 23.3894 11.3384 23.3047 11.3959 23.231C11.4534 23.1573 11.5255 23.0962 11.6077 23.0516C11.6898 23.007 11.7803 22.9798 11.8735 22.9718C11.9666 22.9637 12.0604 22.9749 12.149 23.0048C12.2376 23.0346 12.3191 23.0823 12.3884 23.1451C12.4578 23.2078 12.5134 23.2841 12.5519 23.3693C12.5904 23.4545 12.6109 23.5468 12.6122 23.6402C12.6165 23.6791 12.6165 23.7183 12.6122 23.7572C12.6145 23.8425 12.5997 23.9274 12.5688 24.0069C12.5379 24.0864 12.4914 24.1589 12.4321 24.2203C12.3728 24.2816 12.3019 24.3305 12.2234 24.364C12.145 24.3976 12.0607 24.4151 11.9754 24.4157H11.932" fill="black"/>
<path d="M52.7635 32.2868C52.6343 32.2868 52.508 32.2485 52.4005 32.1769C52.2931 32.1052 52.2092 32.0033 52.1596 31.884C52.1099 31.7647 52.0967 31.6334 52.1216 31.5066C52.1465 31.3799 52.2084 31.2633 52.2994 31.1716C52.3905 31.08 52.5066 31.0173 52.6333 30.9916C52.7599 30.9659 52.8912 30.9782 53.0109 31.0271C53.1305 31.0759 53.2329 31.1591 53.3053 31.2661C53.3777 31.3731 53.4168 31.4991 53.4177 31.6283C53.4205 31.7123 53.4068 31.7961 53.3771 31.8747C53.3475 31.9534 53.3026 32.0254 53.245 32.0866C53.1874 32.1478 53.1183 32.197 53.0416 32.2314C52.9649 32.2657 52.8822 32.2846 52.7982 32.2868H52.7635Z" fill="black"/>
<path d="M35.064 32.2221C34.9057 32.2244 34.7529 32.1644 34.6386 32.0549C34.5243 31.9455 34.4577 31.7954 34.4531 31.6372V31.5982C34.4662 31.4423 34.5373 31.297 34.6524 31.1911C34.7676 31.0852 34.9183 31.0264 35.0748 31.0264C35.2312 31.0264 35.382 31.0852 35.4971 31.1911C35.6123 31.297 35.6834 31.4423 35.6964 31.5982C35.7023 31.7573 35.645 31.9121 35.537 32.029C35.4291 32.1459 35.2792 32.2153 35.1203 32.2221H35.0726" fill="black"/>
<path d="M31.9678 23.5841C31.8461 23.5815 31.7278 23.5431 31.6277 23.4737C31.5276 23.4043 31.4503 23.3069 31.4052 23.1938C31.3602 23.0806 31.3495 22.9567 31.3745 22.8375C31.3995 22.7183 31.4591 22.6092 31.5458 22.5236C31.6325 22.4381 31.7425 22.3801 31.862 22.3567C31.9815 22.3334 32.1053 22.3457 32.2178 22.3923C32.3303 22.4389 32.4266 22.5176 32.4946 22.6186C32.5627 22.7196 32.5994 22.8385 32.6003 22.9602C32.6003 23.1215 32.5365 23.2762 32.4229 23.3906C32.3093 23.5051 32.155 23.5699 31.9938 23.5711" fill="black"/>
<path d="M17.1207 25.7239C16.9606 25.7286 16.8051 25.6697 16.6882 25.5601C16.5713 25.4505 16.5025 25.2992 16.4969 25.1391V25.1131C16.4892 25.0314 16.4977 24.9491 16.5218 24.8707C16.546 24.7923 16.5853 24.7195 16.6376 24.6564C16.6899 24.5932 16.7541 24.541 16.8266 24.5026C16.8991 24.4643 16.9784 24.4406 17.0601 24.4329C17.1417 24.4252 17.224 24.4337 17.3024 24.4579C17.3808 24.482 17.4536 24.5213 17.5168 24.5736C17.5799 24.6259 17.6322 24.6902 17.6705 24.7626C17.7088 24.8351 17.7325 24.9145 17.7402 24.9961C17.7445 25.035 17.7445 25.0742 17.7402 25.1131C17.7425 25.272 17.6819 25.4255 17.5715 25.5399C17.4611 25.6543 17.31 25.7205 17.151 25.7239H17.1207Z" fill="black"/>
<path d="M30.2675 23.5839C30.1883 23.5862 30.1094 23.5727 30.0354 23.5442C29.9614 23.5158 29.8939 23.4729 29.8366 23.4181C29.7794 23.3632 29.7336 23.2976 29.702 23.2249C29.6703 23.1522 29.6535 23.074 29.6524 22.9947C29.6524 22.9947 29.6524 22.9947 29.6524 22.9731C29.6518 22.8919 29.6673 22.8115 29.6979 22.7363C29.7286 22.6612 29.7738 22.5929 29.831 22.5353C29.8882 22.4777 29.9562 22.432 30.0311 22.4008C30.106 22.3696 30.1864 22.3536 30.2675 22.3536C30.3462 22.3471 30.4254 22.3563 30.5004 22.3808C30.5754 22.4053 30.6449 22.4445 30.7046 22.4962C30.7643 22.5478 30.8131 22.6108 30.8481 22.6816C30.8832 22.7523 30.9037 22.8293 30.9087 22.9081V22.9731C30.9098 23.0521 30.8954 23.1307 30.8662 23.2042C30.837 23.2777 30.7936 23.3447 30.7384 23.4014C30.6833 23.4581 30.6176 23.5034 30.545 23.5347C30.4723 23.5661 30.3943 23.5828 30.3152 23.5839H30.2848" fill="black"/>
<path d="M15.4179 25.698C15.2578 25.7003 15.1032 25.6392 14.988 25.528C14.8727 25.4168 14.8061 25.2646 14.8027 25.1045V25.0742C14.8073 24.9118 14.8759 24.7577 14.9936 24.6457C15.1112 24.5337 15.2685 24.4728 15.4309 24.4763C15.5088 24.474 15.5865 24.4871 15.6594 24.5148C15.7323 24.5425 15.799 24.5843 15.8557 24.6378C15.9124 24.6913 15.9581 24.7555 15.99 24.8267C16.0219 24.8978 16.0395 24.9746 16.0417 25.0525C16.0439 25.0712 16.0439 25.0901 16.0417 25.1088C16.0406 25.1873 16.024 25.2648 15.9929 25.3369C15.9618 25.409 15.9168 25.4743 15.8605 25.529C15.8042 25.5837 15.7376 25.6268 15.6647 25.6558C15.5917 25.6848 15.5137 25.6991 15.4352 25.698H15.4092" fill="black"/>
<path d="M33.4374 32.2219C33.3147 32.221 33.195 32.1837 33.0935 32.1147C32.992 32.0458 32.9133 31.9482 32.8674 31.8344C32.8214 31.7206 32.8103 31.5958 32.8354 31.4757C32.8605 31.3556 32.9207 31.2456 33.0083 31.1598C33.096 31.0739 33.2072 31.016 33.3278 30.9935C33.4484 30.9709 33.573 30.9847 33.6858 31.033C33.7986 31.0814 33.8945 31.1621 33.9613 31.265C34.0281 31.3679 34.0629 31.4884 34.0612 31.611C34.0623 31.6905 34.0477 31.7694 34.0183 31.8431C33.9888 31.9169 33.945 31.9841 33.8894 32.0409C33.8339 32.0977 33.7676 32.1429 33.6945 32.174C33.6213 32.205 33.5428 32.2213 33.4634 32.2219H33.4287" fill="black"/>
</svg>
