<svg width="67" height="28" viewBox="0 0 67 28" fill="none" xmlns="http://www.w3.org/2000/svg">
<path d="M44.0127 0.125488V7.01965H53.2049L50.9069 0.125488H44.0127Z" fill="#8535D9"/>
<path d="M53.2061 7.02295L55.5071 13.9171H67.0004V7.02295H53.2061Z" fill="#8535D9"/>
<path d="M44.0127 13.917V20.8112H57.804L55.506 13.917H44.0127Z" fill="#8535D9"/>
<path d="M57.8037 20.8145L60.1048 27.7086H66.9989V20.8145H57.8037Z" fill="#8535D9"/>
<path d="M1.70215 0.113399H3.98225C4.22358 0.0939496 4.46534 0.1453 4.67793 0.26116C4.89051 0.37702 5.0647 0.552362 5.17915 0.765711C5.29984 1.03507 5.35226 1.33004 5.33176 1.62449V3.9764H4.36526V1.60953C4.36526 1.17266 4.15281 0.93627 3.74586 0.93627H2.66566V3.98538H1.70215V0.113399Z" fill="black"/>
<path d="M6.4301 0.924972H5.99023V0.123047H7.40856V3.98605H6.4301V0.924972Z" fill="black"/>
<path d="M8.32985 3.18676H9.35021C10.3975 3.18676 10.8284 2.88753 10.8284 1.933C10.8284 1.17297 10.4783 0.810902 9.83795 0.810902C9.30233 0.810902 8.97319 1.06824 8.97319 1.45723C8.97319 1.78339 9.20658 1.933 9.49384 1.98387V2.77083C9.00909 2.77083 8.06055 2.50153 8.06055 1.49613C8.06055 0.598452 8.79963 0 9.90976 0C11.1276 0 11.7739 0.655305 11.7739 1.87315C11.7739 3.23762 10.987 3.96773 9.50581 3.96773H8.32985V3.18676Z" fill="black"/>
<path d="M12.1329 3.95574V3.1957C12.2373 3.21701 12.3436 3.22803 12.4501 3.22862C12.7673 3.22862 12.9917 3.12688 12.9917 2.56134V0.924579H12.127V0.113677H15.1013C15.3423 0.0961289 15.5833 0.148298 15.7956 0.263961C16.0078 0.379623 16.1823 0.553896 16.2982 0.765989C16.4154 1.03314 16.4657 1.32482 16.4448 1.61579V3.97668H15.4813V1.60981C15.4813 1.17294 15.2808 0.933555 14.8828 0.933555H13.9582V2.68403C13.9582 3.77919 13.3598 4.02755 12.6745 4.02755C12.4913 4.02959 12.3088 4.00438 12.1329 3.95274" fill="black"/>
<path d="M18.5488 3.95574V3.1957C18.6532 3.21701 18.7595 3.22803 18.866 3.22862C19.1832 3.22862 19.4076 3.12688 19.4076 2.56134V0.924579H18.5488V0.113677H21.5231C21.7642 0.0961289 22.0052 0.148298 22.2174 0.263961C22.4297 0.379623 22.6041 0.553896 22.72 0.765989C22.8362 1.03339 22.8855 1.32506 22.8637 1.61579V3.97668H21.8882V1.60981C21.8882 1.17294 21.6847 0.933555 21.2748 0.933555H20.3771V2.68403C20.3771 3.77919 19.7786 4.02755 19.0964 4.02755C18.9167 4.03339 18.7372 4.01221 18.5638 3.96471" fill="black"/>
<path d="M23.4473 3.95574V3.1957C23.5453 3.21871 23.6458 3.22976 23.7465 3.22862C24.0667 3.22862 24.2881 3.12688 24.2881 2.56134V0.924579H23.4473V0.113677H26.4066C26.6477 0.0961289 26.8887 0.148298 27.1009 0.263961C27.3131 0.379623 27.4876 0.553896 27.6035 0.765989C27.7187 1.03365 27.7669 1.32531 27.7441 1.61579V3.97668H26.7866V1.60981C26.7866 1.17294 26.5832 0.933555 26.1882 0.933555H25.2905V2.68403C25.2905 3.77919 24.692 4.02755 24.0098 4.02755C23.8301 4.03339 23.6506 4.01221 23.4772 3.96471" fill="black"/>
<path d="M28.8442 0.924484H28.4014V0.122559H29.8197V3.98556H28.8442V0.924484Z" fill="black"/>
<path d="M32.4212 4.01902V3.21411C32.5363 3.23789 32.6536 3.24992 32.7713 3.25001C33.4714 3.25001 33.7677 2.8281 33.7677 2.05311C33.7677 1.27811 33.4685 0.856206 32.9209 0.856206C32.475 0.856206 32.2207 1.15543 32.086 1.58033C31.9033 2.13128 31.7927 2.70357 31.7569 3.28293L31.6761 4.028H30.7275C30.7874 3.32781 30.937 2.19375 31.0776 1.45167L30.3535 0.114126H31.4397L31.7928 0.688639C31.935 0.483048 32.1272 0.316975 32.3512 0.206012C32.5752 0.0950498 32.8237 0.0428385 33.0735 0.0542805C34.0759 0.0542805 34.7521 0.718562 34.7521 1.99027C34.7521 3.26198 34.0968 4.08485 32.873 4.08485C32.7246 4.08798 32.5764 4.06984 32.4331 4.03099" fill="black"/>
<path d="M35.1552 3.18083H36.2803L35.0654 0.11377H36.1157L37.2528 3.07012C37.3601 3.00947 37.4505 2.92294 37.5158 2.81842C37.5812 2.7139 37.6193 2.5947 37.6268 2.47167C37.7416 1.90667 37.7918 1.33045 37.7764 0.754113V0.11377H38.7669V0.837896C38.7644 1.28398 38.7364 1.72955 38.6831 2.17244C38.4886 3.43817 37.8692 3.98575 36.3431 3.98575H35.1462L35.1552 3.18083Z" fill="black"/>
<path d="M1.75047 10.398L2.53444 8.15677L3.3244 10.4069L1.75047 10.398ZM1.91505 7.26807L0 12.3818H1.05028L1.46321 11.1849H3.60567L4.04553 12.3818H5.09582L3.18675 7.26807H1.91505Z" fill="black"/>
<path d="M8.31247 10.5055C8.31247 9.80532 7.96238 9.30861 7.3759 9.30861C6.78941 9.30861 6.42436 9.79335 6.42436 10.5055C6.42436 11.2177 6.80138 11.7024 7.36991 11.7024C7.93844 11.7024 8.3035 11.2356 8.3035 10.5055M5.51172 8.64133H6.14608L6.36152 9.03033C6.5144 8.86783 6.69962 8.73914 6.90525 8.65256C7.11088 8.56598 7.33236 8.52342 7.55543 8.52763C8.56382 8.52763 9.25204 9.3116 9.25204 10.4756C9.25204 11.6396 8.51894 12.4924 7.45669 12.4924C7.10449 12.5041 6.75832 12.3989 6.47223 12.1931V14.0573H5.51172V8.64133Z" fill="black"/>
<path d="M12.738 10.5057C12.738 9.80552 12.3879 9.3088 11.8044 9.3088C11.2209 9.3088 10.8469 9.80252 10.8469 10.4997C10.8469 11.1969 11.2209 11.6966 11.7895 11.6966C12.358 11.6966 12.723 11.2298 12.723 10.4997M9.94922 8.62956H10.5806L10.796 9.01855C10.9507 8.85843 11.137 8.73214 11.343 8.64768C11.549 8.56321 11.7703 8.5224 11.9929 8.52782C12.9983 8.52782 13.6895 9.31179 13.6895 10.4758C13.6895 11.6398 12.9564 12.4926 11.8942 12.4926C11.541 12.5048 11.1937 12.3995 10.9067 12.1933V14.0575H9.94922V8.62956Z" fill="black"/>
<path d="M15.3029 6.89404H14.3633V12.3908H15.3029V6.89404Z" fill="black"/>
<path d="M18.7832 10.1526C18.7602 9.91582 18.6499 9.69607 18.4737 9.53618C18.2975 9.37628 18.0681 9.28771 17.8302 9.28771C17.5923 9.28771 17.3629 9.37628 17.1867 9.53618C17.0105 9.69607 16.9002 9.91582 16.8772 10.1526H18.7832ZM15.9855 10.5566C15.9855 9.33873 16.7455 8.52783 17.8586 8.52783C18.9718 8.52783 19.654 9.26991 19.654 10.4489C19.6545 10.5659 19.6475 10.6828 19.633 10.799H16.8502C16.8487 10.9235 16.8716 11.0472 16.9178 11.1629C16.9641 11.2786 17.0326 11.384 17.1196 11.4732C17.2065 11.5624 17.3102 11.6336 17.4247 11.6827C17.5392 11.7318 17.6622 11.7579 17.7868 11.7595H17.8108C17.9793 11.7626 18.1452 11.7182 18.2897 11.6315C18.4342 11.5447 18.5513 11.419 18.6276 11.2687H19.5253C19.411 11.6387 19.1771 11.9602 18.8603 12.1828C18.5434 12.4054 18.1616 12.5165 17.7748 12.4986C16.7006 12.4986 15.9795 11.7505 15.9795 10.5715" fill="black"/>
<path d="M20.2221 12.2054V11.2808C20.5926 11.5769 21.0496 11.7439 21.5237 11.7566C21.8977 11.7566 22.1222 11.6279 22.1222 11.3915C22.1222 11.0025 21.4968 10.9876 20.9911 10.817C20.4226 10.6195 20.1562 10.2874 20.1562 9.76674C20.1562 8.99773 20.7038 8.5459 21.5925 8.5459C22.0074 8.54729 22.4165 8.64242 22.7894 8.82418V9.72186C22.4623 9.45227 22.0551 9.29865 21.6314 9.28499C21.2813 9.28499 21.0838 9.42861 21.0838 9.63508C21.0838 10.0301 21.6643 10.057 22.203 10.2335C22.7416 10.4101 23.0408 10.7093 23.0408 11.218C23.0408 11.996 22.4423 12.4777 21.5087 12.4777C21.0606 12.4707 20.619 12.3688 20.2131 12.1785" fill="black"/>
<path d="M26.248 10.1526C26.225 9.91582 26.1147 9.69607 25.9385 9.53618C25.7623 9.37628 25.5329 9.28771 25.295 9.28771C25.0571 9.28771 24.8277 9.37628 24.6515 9.53618C24.4753 9.69607 24.365 9.91582 24.342 10.1526H26.248ZM23.4473 10.5566C23.4473 9.33873 24.2103 8.52783 25.3264 8.52783C26.4425 8.52783 27.1218 9.26991 27.1218 10.4489C27.1227 10.566 27.1147 10.683 27.0978 10.799H24.312C24.3096 11.0503 24.4068 11.2924 24.5822 11.4723C24.7577 11.6523 24.9973 11.7555 25.2486 11.7595H25.2725C25.444 11.766 25.6138 11.7233 25.7618 11.6363C25.9098 11.5494 26.0297 11.4218 26.1074 11.2687H27.0051C26.8903 11.6384 26.6563 11.9597 26.3396 12.1822C26.0228 12.4047 25.6413 12.516 25.2546 12.4986C24.1834 12.4986 23.4592 11.7505 23.4592 10.5715" fill="black"/>
<path d="M30.4432 10.1526C30.4398 10.0332 30.4125 9.91557 30.363 9.80677C30.3135 9.69797 30.2428 9.60015 30.155 9.51904C30.0672 9.43794 29.9641 9.37518 29.8518 9.33446C29.7394 9.29373 29.62 9.27586 29.5006 9.28188C29.3806 9.27417 29.2602 9.29019 29.1463 9.32904C29.0325 9.36788 28.9274 9.42878 28.8371 9.50825C28.7468 9.58773 28.673 9.68422 28.62 9.79222C28.567 9.90022 28.5358 10.0176 28.5282 10.1377L30.4432 10.1526ZM27.6484 10.5566C27.6484 9.33873 28.4115 8.52783 29.5246 8.52783C30.6377 8.52783 31.3199 9.26991 31.3199 10.4489C31.3204 10.5659 31.3134 10.6828 31.299 10.799H28.5012C28.5 10.9239 28.5235 11.0479 28.5702 11.1638C28.6169 11.2797 28.686 11.3852 28.7736 11.4744C28.8611 11.5636 28.9653 11.6347 29.0803 11.6836C29.1953 11.7325 29.3188 11.7583 29.4438 11.7595H29.4647C29.6363 11.7685 29.8067 11.7268 29.9546 11.6395C30.1026 11.5522 30.2215 11.4233 30.2966 11.2687H31.1943C31.08 11.6387 30.846 11.9602 30.5292 12.1828C30.2124 12.4054 29.8306 12.5165 29.4438 12.4986C28.3726 12.4986 27.6484 11.7505 27.6484 10.5715" fill="black"/>
<path d="M34.6473 10.5027C34.6473 9.78456 34.2733 9.32076 33.7197 9.32076C33.1662 9.32076 32.7712 9.80551 32.7712 10.5177C32.7712 11.2298 33.1422 11.7146 33.6988 11.7146C34.2553 11.7146 34.6473 11.2089 34.6473 10.5177M35.545 6.909V12.3818H34.9107L34.6982 12.0018C34.5419 12.1592 34.3551 12.283 34.1493 12.3659C33.9435 12.4487 33.7231 12.4887 33.5013 12.4836C32.4959 12.4836 31.8047 11.7056 31.8047 10.5416C31.8047 9.37762 32.5378 8.51884 33.6 8.51884C33.9524 8.51305 34.2976 8.61768 34.5875 8.81807V6.89404L35.545 6.909Z" fill="black"/>
<path d="M36.2973 12.2054V11.2808C36.6684 11.5757 37.1251 11.7426 37.5989 11.7566C37.9729 11.7566 38.1974 11.6279 38.1974 11.3915C38.1974 11.0025 37.569 10.9876 37.0663 10.817C36.4888 10.6195 36.2314 10.2904 36.2314 9.76674C36.2314 8.99773 36.779 8.5459 37.6737 8.5459C38.0886 8.54667 38.4979 8.64183 38.8706 8.82418V9.72186C38.5426 9.45185 38.1343 9.29822 37.7096 9.28499C37.3625 9.28499 37.165 9.42861 37.165 9.63508C37.165 10.0301 37.7455 10.057 38.2901 10.2335C38.8347 10.4101 39.122 10.7093 39.122 11.218C39.122 11.996 38.5235 12.4777 37.5899 12.4777C37.1417 12.4707 36.7001 12.3688 36.2943 12.1785" fill="black"/>
<path d="M21.3493 18.2647C21.0738 18.321 20.8043 18.4031 20.5444 18.5101C20.4197 18.5668 20.3022 18.6382 20.1943 18.7225C20.135 18.7667 20.0869 18.8241 20.0536 18.8901C20.0396 18.9128 20.0302 18.9381 20.0261 18.9645C20.0219 18.9909 20.0231 19.0178 20.0295 19.0437C20.0359 19.0696 20.0474 19.094 20.0634 19.1154C20.0794 19.1368 20.0994 19.1548 20.1225 19.1684H20.1434C20.212 19.2049 20.2856 19.2311 20.3618 19.2462C20.6271 19.2876 20.8967 19.2946 21.1638 19.2671L21.3493 19.2641V18.2647ZM27.6839 19.4048C28.0197 19.1678 28.3097 18.8717 28.5397 18.531C28.1896 18.2917 27.0435 18.2587 26.7443 18.4921L27.6809 19.3898M31.2955 19.689L31.3614 19.722C31.5678 19.7818 31.7713 19.8476 31.9778 19.8985C32.2383 19.9677 32.5072 19.9999 32.7767 19.9942C32.8425 19.9942 32.8814 19.9733 32.8844 19.9045V19.5454C32.8724 19.3541 32.8037 19.1708 32.6869 19.0188C32.6329 18.9513 32.566 18.8952 32.4902 18.8538C32.4144 18.8123 32.3311 18.7862 32.2452 18.777C32.1592 18.7678 32.0723 18.7757 31.9895 18.8003C31.9066 18.8248 31.8294 18.8655 31.7623 18.92C31.733 18.9444 31.705 18.9704 31.6786 18.9978C31.5564 19.1542 31.4557 19.3263 31.3793 19.5095C31.3494 19.5723 31.3255 19.6322 31.2955 19.698M35.1615 18.7195V17.7979C35.2625 17.7877 35.3626 17.7697 35.4608 17.7441C35.9808 17.6482 36.5173 17.7022 37.0078 17.8997C37.307 18.0253 37.6062 18.172 37.9054 18.3156C38.2555 18.4951 38.6056 18.6657 38.9557 18.8572C38.9701 18.8624 38.9824 18.8724 38.9905 18.8854C38.9987 18.8984 39.0022 18.9137 39.0006 18.929V19.4526C39.0007 19.4654 38.9978 19.4781 38.9921 19.4895C38.9864 19.501 38.978 19.5109 38.9677 19.5185C38.3749 19.9288 37.735 20.2663 37.0616 20.5239C36.5341 20.7127 35.9791 20.8138 35.4189 20.8231H34.2489C33.9684 20.8173 33.6942 20.7389 33.453 20.5957C33.4447 20.5912 33.4354 20.5889 33.426 20.5889C33.4166 20.5889 33.4074 20.5912 33.3991 20.5957C33.2927 20.6861 33.1694 20.7546 33.0364 20.7973C32.9034 20.8399 32.7633 20.8558 32.6241 20.844C32.0606 20.8375 31.5042 20.7185 30.9873 20.494C30.9673 20.482 30.9437 20.4776 30.9207 20.4814C30.8977 20.4853 30.8768 20.4971 30.8617 20.5149C30.6431 20.6909 30.3756 20.7953 30.0956 20.8141C29.556 20.8667 29.0118 20.8486 28.4768 20.7603C28.1906 20.7101 27.9213 20.5898 27.6929 20.4102C27.6795 20.3975 27.6619 20.3905 27.6435 20.3905C27.6251 20.3905 27.6075 20.3975 27.5941 20.4102C27.2589 20.6435 26.865 20.7782 26.4571 20.7992C26.1578 20.7992 25.8377 20.8291 25.5295 20.8291C25.2435 20.8418 24.9578 20.7981 24.6886 20.7004C24.5618 20.6548 24.4458 20.5834 24.3479 20.4907C24.2501 20.398 24.1725 20.286 24.1201 20.1618C24.0452 20.3293 23.9305 20.476 23.7861 20.5891C23.6417 20.7023 23.4718 20.7785 23.2913 20.8111C23.024 20.8705 22.7482 20.8806 22.4774 20.8411C22.2679 20.8305 22.0634 20.7733 21.8789 20.6735C21.7174 20.5805 21.5856 20.4435 21.4989 20.2785C21.492 20.2581 21.4778 20.241 21.459 20.2305C21.4402 20.22 21.4181 20.2168 21.3972 20.2217C21.1578 20.2217 20.9124 20.2456 20.67 20.2426C20.3696 20.2393 20.0739 20.1676 19.8053 20.0331C19.6571 19.9675 19.5316 19.8595 19.4448 19.7226C19.358 19.5857 19.3137 19.4262 19.3175 19.2641C19.3031 19.0524 19.3396 18.8404 19.4239 18.6457C19.5082 18.451 19.638 18.2793 19.8023 18.145C20.0546 17.9276 20.3406 17.7528 20.6491 17.6274C20.8585 17.5346 21.074 17.4568 21.2924 17.373C21.3104 17.3694 21.3264 17.359 21.3369 17.344C21.3475 17.3289 21.3519 17.3104 21.3493 17.2922V16.9302H22.0973V19.1804C22.0998 19.2901 22.1128 19.3993 22.1362 19.5065C22.1494 19.6021 22.1938 19.6906 22.2626 19.7582C22.3313 19.8259 22.4205 19.8689 22.5163 19.8805C22.7598 19.9341 23.0135 19.9196 23.2494 19.8387C23.3977 19.7917 23.5269 19.6983 23.618 19.5722C23.7091 19.4461 23.7572 19.294 23.7551 19.1385V18.3395H24.5271V19.0158C24.5195 19.196 24.5664 19.3743 24.6617 19.5275C24.7281 19.6317 24.819 19.7181 24.9264 19.7791C25.0338 19.8401 25.1546 19.8739 25.2781 19.8776H26.5917C26.7103 19.8627 26.8275 19.8376 26.9418 19.8027L26.879 19.7369L25.9813 18.8153C25.9672 18.8019 25.9561 18.7856 25.9489 18.7675C25.9416 18.7494 25.9384 18.73 25.9394 18.7106V17.8488C25.9367 17.8287 25.9416 17.8083 25.9533 17.7916C25.9649 17.775 25.9824 17.7634 26.0022 17.759C26.4271 17.5883 26.8767 17.4873 27.3338 17.4598C27.858 17.4188 28.385 17.4882 28.8808 17.6633C29.0124 17.7082 29.1351 17.771 29.2578 17.8219C29.2737 17.8261 29.2874 17.8361 29.2963 17.85C29.3051 17.8638 29.3085 17.8805 29.3057 17.8967V18.6956C29.3055 18.7317 29.2928 18.7666 29.2698 18.7944C29.0285 19.1404 28.7428 19.4533 28.42 19.7249L28.3392 19.7938C28.4007 19.8168 28.4637 19.8358 28.5277 19.8506C28.6435 19.87 28.7605 19.882 28.8778 19.8865H29.7276C29.8657 19.8798 30.0028 19.8607 30.1375 19.8297C30.2102 19.8135 30.2787 19.7825 30.3389 19.7388C30.3991 19.695 30.4498 19.6394 30.4876 19.5753C30.5761 19.4388 30.656 19.2969 30.727 19.1504C30.8366 18.9047 30.9699 18.6702 31.125 18.4502C31.295 18.1966 31.5397 18.0021 31.8252 17.8937C32.0862 17.7922 32.3743 17.7838 32.6408 17.8699C32.9074 17.9561 33.1361 18.1314 33.2884 18.3665C33.4633 18.6516 33.5661 18.9752 33.5876 19.309V19.6352C33.5858 19.6528 33.5894 19.6706 33.5979 19.6861C33.6065 19.7016 33.6196 19.7141 33.6355 19.722C33.7919 19.82 33.9716 19.8748 34.1561 19.8805C34.7799 19.9194 35.4055 19.9194 36.0293 19.8805C36.5014 19.8348 36.9636 19.7168 37.3998 19.5304L37.8217 19.3509L37.8785 19.324H37.8606C37.4518 19.0951 37.0232 18.9038 36.5799 18.7525C36.1145 18.6117 35.6179 18.6117 35.1526 18.7525H35.1167" fill="black"/>
<path d="M8.86667 18.902C8.87114 18.8261 8.859 18.75 8.8311 18.6792C8.80319 18.6084 8.76019 18.5446 8.70509 18.4921C8.62415 18.4162 8.52632 18.3606 8.41967 18.3299C8.31302 18.2992 8.2006 18.2943 8.09168 18.3156C8.00229 18.3222 7.91618 18.3521 7.84188 18.4022C7.76758 18.4523 7.70766 18.521 7.66806 18.6014C7.62846 18.6818 7.61054 18.7712 7.61609 18.8607C7.62164 18.9501 7.65046 19.0366 7.69969 19.1115C7.79314 19.2704 7.93022 19.3992 8.09467 19.4825C8.19218 19.5269 8.29208 19.5659 8.39389 19.5992C8.48521 19.5407 8.57221 19.4757 8.65422 19.4047C8.72198 19.3401 8.77538 19.262 8.81095 19.1754C8.84652 19.0888 8.86347 18.9956 8.86069 18.902M4.6416 15.6973H5.46148V19.0666C5.46094 19.1755 5.474 19.2841 5.50038 19.3898C5.5281 19.5194 5.59809 19.6362 5.69937 19.7218C5.80064 19.8073 5.92747 19.8569 6.05993 19.8626C6.27245 19.887 6.48653 19.895 6.70027 19.8865C6.88579 19.8865 7.07132 19.8596 7.25384 19.8416C7.27868 19.8447 7.30381 19.8447 7.32865 19.8416L7.30172 19.8087C7.1092 19.6245 6.97892 19.3848 6.92904 19.1231C6.87916 18.8613 6.91216 18.5906 7.02344 18.3485C7.0973 18.1221 7.23027 17.9195 7.40859 17.7617C7.58691 17.6039 7.80413 17.4966 8.03781 17.4508C8.22876 17.4009 8.42869 17.396 8.62185 17.4365C8.81501 17.477 8.99613 17.5618 9.15094 17.6842C9.32311 17.8189 9.45686 17.9966 9.53879 18.1993C9.62071 18.402 9.64793 18.6227 9.61773 18.8392C9.58005 19.1959 9.41545 19.5273 9.15393 19.7728L9.11802 19.8087V19.8266L9.24669 19.8476C9.57656 19.8954 9.91064 19.9075 10.2431 19.8835C10.4521 19.8803 10.6513 19.7945 10.7971 19.6447C10.943 19.495 11.0235 19.2936 11.0211 19.0846C11.0211 19.0846 11.0211 19.0606 11.0211 19.0487V18.3664H11.8021V19.0397C11.7992 19.1898 11.832 19.3386 11.8978 19.4736C11.9483 19.5771 12.0217 19.6678 12.1124 19.7388C12.2032 19.8099 12.3088 19.8593 12.4215 19.8835C12.6275 19.9284 12.8408 19.9284 13.0469 19.8835C13.1912 19.8638 13.3234 19.7922 13.4187 19.682C13.514 19.5719 13.5658 19.4307 13.5645 19.285C13.5705 19.2234 13.5705 19.1612 13.5645 19.0995V15.7841C13.5645 15.6943 13.5645 15.6943 13.6543 15.6943H14.3036C14.3455 15.6943 14.3664 15.6943 14.3664 15.7512V19.2641C14.3631 19.4793 14.3247 19.6926 14.2527 19.8955C14.1865 20.0952 14.0713 20.2751 13.9176 20.4189C13.7639 20.5626 13.5767 20.6656 13.373 20.7183C12.9142 20.8522 12.4253 20.8417 11.9726 20.6884C11.8361 20.6439 11.7114 20.569 11.6077 20.4696C11.5041 20.3701 11.4243 20.2485 11.3742 20.1139C11.2983 20.2799 11.1837 20.4252 11.04 20.5377C10.8963 20.6501 10.7277 20.7265 10.5483 20.7602C10.2772 20.826 9.99678 20.8443 9.71946 20.8141C9.24104 20.7748 8.77057 20.668 8.32208 20.4969C8.29025 20.485 8.25517 20.485 8.22333 20.4969C7.55208 20.7353 6.83992 20.8371 6.12875 20.7961C5.83312 20.7814 5.5451 20.6973 5.28793 20.5508C5.14441 20.4642 5.02157 20.3473 4.92801 20.2083C4.83445 20.0692 4.77244 19.9114 4.74633 19.7459C4.70755 19.5668 4.6865 19.3844 4.68349 19.2013V15.7063" fill="black"/>
<path d="M4.3536 21.7327V22.5555C4.34082 22.5761 4.32463 22.5943 4.30572 22.6094C4.0406 22.7163 3.76614 22.7985 3.48584 22.8548C2.99387 22.9561 2.48913 22.9803 1.98971 22.9266C1.6164 22.8931 1.25235 22.7917 0.915494 22.6273C0.668922 22.5149 0.461335 22.3316 0.319088 22.101C0.17684 21.8703 0.106348 21.6025 0.116561 21.3317C0.106216 21.0517 0.156474 20.7728 0.263894 20.5141C0.371315 20.2554 0.533363 20.0229 0.738951 19.8326C1.1225 19.458 1.56923 19.1541 2.05854 18.9349L2.20815 18.8631C1.5666 18.5433 0.827559 18.4791 0.140499 18.6835C0.137535 18.6667 0.137535 18.6495 0.140499 18.6327V17.8517C0.140499 17.8188 0.140499 17.7978 0.185383 17.7889C0.727609 17.6453 1.29788 17.6453 1.8401 17.7889C2.26092 17.9174 2.67109 18.0785 3.06693 18.2706C3.29135 18.3723 3.51876 18.4591 3.74617 18.5489C3.79105 18.5489 3.812 18.5848 3.80901 18.6387V19.1833C3.80901 19.2281 3.80901 19.2461 3.74916 19.2551C3.16026 19.3711 2.58757 19.558 2.04358 19.8116C1.73189 19.9473 1.4471 20.1378 1.20275 20.3742C1.04115 20.5362 0.936197 20.7461 0.903525 20.9726C0.873558 21.1276 0.892955 21.288 0.958982 21.4313C1.02501 21.5746 1.13434 21.6936 1.27157 21.7716C1.50718 21.8937 1.7643 21.969 2.02861 21.993C2.80674 22.0852 3.59564 21.9992 4.33565 21.7416H4.36557" fill="black"/>
<path d="M16.5882 20.811H15.7773V15.6973H16.5314C16.5942 15.6973 16.6062 15.6973 16.6062 15.7751V20.7392C16.6092 20.7661 16.6092 20.7932 16.6062 20.82" fill="black"/>
<path d="M8.24123 16.8703C8.18164 16.8719 8.12233 16.8617 8.06671 16.8403C8.01109 16.8188 7.96025 16.7866 7.91714 16.7454C7.87403 16.7043 7.83949 16.655 7.81551 16.6004C7.79153 16.5458 7.77859 16.4871 7.77743 16.4275V16.4095C7.76719 16.3457 7.7702 16.2806 7.78629 16.218C7.80237 16.1555 7.83117 16.0969 7.8709 16.046C7.91063 15.9951 7.96042 15.9529 8.01718 15.9221C8.07393 15.8913 8.13643 15.8726 8.20077 15.867C8.2651 15.8614 8.32989 15.8692 8.3911 15.8898C8.4523 15.9104 8.5086 15.9434 8.55648 15.9867C8.60436 16.03 8.6428 16.0827 8.66939 16.1416C8.69597 16.2004 8.71014 16.2641 8.71101 16.3287C8.714 16.3556 8.714 16.3827 8.71101 16.4095C8.71261 16.4684 8.70243 16.527 8.68107 16.582C8.65972 16.6369 8.62762 16.687 8.58666 16.7293C8.54569 16.7717 8.49669 16.8055 8.44251 16.8286C8.38833 16.8518 8.33007 16.8639 8.27115 16.8643H8.24123" fill="black"/>
<path d="M36.446 22.3011C36.3567 22.3011 36.2695 22.2747 36.1953 22.2252C36.121 22.1757 36.0631 22.1053 36.0288 22.0229C35.9945 21.9405 35.9854 21.8498 36.0026 21.7622C36.0198 21.6747 36.0625 21.5942 36.1254 21.5309C36.1883 21.4675 36.2685 21.4243 36.356 21.4065C36.4434 21.3887 36.5342 21.3973 36.6168 21.431C36.6994 21.4647 36.7702 21.5222 36.8202 21.5961C36.8702 21.67 36.8972 21.7571 36.8978 21.8463C36.8998 21.9043 36.8903 21.9622 36.8698 22.0165C36.8494 22.0708 36.8183 22.1205 36.7786 22.1628C36.7388 22.2051 36.691 22.2391 36.6381 22.2628C36.5851 22.2866 36.5279 22.2996 36.4699 22.3011H36.446Z" fill="black"/>
<path d="M24.2198 22.2566C24.1105 22.2582 24.0049 22.2167 23.926 22.1411C23.847 22.0655 23.801 21.9619 23.7979 21.8526V21.8257C23.8068 21.718 23.856 21.6176 23.9355 21.5444C24.0151 21.4713 24.1192 21.4307 24.2272 21.4307C24.3353 21.4307 24.4394 21.4713 24.519 21.5444C24.5985 21.6176 24.6476 21.718 24.6566 21.8257C24.6607 21.9355 24.6211 22.0425 24.5465 22.1232C24.472 22.2039 24.3685 22.2519 24.2587 22.2566H24.2257" fill="black"/>
<path d="M22.08 16.2898C21.9959 16.288 21.9142 16.2615 21.8451 16.2135C21.776 16.1656 21.7226 16.0983 21.6915 16.0202C21.6604 15.942 21.653 15.8565 21.6702 15.7741C21.6875 15.6918 21.7287 15.6164 21.7886 15.5573C21.8484 15.4983 21.9244 15.4582 22.007 15.442C22.0895 15.4259 22.175 15.4345 22.2527 15.4666C22.3304 15.4988 22.3969 15.5532 22.4439 15.6229C22.4909 15.6927 22.5163 15.7748 22.5169 15.8589C22.5169 15.9703 22.4729 16.0771 22.3944 16.1562C22.3159 16.2352 22.2094 16.28 22.098 16.2808" fill="black"/>
<path d="M11.8254 17.7681C11.7147 17.7713 11.6073 17.7307 11.5266 17.655C11.4459 17.5793 11.3984 17.4747 11.3945 17.3641V17.3462C11.3892 17.2898 11.395 17.2329 11.4117 17.1788C11.4284 17.1247 11.4556 17.0744 11.4917 17.0307C11.5278 16.9871 11.5722 16.951 11.6222 16.9246C11.6723 16.8981 11.7271 16.8817 11.7835 16.8764C11.8399 16.8711 11.8967 16.877 11.9509 16.8936C12.005 16.9103 12.0553 16.9375 12.0989 16.9736C12.1425 17.0097 12.1786 17.0541 12.2051 17.1042C12.2316 17.1542 12.2479 17.209 12.2533 17.2654C12.2562 17.2922 12.2562 17.3193 12.2533 17.3462C12.2549 17.456 12.213 17.562 12.1367 17.641C12.0605 17.7201 11.9561 17.7657 11.8463 17.7681H11.8254Z" fill="black"/>
<path d="M20.9064 16.2897C20.8516 16.2913 20.7971 16.282 20.746 16.2623C20.6949 16.2426 20.6483 16.213 20.6087 16.1751C20.5692 16.1373 20.5376 16.0919 20.5157 16.0417C20.4939 15.9915 20.4822 15.9375 20.4815 15.8827C20.4815 15.8827 20.4815 15.8827 20.4815 15.8678C20.4811 15.8117 20.4918 15.7561 20.5129 15.7042C20.5341 15.6523 20.5653 15.6051 20.6048 15.5654C20.6443 15.5256 20.6913 15.494 20.7431 15.4725C20.7948 15.451 20.8503 15.4399 20.9064 15.4399C20.9607 15.4354 21.0154 15.4418 21.0672 15.4587C21.1191 15.4756 21.167 15.5027 21.2082 15.5384C21.2495 15.574 21.2832 15.6176 21.3074 15.6664C21.3316 15.7153 21.3458 15.7685 21.3492 15.8229V15.8678C21.35 15.9224 21.34 15.9766 21.3199 16.0274C21.2997 16.0782 21.2697 16.1244 21.2316 16.1636C21.1936 16.2028 21.1482 16.2341 21.098 16.2557C21.0478 16.2774 20.9939 16.2889 20.9393 16.2897H20.9183" fill="black"/>
<path d="M10.6495 17.7502C10.5389 17.7519 10.4322 17.7097 10.3526 17.6329C10.273 17.5561 10.227 17.4509 10.2246 17.3403V17.3194C10.2277 17.2072 10.2751 17.1008 10.3564 17.0234C10.4377 16.9461 10.5463 16.904 10.6585 16.9064C10.7123 16.9048 10.766 16.9139 10.8163 16.933C10.8666 16.9521 10.9127 16.981 10.9519 17.018C10.9911 17.0549 11.0226 17.0993 11.0447 17.1484C11.0667 17.1976 11.0788 17.2506 11.0804 17.3044C11.0819 17.3173 11.0819 17.3304 11.0804 17.3433C11.0796 17.3975 11.0682 17.4511 11.0467 17.5009C11.0252 17.5507 10.9941 17.5958 10.9552 17.6335C10.9163 17.6713 10.8704 17.7011 10.82 17.7211C10.7696 17.7411 10.7157 17.751 10.6615 17.7502H10.6435" fill="black"/>
<path d="M23.0967 22.2562C23.012 22.2556 22.9293 22.2298 22.8592 22.1822C22.7891 22.1345 22.7348 22.0671 22.703 21.9885C22.6713 21.91 22.6636 21.8237 22.6809 21.7408C22.6983 21.6578 22.7398 21.5818 22.8004 21.5225C22.861 21.4633 22.9378 21.4233 23.0211 21.4077C23.1044 21.3921 23.1904 21.4016 23.2683 21.435C23.3462 21.4684 23.4125 21.5242 23.4586 21.5952C23.5048 21.6663 23.5288 21.7495 23.5276 21.8343C23.5284 21.8891 23.5183 21.9436 23.498 21.9946C23.4776 22.0455 23.4474 22.092 23.409 22.1312C23.3706 22.1704 23.3248 22.2016 23.2743 22.2231C23.2238 22.2445 23.1696 22.2558 23.1147 22.2562H23.0907" fill="black"/>
</svg>
